<?xml version="1.0" encoding="UTF-8"?>
<svg width="13px" height="21px" viewBox="0 0 13 21" version="1.1" xmlns="http://www.w3.org/2000/svg" xmlns:xlink="http://www.w3.org/1999/xlink">
    <title>编组备份</title>
    <defs>
        <polygon id="path-1" points="8.125e-05 0.676145455 12.9634375 0.676145455 12.9634375 17.6337818 8.125e-05 17.6337818"></polygon>
    </defs>
    <g id="构家方案" stroke="none" stroke-width="1" fill="none" fill-rule="evenodd">
        <g id="初始界面" transform="translate(-229.000000, -628.000000)">
            <g id="编组备份" transform="translate(229.000000, 628.437500)">
                <g id="报价" transform="translate(0.000000, 1.000000)">
                    <mask id="mask-2" fill="white">
                        <use xlink:href="#path-1"></use>
                    </mask>
                    <g id="Clip-2"></g>
                    <path d="M8.125e-05,12.0856909 L2.03295625,11.9065091 C2.12883125,12.7271455 2.35308125,13.3996909 2.70489375,13.9257818 C3.05670625,14.4518727 3.60270625,14.8765091 4.34370625,15.2013273 C5.08389375,15.5253273 5.91670625,15.6873273 6.84295625,15.6873273 C7.66520625,15.6873273 8.39076875,15.5646 9.02045625,15.3183273 C9.64933125,15.0720545 10.1181437,14.7349636 10.4252687,14.3062364 C10.7323937,13.8775091 10.8859562,13.4095091 10.8859562,12.9022364 C10.8859562,12.3876 10.7380812,11.9384182 10.4423312,11.5546909 C10.1457687,11.1701455 9.65664375,10.8477818 8.97576875,10.5867818 C8.53864375,10.4149636 7.57176875,10.1490545 6.07676875,9.7866 C4.58014375,9.42578182 3.53283125,9.0846 2.93239375,8.76305455 C2.15483125,8.35314545 1.57551875,7.84423636 1.19445625,7.23632727 C0.81258125,6.62923636 0.62245625,5.94850909 0.62245625,5.19496364 C0.62245625,4.36696364 0.85564375,3.59378182 1.32201875,2.87378182 C1.78839375,2.1546 2.47008125,1.60805455 3.36626875,1.23496364 C4.26164375,0.862690909 5.25776875,0.676145455 6.35383125,0.676145455 C7.56120625,0.676145455 8.62558125,0.871690909 9.54776875,1.26278182 C10.4699562,1.65469091 11.1784562,2.23069091 11.6748937,2.9916 C12.1705187,3.75169091 12.4378312,4.61323636 12.4752062,5.57541818 L10.4090187,5.73169091 C10.2977062,4.69587273 9.92151875,3.91287273 9.28126875,3.38269091 C8.64020625,2.85332727 7.69445625,2.58905455 6.44320625,2.58905455 C5.13914375,2.58905455 4.18933125,2.8296 3.59376875,3.30987273 C2.99739375,3.79096364 2.69920625,4.37105455 2.69920625,5.04932727 C2.69920625,5.63923636 2.91045625,6.1236 3.33295625,6.50405455 C3.74733125,6.88450909 4.83039375,7.27396364 6.58214375,7.67241818 C8.33308125,8.07169091 9.53476875,8.42105455 10.1863937,8.71887273 C11.1345813,9.15905455 11.8341437,9.71623636 12.2858937,10.3912364 C12.7376437,11.0662364 12.9635187,11.8435091 12.9635187,12.7230545 C12.9635187,13.5960545 12.7148937,14.4183273 12.2192687,15.1898727 C11.7228312,15.9614182 11.0102687,16.5619636 10.0807687,16.9906909 C9.15126875,17.4194182 8.10558125,17.6337818 6.94289375,17.6337818 C5.46901875,17.6337818 4.23401875,17.4177818 3.23789375,16.9849636 C2.24176875,16.5529636 1.46095625,15.9025091 0.89464375,15.0336 C0.32751875,14.1646909 0.02933125,13.1820545 8.125e-05,12.0856909" id="Fill-1" fill="#FFFFFF" mask="url(#mask-2)"></path>
                </g>
                <path d="M3.093,0 C3.093,0 3.421,1.20694645 3.907,3" id="Stroke-3" stroke="#FFFFFF" stroke-width="2"></path>
                <path d="M7.2105,18 C7.5645,19.2232416 7.7895,20 7.7895,20" id="Stroke-5" stroke="#FFFFFF" stroke-width="2"></path>
                <path d="M7.1745,0 C7.1745,0 7.4305,1.17863609 7.8255,3" id="Stroke-7" stroke="#FFFFFF" stroke-width="2"></path>
                <path d="M11.035,16 C11.585,17.7731305 11.965,19 11.965,19" id="Stroke-9" stroke="#FFFFFF" stroke-width="2"></path>
            </g>
        </g>
    </g>
</svg>