<?xml version="1.0" standalone="no"?><!DOCTYPE svg PUBLIC "-//W3C//DTD SVG 1.1//EN" "http://www.w3.org/Graphics/SVG/1.1/DTD/svg11.dtd"><svg t="1604476421135" class="icon" viewBox="0 0 1024 1024" version="1.1" xmlns="http://www.w3.org/2000/svg" p-id="4187" data-spm-anchor-id="a313x.7781069.0.i19" xmlns:xlink="http://www.w3.org/1999/xlink" width="200" height="200"><defs><style type="text/css"></style></defs><path d="M793.134545 935.563636H315.112727c-19.083636 0-34.443636-15.36-34.443636-34.443636v-446.836364c0-19.083636 15.36-34.443636 34.443636-34.443636h478.021818c19.083636 0 34.443636 15.36 34.443637 34.443636v446.836364c0.465455 19.083636-15.36 34.443636-34.443637 34.443636z" fill="#EF6142" p-id="4188" data-spm-anchor-id="a313x.7781069.0.i14" class=""></path><path d="M813.149091 442.647273h-60.043636c-7.912727 0-14.429091-6.516364-14.429091-14.429091V283.461818c0-7.912727 6.516364-14.429091 14.429091-14.429091h60.043636c7.912727 0 14.429091 6.516364 14.429091 14.429091V428.218182c0.465455 7.912727-6.050909 14.429091-14.429091 14.429091z" fill="#EF6142" p-id="4189" data-spm-anchor-id="a313x.7781069.0.i13" class=""></path><path d="M176.872727 527.36l361.658182-343.04c8.843636-8.378182 22.341818-8.378182 31.185455 0l361.658181 343.04c14.894545 13.963636 5.12 39.098182-15.825454 39.098182H192.698182c-20.48 0-30.72-25.134545-15.825455-39.098182z" fill="#EF6142" p-id="4190" data-spm-anchor-id="a313x.7781069.0.i12" class=""></path><path d="M742.4 889.949091H259.258182c-30.254545 0-55.389091-24.669091-55.389091-55.389091v-334.661818c0-13.032727 10.24-23.272727 23.272727-23.272727s23.272727 10.24 23.272727 23.272727v334.661818c0 4.654545 4.189091 8.843636 8.843637 8.843636h483.141818c4.654545 0 8.843636-4.189091 8.843636-8.843636v-337.454545c0-13.032727 10.24-23.272727 23.272728-23.272728s23.272727 10.24 23.272727 23.272728v337.454545c0 30.72-24.669091 55.389091-55.389091 55.389091zM774.516364 379.345455c-13.032727 0-23.272727-10.24-23.272728-23.272728V180.130909h-42.821818v85.643636c0 13.032727-10.24 23.272727-23.272727 23.272728s-23.272727-10.24-23.272727-23.272728V170.356364c0-20.48 16.290909-36.770909 36.770909-36.770909h62.370909c20.48 0 36.770909 16.290909 36.770909 36.770909v185.716363c0 13.032727-10.705455 23.272727-23.272727 23.272728z" fill="#F4F3F6" p-id="4191" data-spm-anchor-id="a313x.7781069.0.i18" class="selected"></path><path d="M862.487273 520.843636h-83.781818c-13.032727 0-23.272727-10.24-23.272728-23.272727s10.24-23.272727 23.272728-23.272727H861.090909l-360.261818-341.643637-360.261818 341.643637h85.643636c13.032727 0 23.272727 10.24 23.272727 23.272727s-10.24 23.272727-23.272727 23.272727H139.170909c-19.083636 0-35.84-11.170909-42.821818-28.858181-6.981818-17.687273-2.792727-37.236364 11.170909-50.269091l361.658182-343.04c17.687273-16.756364 45.614545-16.756364 63.301818 0l361.658182 343.04c13.963636 13.032727 18.152727 33.047273 11.170909 50.269091-7.447273 17.687273-24.203636 28.858182-42.821818 28.858181zM580.887273 874.123636c-13.032727 0-23.272727-10.24-23.272728-23.272727v-142.429091c0-5.585455-4.654545-9.774545-9.774545-9.774545H450.56c-5.585455 0-9.774545 4.654545-9.774545 9.774545v142.429091c0 13.032727-10.24 23.272727-23.272728 23.272727s-23.272727-10.24-23.272727-23.272727v-142.429091c0-31.185455 25.134545-56.32 56.32-56.32h97.28c31.185455 0 56.32 25.134545 56.32 56.32v142.429091c0 12.567273-10.24 23.272727-23.272727 23.272727z" fill="#F4F3F6" p-id="4192" data-spm-anchor-id="a313x.7781069.0.i17" class="selected"></path></svg>