<?xml version="1.0" encoding="UTF-8"?>
<svg width="12px" height="14px" viewBox="0 0 12 14" version="1.1" xmlns="http://www.w3.org/2000/svg" xmlns:xlink="http://www.w3.org/1999/xlink">
    <title>装修 (1)</title>
    <g id="2.3装修" stroke="none" stroke-width="1" fill="none" fill-rule="evenodd">
        <g id="2.3装修-全部空间" transform="translate(-19.000000, -346.000000)" fill="#333333" fill-rule="nonzero">
            <g id="编组-14备份-2" transform="translate(15.000000, 343.000000)">
                <g id="装修-(1)" transform="translate(4.000000, 4.000000)">
                    <path d="M10.4043333,1.95 L10.1855,1.95 C10.1274618,1.95 10.0718007,1.92694441 10.0307615,1.8859052 C9.98972226,1.84486599 9.96666667,1.78920488 9.96666667,1.73116667 L9.96666667,0.866666671 C9.96666667,0.39 9.57666667,0 9.1,0 L0.866666671,0 C0.39,0 0,0.39 0,0.866666671 L0,3.9 C0,4.37666667 0.39,4.76666667 0.866666671,4.76666667 L9.1,4.76666667 C9.57666667,4.76666667 9.96666667,4.37666667 9.96666667,3.9 L9.96666667,3.0355 C9.96666667,2.91464169 10.0646417,2.81666667 10.1855,2.81666667 C10.3063583,2.81666667 10.4043333,2.91464169 10.4043333,3.0355 L10.4043333,5.4145 C10.4043333,5.53535831 10.3063583,5.63333333 10.1855,5.63333333 L5.39391667,5.63333333 C4.91526989,5.63333333 4.52725,6.02135321 4.52725,6.5 L4.52725,7.33113333 C4.0612,7.34348333 3.68311667,7.72655 3.68311667,8.19541667 L3.68311667,11.7015167 C3.68311667,12.1781833 4.07311667,12.5681833 4.54978333,12.5681833 L5.41645,12.5681833 C5.89311667,12.5681833 6.28311667,12.1781833 6.28311667,11.7015167 L6.28311667,8.19563333 C6.28311667,7.71896666 5.89311667,7.32896666 5.41645,7.32896667 L5.39391667,7.32896667 L5.39391667,6.5 L10.4043333,6.5 C10.8829801,6.5 11.271,6.11198011 11.271,5.63333333 L11.271,2.81666667 C11.271,2.33801989 10.8829801,1.95 10.4043333,1.95 Z M1.08095,1.29675 C1.08095,1.05841667 1.27595,0.863416671 1.51428333,0.863416671 L8.44761667,0.863416671 C8.68595,0.863416671 8.88095,1.05841667 8.88095,1.29675 C8.88095,1.53508333 8.68595,1.73008333 8.44761667,1.73008333 L1.51428333,1.73008333 C1.27595,1.73008333 1.08095,1.53508333 1.08095,1.29675 L1.08095,1.29675 Z" id="形状"></path>
                </g>
            </g>
        </g>
    </g>
</svg>
