<?xml version="1.0" encoding="UTF-8"?>
<svg width="320px" height="121px" viewBox="0 0 320 121" version="1.1" xmlns="http://www.w3.org/2000/svg" xmlns:xlink="http://www.w3.org/1999/xlink">
    <title>背景图</title>
    <defs>
        <linearGradient x1="50%" y1="0%" x2="50%" y2="100%" id="linearGradient-1">
            <stop stop-color="#25EF8B" offset="0%"></stop>
            <stop stop-color="#15DB79" offset="100%"></stop>
        </linearGradient>
        <path d="M4,0 L316,0 C318.209139,-4.05812251e-16 320,1.790861 320,4 L320,121 L320,121 L0,121 L0,4 C-2.705415e-16,1.790861 1.790861,4.05812251e-16 4,0 Z" id="path-2"></path>
        <linearGradient x1="50%" y1="0.0580658784%" x2="50%" y2="100%" id="linearGradient-4">
            <stop stop-color="#31E089" offset="0%"></stop>
            <stop stop-color="#2DE98C" offset="100%"></stop>
        </linearGradient>
        <linearGradient x1="50%" y1="0.0580658784%" x2="50%" y2="100%" id="linearGradient-5">
            <stop stop-color="#35EE92" offset="0%"></stop>
            <stop stop-color="#2DF190" offset="100%"></stop>
        </linearGradient>
        <linearGradient x1="50%" y1="20.1574892%" x2="50%" y2="100%" id="linearGradient-6">
            <stop stop-color="#75FFA9" offset="0%"></stop>
            <stop stop-color="#00DC6F" offset="100%"></stop>
        </linearGradient>
        <linearGradient x1="50%" y1="0%" x2="50%" y2="99.9868032%" id="linearGradient-7">
            <stop stop-color="#53FDA8" offset="0%"></stop>
            <stop stop-color="#4DF7A2" offset="100%"></stop>
        </linearGradient>
        <linearGradient x1="50%" y1="22.9571364%" x2="50%" y2="100%" id="linearGradient-8">
            <stop stop-color="#62FFB1" offset="0%"></stop>
            <stop stop-color="#2FDA84" offset="100%"></stop>
        </linearGradient>
        <linearGradient x1="50%" y1="0.0580658784%" x2="50%" y2="100%" id="linearGradient-9">
            <stop stop-color="#39DB8B" offset="0%"></stop>
            <stop stop-color="#AAFFD5" offset="100%"></stop>
        </linearGradient>
        <linearGradient x1="50%" y1="0.0580658784%" x2="50%" y2="100%" id="linearGradient-10">
            <stop stop-color="#59FDAC" offset="0%"></stop>
            <stop stop-color="#27D07C" offset="100%"></stop>
        </linearGradient>
    </defs>
    <g id="2.3装修" stroke="none" stroke-width="1" fill="none" fill-rule="evenodd">
        <g id="2.3装修-免费设计弹窗" transform="translate(-28.000000, -190.000000)">
            <g id="背景图" transform="translate(28.000000, 190.000000)">
                <mask id="mask-3" fill="white">
                    <use xlink:href="#path-2"></use>
                </mask>
                <use id="蒙版" fill="url(#linearGradient-1)" xlink:href="#path-2"></use>
                <path d="M290.576246,89.624049 C289.904457,90.7695336 288.843204,92.6403088 288.843204,92.6403088 C288.843204,92.6403088 286.902327,93.0008278 285.650663,93.2270438 C285.036765,93.323484 284.836751,93.8462914 285.148158,94.2138067 C286.025174,95.2259487 287.586463,96.8976702 287.586463,96.8976702 C287.586463,96.8976702 287.332124,98.7342866 287.189179,99.9875977 C287.142673,100.469113 287.408398,100.744441 287.77852,100.744441 C287.913098,100.743069 288.045754,100.713163 288.167985,100.65678 L291.178072,99.2262277 C291.53324,99.4016857 293.115518,100.173482 294.154822,100.672556 C294.275442,100.728957 294.40675,100.758848 294.539897,100.760217 C294.905629,100.760217 295.167925,100.483929 295.122242,100.002414 C294.98108,98.7473191 294.729348,96.9090565 294.729348,96.9090565 C294.729348,96.9090565 296.26951,95.2355515 297.13953,94.2208031 C297.44737,93.8524647 297.24914,93.3296573 296.642239,93.232394 C295.404704,93.0061779 293.484817,92.6456589 293.484817,92.6456589 C293.484817,92.6456589 292.432343,90.7731004 291.77194,89.6259696 C291.536944,89.2023461 291.357919,89.0663969 291.245703,89.0296317 C291.224028,89.0204404 291.200707,89.0159133 291.177248,89.0164621 L291.176974,89.0101516 C291.069971,89.0101516 290.855964,89.0925991 290.576246,89.624049 Z" id="路径" fill="url(#linearGradient-4)" fill-rule="nonzero" mask="url(#mask-3)"></path>
                <path d="M73.0277046,40 C72.9405667,40 72.766291,40.0631509 72.5385037,40.4702167 C71.9914343,41.3476043 71.1272054,42.7805305 71.1272054,42.7805305 C71.1272054,42.7805305 69.5466585,43.0566712 68.5273689,43.2299421 C68.0274433,43.3038108 67.8645626,43.7042568 68.1181561,43.9857563 C68.8323515,44.7610097 70.1037823,46.0414701 70.1037823,46.0414701 C70.1037823,46.0414701 69.8966623,47.4482324 69.780255,48.40821 C69.7423836,48.777028 69.958776,48.9879162 70.2601836,48.9879162 C70.3697762,48.9868655 70.4778048,48.9639588 70.5773431,48.9207724 L73.0285983,47.8250362 C73.317829,47.9594289 74.6063523,48.5505884 75.4527067,48.9328562 C75.5509331,48.9760562 75.657863,48.9989517 75.7662913,49 C76.0641241,49 76.2777236,48.7883762 76.2405224,48.4195582 C76.1255675,47.4582146 75.92057,46.0501915 75.92057,46.0501915 C75.92057,46.0501915 77.1747967,44.768365 77.8832946,43.9911152 C78.1339836,43.7089852 77.9725551,43.3085392 77.478327,43.2340401 C76.470544,43.0607692 74.9070896,42.7846285 74.9070896,42.7846285 C74.9070896,42.7846285 74.0500105,41.3503362 73.5122135,40.4716878 C73.3208453,40.147212 73.175057,40.0430813 73.0836739,40.0149208 C73.0660229,40.0078807 73.0470313,40.0044132 73.027928,40.0048335 L73.0277046,40 L73.0277046,40 Z" id="路径" fill="url(#linearGradient-5)" fill-rule="nonzero" mask="url(#mask-3)"></path>
                <circle id="椭圆形" fill="url(#linearGradient-6)" opacity="0.400000006" mask="url(#mask-3)" cx="160" cy="9" r="44"></circle>
                <circle id="椭圆形备份-7" fill="url(#linearGradient-7)" opacity="0.400000006" mask="url(#mask-3)" cx="19.5" cy="96.5" r="24.5"></circle>
                <circle id="椭圆形备份-8" fill="url(#linearGradient-8)" opacity="0.600000024" mask="url(#mask-3)" cx="292" cy="15" r="28"></circle>
                <path d="M161.630803,7.36572409 C161.193147,8.04813665 160.501764,9.16263485 160.501764,9.16263485 C160.501764,9.16263485 159.237327,9.37741092 158.421895,9.51217718 C158.021955,9.5696306 157.89165,9.88108859 158.094525,10.1000327 C158.665881,10.7030075 159.683026,11.6989212 159.683026,11.6989212 C159.683026,11.6989212 159.51733,12.7930696 159.424204,13.5397189 C159.393907,13.8265773 159.567021,13.9906015 159.808147,13.9906015 C159.895821,13.9897842 159.982244,13.971968 160.061874,13.9383786 L162.022879,13.0861393 C162.254263,13.1906669 163.285082,13.6504577 163.962165,13.9477771 C164.040746,13.9813771 164.12629,13.9991847 164.213033,14 C164.451299,14 164.622179,13.8354037 164.592418,13.5485453 C164.500454,12.8008336 164.336456,11.7057045 164.336456,11.7057045 C164.336456,11.7057045 165.339837,10.7087283 165.906636,10.1042007 C166.107187,9.88476626 165.978044,9.57330827 165.582662,9.5153645 C164.776435,9.38059823 163.525672,9.16582216 163.525672,9.16582216 C163.525672,9.16582216 162.840008,8.05026152 162.409771,7.36686826 C162.256676,7.1144982 162.140046,7.03350768 162.066939,7.0116051 C162.052818,7.00612945 162.037625,7.00343249 162.022342,7.0037594 C161.952453,7 161.813033,7.04911736 161.630803,7.36572409 Z" id="路径" fill="url(#linearGradient-9)" fill-rule="nonzero" mask="url(#mask-3)"></path>
                <path d="M219.022164,92 C218.952453,92 218.813033,92.0491174 218.630803,92.3657241 C218.193147,93.0481366 217.501764,94.1626348 217.501764,94.1626348 C217.501764,94.1626348 216.237327,94.3774109 215.421895,94.5121772 C215.021955,94.5696306 214.89165,94.8810886 215.094525,95.1000327 C215.665881,95.7030075 216.683026,96.6989212 216.683026,96.6989212 C216.683026,96.6989212 216.51733,97.7930696 216.424204,98.5397189 C216.393907,98.8265773 216.567021,98.9906015 216.808147,98.9906015 C216.895821,98.9897842 216.982244,98.971968 217.061874,98.9383786 L219.022879,98.0861393 C219.254263,98.1906669 220.285082,98.6504577 220.962165,98.9477771 C221.040746,98.9813771 221.12629,98.9991847 221.213033,99 C221.451299,99 221.622179,98.8354037 221.592418,98.5485453 C221.500454,97.8008336 221.336456,96.7057045 221.336456,96.7057045 C221.336456,96.7057045 222.339837,95.7087283 222.906636,95.1042007 C223.107187,94.8847663 222.978044,94.5733083 222.582662,94.5153645 C221.776435,94.3805982 220.525672,94.1658222 220.525672,94.1658222 C220.525672,94.1658222 219.840008,93.0502615 219.409771,92.3668683 C219.256676,92.1144982 219.140046,92.0335077 219.066939,92.0116051 C219.052818,92.0061295 219.037625,92.0034325 219.022342,92.0037594 L219.022164,92 L219.022164,92 Z" id="路径" fill="url(#linearGradient-10)" fill-rule="nonzero" mask="url(#mask-3)"></path>
            </g>
        </g>
    </g>
</svg>
