<?xml version="1.0" encoding="UTF-8"?>
<svg width="24px" height="24px" viewBox="0 0 24 24" version="1.1" xmlns="http://www.w3.org/2000/svg" xmlns:xlink="http://www.w3.org/1999/xlink">
    <title>缩小</title>
    <defs>
        <filter x="-25.0%" y="-25.0%" width="150.0%" height="150.0%" filterUnits="objectBoundingBox" id="filter-1">
            <feOffset dx="0" dy="1" in="SourceAlpha" result="shadowOffsetOuter1"></feOffset>
            <feGaussianBlur stdDeviation="0.5" in="shadowOffsetOuter1" result="shadowBlurOuter1"></feGaussianBlur>
            <feColorMatrix values="0 0 0 0 0   0 0 0 0 0   0 0 0 0 0  0 0 0 0.5 0" type="matrix" in="shadowBlurOuter1" result="shadowMatrixOuter1"></feColorMatrix>
            <feMerge>
                <feMergeNode in="shadowMatrixOuter1"></feMergeNode>
                <feMergeNode in="SourceGraphic"></feMergeNode>
            </feMerge>
        </filter>
    </defs>
    <g id="2.3装修" stroke="none" stroke-width="1" fill="none" fill-rule="evenodd">
        <g id="2.3装修-全屏展示" transform="translate(-336.000000, -79.000000)" fill="#FFFFFF" fill-rule="nonzero" stroke="#FFFFFF" stroke-width="0.5">
            <g id="缩小-2" transform="translate(336.000000, 79.000000)">
                <g id="缩小" filter="url(#filter-1)" transform="translate(3.000000, 2.000000)">
                    <g id="编组-9">
                        <path d="M6.49453979,13 L6.50546021,13 C6.77691107,13 7,13.2606092 7,13.5777141 L7,19.4222859 C7,19.7393908 6.77691107,20 6.50546021,20 L6.49453979,20 C6.22308893,20 6,19.7393908 6,19.4222859 L6,13.5777141 C6,13.2606092 6.22308893,13 6.49453979,13 Z" id="路径"></path>
                        <path d="M0,13.5039002 L0,13.4929797 C0,13.2230889 0.258786767,13 0.577714144,13 L6.42228586,13 C6.73939078,13 7,13.2230889 7,13.4945398 L7,13.5054602 C7,13.7769111 6.73939078,14 6.42228586,14 L0.577714144,14 C0.258786767,13.9984399 0,13.7769111 0,13.5039002 Z" id="路径"></path>
                        <path d="M6.82228169,13.1686251 L6.83141887,13.1777647 C7.05619371,13.4025982 7.05619371,13.771837 6.83141887,13.9966706 L0.996410398,19.8313749 C0.771635564,20.0562084 0.402493164,20.0562084 0.177718311,19.8313749 L0.168581126,19.8222353 C-0.0561937086,19.5974017 -0.0561937086,19.2281629 0.168581126,19.0033294 L6.00176217,13.1686251 C6.22836444,12.9437916 6.59750685,12.9437916 6.82228169,13.1686251 Z" id="路径"></path>
                        <path d="M13.5054602,13 L13.4945398,13 C13.2230889,13 13,13.2606092 13,13.5777141 L13,19.4222859 C13,19.7393908 13.2230889,20 13.4945398,20 L13.5054602,20 C13.7769111,20 14,19.7393908 14,19.4222859 L14,13.5777141 C14,13.2606092 13.7784711,13 13.5054602,13 Z" id="路径"></path>
                        <path d="M20,13.5054602 L20,13.4945398 C20,13.2230889 19.7393229,13 19.4221354,13 L13.5778646,13 C13.2606771,13 13,13.2230889 13,13.4945398 L13,13.5054602 C13,13.7769111 13.2606771,14 13.5778646,14 L19.4239583,14 C19.7411458,14 20,13.7784711 20,13.5054602 Z" id="路径"></path>
                        <path d="M13.1777647,13.1686251 L13.1686251,13.1777647 C12.9437916,13.4025982 12.9437916,13.771837 13.1686251,13.9966706 L19.0033294,19.8313749 C19.2281629,20.0562084 19.5974017,20.0562084 19.8222353,19.8313749 L19.8313749,19.8222353 C20.0562084,19.5974017 20.0562084,19.2281629 19.8313749,19.0033294 L13.9966706,13.1686251 C13.771837,12.9437916 13.4025982,12.9437916 13.1777647,13.1686251 Z" id="路径"></path>
                        <path d="M6.49453979,7 L6.50546021,7 C6.77691107,7 7,6.73932291 7,6.42213541 L7,0.57786459 C6.99843994,0.258854159 6.77691107,0 6.50390015,0 L6.49297971,0 C6.22308893,0 6,0.258854159 6,0.57786459 L6,6.42395832 C6,6.74114582 6.22308893,7 6.49453979,7 Z" id="路径"></path>
                        <path d="M0,6.49609985 L0,6.50702027 C0,6.77847113 0.258786767,7 0.577714144,7 L6.42228586,7 C6.73939078,7 7,6.77691107 7,6.50546021 L7,6.49453977 C7,6.22308891 6.73939078,6 6.42228586,6 L0.577714144,6 C0.258786767,6.00156006 0,6.22464899 0,6.49609985 Z" id="路径"></path>
                        <path d="M6.82228169,6.83137485 L6.83141887,6.82223528 C7.05619371,6.59740175 7.05619371,6.22816296 6.83141887,6.00332941 L0.996410398,0.168625147 C0.771635564,-0.0562083825 0.402493146,-0.0562083825 0.177718311,0.168625147 L0.168581126,0.177764719 C-0.0561937086,0.402598249 -0.0561937086,0.771837043 0.168581126,0.996670591 L6.00176217,6.83137485 C6.22836444,7.05620838 6.59750685,7.05620838 6.82228169,6.83137485 Z" id="路径"></path>
                        <path d="M13.5054602,7 L13.4945398,7 C13.2230889,7 13,6.73932291 13,6.42213541 L13,0.57786459 C13.0015601,0.258854159 13.224649,0 13.4960998,0 L13.5070203,0 C13.7784711,0 14,0.258854159 14,0.57786459 L14,6.42395832 C14,6.74114582 13.7784711,7 13.5054602,7 Z" id="路径"></path>
                        <path d="M20,6.49453979 L20,6.50546021 C20,6.77691107 19.7393229,7 19.4221354,7 L13.5778646,7 C13.2606771,7 13,6.77691107 13,6.50546021 L13,6.49453979 C13,6.22308893 13.2606771,6 13.5778646,6 L19.4239583,6 C19.7411458,6 20,6.22308893 20,6.49453979 Z" id="路径"></path>
                        <path d="M13.1777183,6.83137485 L13.1685811,6.82223528 C12.9438063,6.59740175 12.9438063,6.22816296 13.1685811,6.00332941 L19.0035896,0.168625147 C19.2283644,-0.0562083825 19.5975068,-0.0562083825 19.8222817,0.168625147 L19.8314189,0.177764719 C20.0561937,0.402598249 20.0561937,0.771837043 19.8314189,0.996670591 L13.9964104,6.83137485 C13.7716355,7.05620838 13.4024931,7.05620838 13.1777183,6.83137485 Z" id="路径"></path>
                    </g>
                </g>
            </g>
        </g>
    </g>
</svg>
