<?xml version="1.0" encoding="UTF-8"?>
<svg width="22px" height="23px" viewBox="0 0 22 23" version="1.1" xmlns="http://www.w3.org/2000/svg" xmlns:xlink="http://www.w3.org/1999/xlink">
    <title>形状</title>
    <defs>
        <filter x="-25.0%" y="-20.0%" width="150.0%" height="150.0%" filterUnits="objectBoundingBox" id="filter-1">
            <feOffset dx="0" dy="1" in="SourceAlpha" result="shadowOffsetOuter1"></feOffset>
            <feGaussianBlur stdDeviation="0.5" in="shadowOffsetOuter1" result="shadowBlurOuter1"></feGaussianBlur>
            <feColorMatrix values="0 0 0 0 0   0 0 0 0 0   0 0 0 0 0  0 0 0 0.3 0" type="matrix" in="shadowBlurOuter1" result="shadowMatrixOuter1"></feColorMatrix>
            <feMerge>
                <feMergeNode in="shadowMatrixOuter1"></feMergeNode>
                <feMergeNode in="SourceGraphic"></feMergeNode>
            </feMerge>
        </filter>
    </defs>
    <g id="2.3装修" stroke="none" stroke-width="1" fill="none" fill-rule="evenodd">
        <g id="2.3装修-报价" transform="translate(-339.000000, -342.000000)" fill="#FFFFFF" fill-rule="nonzero">
            <g id="全屏" filter="url(#filter-1)" transform="translate(340.000000, 343.000000)">
                <path d="M6.16799804,12.664647 L3.1689497,15.6642339 L1.66942553,17.1640273 L1.66942553,14.1644404 C1.68432997,13.9401022 1.60170947,13.7202447 1.44275712,13.5612638 C1.28380477,13.4022829 1.06398676,13.3196476 0.839688833,13.3345547 C0.614990539,13.3198107 0.394786558,13.4023195 0.235081876,13.5610964 C0.0753771941,13.7198733 -0.00843781797,13.9396173 0.00495370473,14.1644404 L0.00495370473,19.1637519 C-0.00828411479,19.3889758 0.0754011855,19.6091122 0.234904833,19.7686445 C0.39440848,19.9281768 0.614505381,20.0118771 0.839688833,19.9986369 L5.83810272,19.9986369 C6.27277464,19.9649192 6.60829237,19.6023071 6.60829237,19.1662516 C6.60829237,18.730196 6.27277464,18.367584 5.83810272,18.3338662 L2.83905438,18.3338662 L4.33857855,16.8340728 L7.33762689,13.8344859 C7.54656096,13.6255143 7.628159,13.3209315 7.55168383,13.035471 C7.47520865,12.7500105 7.25227865,12.5270405 6.9668694,12.4505516 C6.68146015,12.3740627 6.37693211,12.4556754 6.16799804,12.664647 L6.16799804,12.664647 Z M2.83905438,1.66616167 L5.83810272,1.66616167 C6.06240065,1.68106878 6.28221866,1.59843345 6.44117102,1.43945256 C6.60012337,1.28047166 6.68274387,1.06061418 6.66783944,0.836275972 C6.68258076,0.611537327 6.60008679,0.391293803 6.44133842,0.231560442 C6.28259005,0.0718270808 6.0628855,-0.0120029824 5.83810272,0.00139094507 L0.669742769,0.00139094507 C0.50479511,0.00139094507 0.339847451,0.166368224 0.169901363,0.336344831 C0.0421411763,0.469454167 -0.0185026144,0.653256227 0.00495370473,0.836275972 L0.00495370473,5.83558746 C-0.00843781797,6.0604106 0.0753771941,6.28015461 0.235081876,6.43893149 C0.394786558,6.59770836 0.614990539,6.68021714 0.839688833,6.66547318 C1.06398676,6.68038029 1.28380477,6.59774495 1.44275712,6.43876405 C1.60170947,6.27978315 1.68432997,6.05992566 1.66942553,5.83558746 L1.66942553,2.83600056 L6.16799804,7.33538091 C6.49098213,7.658423 7.0146428,7.658423 7.33762689,7.33538091 C7.66061098,7.01233882 7.66061098,6.48858411 7.33762689,6.16554202 L2.83905438,1.66616167 Z M19.1638742,0.00139094507 L14.1654603,0.00139094507 C13.9406775,-0.0120029824 13.720973,0.0718270808 13.5622246,0.231560442 C13.4034762,0.391293803 13.3209823,0.611537327 13.3357236,0.836275972 C13.3208191,1.06061418 13.4034396,1.28047166 13.562392,1.43945256 C13.7213443,1.59843345 13.9411624,1.68106878 14.1654603,1.66616167 L17.1645086,1.66616167 L15.6649845,3.16595512 L12.6659361,6.16554202 C12.3429521,6.48858411 12.3429521,7.0123388 12.6659361,7.33538088 C12.9889202,7.65842296 13.5125809,7.65842297 13.835565,7.33538091 L16.8346133,4.33579401 L18.3341375,2.83600056 L18.3341375,5.83558746 C18.3678492,6.27033744 18.7303961,6.60591542 19.1663734,6.60591542 C19.6023506,6.60591542 19.9648976,6.27033744 19.9986093,5.83558746 L19.9986093,0.836275972 C20.0118471,0.611052083 19.9281618,0.390915657 19.7686582,0.231383367 C19.6091545,0.0718510766 19.3890576,-0.0118492516 19.1638742,0.00139094507 Z M19.1638742,13.3345547 C18.9395763,13.3196476 18.7197582,13.4022829 18.5608059,13.5612638 C18.4018535,13.7202447 18.319233,13.9401022 18.3341375,14.1644404 L18.3341375,17.1640273 L16.8346133,15.6642339 L13.835565,12.664647 C13.5125809,12.3416049 12.9889202,12.3416049 12.6659361,12.664647 C12.3429521,12.9876891 12.3429521,13.5114438 12.6659361,13.8344859 L15.6649845,16.8340728 L17.1645086,18.3338662 L14.1654603,18.3338662 C13.7307884,18.367584 13.3952706,18.730196 13.3952706,19.1662516 C13.3952706,19.6023071 13.7307884,19.9649192 14.1654603,19.9986369 L19.1638742,19.9986369 C19.3890576,20.0118771 19.6091545,19.9281768 19.7686582,19.7686445 C19.9281618,19.6091122 20.0118471,19.3889758 19.9986093,19.1637519 L19.9986093,14.1644404 C20.0120008,13.9396173 19.9281858,13.7198733 19.7684811,13.5610964 C19.6087765,13.4023195 19.3885725,13.3198107 19.1638742,13.3345547 Z" id="形状"></path>
            </g>
        </g>
    </g>
</svg>
