<?xml version="1.0" encoding="UTF-8"?>
<svg width="20px" height="20px" viewBox="0 0 20 20" version="1.1" xmlns="http://www.w3.org/2000/svg" xmlns:xlink="http://www.w3.org/1999/xlink">
    <title>商品</title>
    <g id="2.3装修" stroke="none" stroke-width="1" fill="none" fill-rule="evenodd">
        <g id="2.3-装修首页" transform="translate(-312.000000, -607.000000)" fill="#FFFFFF" fill-rule="nonzero">
            <g id="编组-5" transform="translate(10.000000, 598.000000)">
                <g id="商品-2" transform="translate(302.000000, 9.000000)">
                    <g id="商品" transform="translate(1.000000, 0.000000)">
                        <path d="M14.64875,19.8 L3.58875,19.8 C2.28875,19.8 1.74875,18.87 1.64875,18.38 C1.58875,18.06 0.30875,10.88 0.04875,8.91 C-0.05125,8.19 0.08875,7.62 0.44875,7.2 C0.78875,6.81 1.33875,6.59 1.97875,6.59 C2.12875,6.59 2.24875,6.6 2.30875,6.61 L15.93875,6.61 C15.99875,6.6 16.11875,6.59 16.26875,6.59 C16.90875,6.59 17.44875,6.81 17.79875,7.2 C18.15875,7.61 18.29875,8.19 18.19875,8.91 C17.93875,10.88 16.64875,18.06 16.59875,18.36 C16.47875,18.87 15.93875,19.8 14.64875,19.8 L14.64875,19.8 Z M1.96875,7.72 C1.78875,7.72 1.45875,7.75 1.29875,7.94 C1.12875,8.14 1.12875,8.49 1.16875,8.75 C1.42875,10.7 2.74875,18.08 2.75875,18.15 C2.78875,18.25 2.93875,18.66 3.58875,18.66 L14.63875,18.66 C15.35875,18.66 15.46875,18.15 15.47875,18.13 C15.48875,18.07 16.80875,10.69 17.06875,8.74 C17.10875,8.48 17.10875,8.12 16.93875,7.93 C16.76875,7.74 16.43875,7.71 16.26875,7.71 C16.15875,7.71 16.08875,7.72 16.06875,7.72 C16.03875,7.72 16.00875,7.73 15.97875,7.73 L2.25875,7.73 C2.22875,7.73 2.19875,7.73 2.16875,7.72 C2.15875,7.73 2.07875,7.72 1.96875,7.72 Z M3.55875,10.73 C3.55875,11.04 3.68875,11.35 3.90875,11.57 C4.12875,11.79 4.43875,11.92 4.74875,11.92 C5.05875,11.92 5.36875,11.79 5.58875,11.57 C5.80875,11.35 5.93875,11.04 5.93875,10.73 C5.93875,10.42 5.80875,10.11 5.58875,9.89 C5.36875,9.67 5.05875,9.54 4.74875,9.54 C4.43875,9.54 4.12875,9.67 3.90875,9.89 C3.68875,10.12 3.55875,10.42 3.55875,10.73 Z M12.30875,10.73 C12.30875,11.04 12.43875,11.35 12.65875,11.57 C12.87875,11.79 13.18875,11.92 13.49875,11.92 C13.80875,11.92 14.11875,11.79 14.33875,11.57 C14.55875,11.35 14.68875,11.04 14.68875,10.73 C14.68875,10.42 14.55875,10.11 14.33875,9.89 C14.11875,9.67 13.80875,9.54 13.49875,9.54 C13.18875,9.54 12.87875,9.67 12.65875,9.89 C12.43875,10.12 12.30875,10.42 12.30875,10.73 Z M14.15875,5.82 C13.84875,5.82 13.58875,5.57 13.58875,5.25 C13.58875,2.98 11.57875,1.13 9.10875,1.13 C6.63875,1.13 4.63875,2.98 4.63875,5.25 C4.63875,5.56 4.38875,5.82 4.06875,5.82 C3.75875,5.82 3.49875,5.57 3.49875,5.25 C3.50875,2.36 6.02875,0 9.11875,0 C12.20875,0 14.72875,2.36 14.72875,5.25 C14.72875,5.57 14.47875,5.82 14.15875,5.82 L14.15875,5.82 Z" id="形状"></path>
                    </g>
                </g>
            </g>
        </g>
    </g>
</svg>
