<?xml version="1.0" encoding="UTF-8"?>
<svg width="20px" height="20px" viewBox="0 0 20 20" version="1.1" xmlns="http://www.w3.org/2000/svg" xmlns:xlink="http://www.w3.org/1999/xlink">
    <title>户型图</title>
    <g id="2.3装修" stroke="none" stroke-width="1" fill="none" fill-rule="evenodd">
        <g id="2.3-装修首页" transform="translate(-195.000000, -609.000000)" fill="#FFFFFF" fill-rule="nonzero">
            <g id="编组-5" transform="translate(10.000000, 598.000000)">
                <g id="编组-4" transform="translate(181.000000, 11.000000)">
                    <g id="户型图" transform="translate(5.000000, 1.000000)">
                        <path d="M17.4990291,5.96504855 L12.0699029,5.96504855 L12.0699029,0.489320385 C12.0699029,0.221359219 11.8601942,0.0116504824 11.592233,0.0116504824 L0.489320385,0.0116504824 C0.221359219,-2.51534904e-16 0.0116504824,0.209708736 0.0116504824,0.477669902 L0.0116504824,17.5106796 C0.0116504824,17.7786408 0.221359219,17.9883495 0.489320385,17.9883495 L17.4990291,17.9883495 C17.7669903,17.9883495 17.976699,17.7786408 17.976699,17.5106796 L17.976699,6.44271845 C17.9883495,6.17475728 17.7669903,5.96504855 17.4990291,5.96504855 Z M17.0213592,17.0330097 L12.0815534,17.0330097 L12.0815534,12.0466019 C12.0815534,11.7786408 11.8601942,11.568932 11.6038835,11.568932 C11.3359223,11.568932 11.1262136,11.7786408 11.1262136,12.0466019 L11.1262136,17.0330097 L0.97864077,17.0330097 L0.97864077,9.48349515 L7.25825243,9.48349515 C7.5262136,9.48349515 7.73592233,9.27378642 7.73592233,9.00582525 C7.73592233,8.73786408 7.5262136,8.52815535 7.25825243,8.52815535 L0.97864077,8.52815535 L0.97864077,0.966990287 L11.1262136,0.966990287 L11.1262136,8.56310679 L10.2990291,8.56310679 C10.031068,8.56310679 9.82135923,8.77281553 9.82135923,9.0407767 C9.82135923,9.30873786 10.031068,9.5184466 10.2990291,9.5184466 L12.8504854,9.5184466 C13.1184466,9.5184466 13.3281553,9.30873786 13.3281553,9.0407767 C13.3281553,8.77281553 13.1184466,8.56310679 12.8504854,8.56310679 L12.0815534,8.56310679 L12.0815534,6.93203883 L17.0213592,6.93203883 L17.0213592,17.0330097 Z" id="形状"></path>
                    </g>
                </g>
            </g>
        </g>
    </g>
</svg>
