<?xml version="1.0" encoding="UTF-8"?>
<svg width="20px" height="20px" viewBox="0 0 20 20" version="1.1" xmlns="http://www.w3.org/2000/svg" xmlns:xlink="http://www.w3.org/1999/xlink">
    <title>编组</title>
    <g id="构家方案" stroke="none" stroke-width="1" fill="none" fill-rule="evenodd">
        <g id="关闭icon状态" transform="translate(-333.000000, -359.000000)" fill="#36D988" stroke="#36D988" stroke-width="2">
            <g id="编组-2" transform="translate(323.000000, 229.000000)">
                <g id="编组" transform="translate(11.000000, 131.000000)">
                    <path d="M2.80022669,17 L1.20034004,17 C0.537262681,17 0,16.4829091 0,15.8447273 L0,8.63736364 C0,8.28554545 0.296684613,8 0.66222726,8 L2.69991499,8 C2.86568433,8 3,8.12927273 3,8.28881818 L3,16.8077273 C3,16.9140909 2.91073959,17 2.80022669,17 Z" id="Stroke-1"></path>
                    <path d="M6.0073601,9.3804102 C6.00809611,8.76166996 6.10819351,8.14514215 6.31574841,7.56180064 C6.72570613,6.4098671 7.37413119,4.25718207 7.14744002,2.7084878 C6.8810043,0.89430309 6.7087779,-0.498784276 8.20803083,0.170841626 C9.64030683,0.810968589 10.4668464,2.66497687 10.0686648,5.34495542 C9.99211974,5.86192432 10.3799972,6.33095744 10.9018284,6.33095744 L15.7793686,6.33095744 C17.1954523,6.33095744 18.249419,7.64144778 17.9483908,9.02716041 L16.381425,16.249238 C16.1591499,17.2713762 15.2560652,18 14.2124027,18 L8.21907099,18 C6.99361387,18 6,17.0044108 6,15.7765175 L6.0073601,9.3804102 Z" id="Stroke-3"></path>
                </g>
            </g>
        </g>
    </g>
</svg>