<?xml version="1.0" encoding="UTF-8"?>
<svg width="21px" height="20px" viewBox="0 0 21 20" version="1.1" xmlns="http://www.w3.org/2000/svg" xmlns:xlink="http://www.w3.org/1999/xlink">
    <title>编组备份</title>
    <g id="构家方案" stroke="none" stroke-width="1" fill="none" fill-rule="evenodd">
        <g id="关闭icon状态" transform="translate(-333.000000, -281.000000)" stroke="#FFFFFF" stroke-width="2">
            <g id="音乐关闭" transform="translate(327.000000, 275.000000)">
                <g id="编组备份" transform="translate(7.000000, 7.000000)">
                    <g id="编组">
                        <path d="M6.460416,14.465016 C6.460416,12.874536 5.170896,11.585016 3.580416,11.585016 C1.989936,11.585016 0.700416,12.874536 0.700416,14.465016 C0.700416,16.055496 1.989936,17.345016 3.580416,17.345016 C5.170896,17.345016 6.460416,16.055496 6.460416,14.465016 Z" id="Stroke-2"></path>
                        <path d="M16.859952,12.991608 C16.859952,11.401128 15.570432,10.111608 13.979952,10.111608 C12.389472,10.111608 11.099952,11.401128 11.099952,12.991608 C11.099952,14.582088 12.389472,15.871608 13.979952,15.871608 C15.570432,15.871608 16.859952,14.582088 16.859952,12.991608 Z" id="Stroke-4"></path>
                        <path d="M6.460416,14.465016 L6.460416,4.602456 C6.460416,3.594456 7.092576,2.694456 8.040816,2.353176 L13.660416,0.791496 C15.218496,0.230616 16.860096,1.384776 16.860096,3.040056 L16.860096,12.991896" id="Stroke-6"></path>
                        <line x1="6.460416" y1="6.906816" x2="16.860096" y2="4.323456" id="Stroke-8"></line>
                    </g>
                    <line x1="3.5" y1="1.5" x2="18.5" y2="17.5" id="直线-4" stroke-linecap="round" stroke-linejoin="round"></line>
                </g>
            </g>
        </g>
    </g>
</svg>