<?xml version="1.0" encoding="UTF-8"?>
<svg width="22px" height="22px" viewBox="0 0 22 22" version="1.1" xmlns="http://www.w3.org/2000/svg" xmlns:xlink="http://www.w3.org/1999/xlink">
    <title>分享</title>
    <g id="构家方案" stroke="none" stroke-width="1" fill="none" fill-rule="evenodd">
        <g id="初始界面" transform="translate(-332.000000, -397.000000)" stroke-width="2">
            <g id="编组-2" transform="translate(323.000000, 229.000000)">
                <g id="分享" transform="translate(10.000000, 169.000000)">
                    <line x1="9" y1="5" x2="5" y2="9" id="Stroke-1" stroke="#36D988"></line>
                    <line x1="6" y1="13" x2="13" y2="16" id="Stroke-2" stroke="#36D988"></line>
                    <g id="编组" stroke="#FFFFFF">
                        <path d="M13.0169286,5.10278571 C11.9040714,5.92064286 10.3397857,5.68064286 9.52192857,4.56778571 C8.70478571,3.45564286 8.94407143,1.89064286 10.0569286,1.0735 C11.1697857,0.256357143 12.7340714,0.495642857 13.5519286,1.60778571 C14.3690714,2.72135714 14.1297857,4.28564286 13.0169286,5.10278571 Z" id="Stroke-3"></path>
                        <path d="M5.11692857,13.5319286 C3.68621429,14.5826429 1.67478571,14.2755 0.624071429,12.8447857 C-0.426642857,11.4140714 -0.1195,9.40192857 1.31121429,8.35121429 C2.74192857,7.3005 4.75407143,7.60835714 5.80478571,9.03907143 C6.8555,10.4697857 6.54764286,12.4812143 5.11692857,13.5319286 Z" id="Stroke-5"></path>
                        <path d="M18.2743571,18.5922143 C16.6843571,19.7600714 14.4493571,19.4179286 13.2815,17.8286429 C12.1136429,16.2386429 12.4557857,14.0036429 14.0457857,12.8357857 C15.6350714,11.6679286 17.8707857,12.0100714 19.0379286,13.6000714 C20.2057857,15.1893571 19.8643571,17.4243571 18.2743571,18.5922143 Z" id="Stroke-7"></path>
                    </g>
                </g>
            </g>
        </g>
    </g>
</svg>