<?xml version="1.0" encoding="UTF-8"?>
<svg width="26px" height="26px" viewBox="0 0 26 26" version="1.1" xmlns="http://www.w3.org/2000/svg" xmlns:xlink="http://www.w3.org/1999/xlink">
    <title>弹幕_开</title>
    <g id="解决方案" stroke="none" stroke-width="1" fill="none" fill-rule="evenodd">
        <g id="icon" transform="translate(-54.000000, -302.000000)" fill="#999999" fill-rule="nonzero">
            <g id="弹幕_开" transform="translate(54.000000, 302.000000)">
                <path d="M21.1677632,0.0148026316 C22.3415539,0.0148026316 23.3107408,0.932042544 23.3751316,2.10406579 L23.3782895,2.22532895 L23.3782895,10.1345921 C23.3780393,10.6399286 22.9812013,11.0561121 22.4764485,11.0803969 C21.9716958,11.1046817 21.5367362,10.7285179 21.4879737,10.2255395 L21.4835526,10.1345921 L21.4835526,2.22532895 C21.4836035,2.07280749 21.3746355,1.94204596 21.2246053,1.91459211 L21.1677632,1.90953947 L2.22039474,1.90953947 C2.06787328,1.90948863 1.93711175,2.01845657 1.90965789,2.16848684 L1.90460526,2.22532895 L1.90460526,19.0228026 C1.90462302,19.1063937 1.93778277,19.1865676 1.99681579,19.24575 C2.10607895,19.3556447 2.30439474,19.3518553 2.51660526,19.1806974 L2.95555263,18.8289079 C5.14144737,17.0958553 6.10902632,16.6354342 8.2665,16.4548026 L8.47871053,16.4383816 L8.54818421,16.4358553 L10.4593421,16.4358553 C10.9646786,16.4361055 11.3808621,16.8329435 11.4051469,17.3376962 C11.4294317,17.8424489 11.0532679,18.2774085 10.5502895,18.3261711 L10.4593421,18.3305921 L8.59176316,18.3299605 L8.44523684,18.3413289 C6.7065,18.4834342 6.03197368,18.8023816 4.10376316,20.3364868 L3.70713158,20.6541711 C2.7825,21.4013289 1.49407895,21.4253289 0.654078947,20.5828026 C0.274167583,20.2014676 0.0464533223,19.6946124 0.0136578947,19.1573289 L0.00986842105,19.0228026 L0.00986842105,2.22532895 C0.00986842105,1.05153823 0.927108333,0.0823513282 2.09913158,0.0179605263 L2.22039474,0.0148026316 L21.1677632,0.0148026316 Z" id="路径"></path>
                <g id="编组-5" transform="translate(11.399342, 10.141118)">
                    <path d="M7.14832536,-4.65082518e-13 C3.20041428,-4.65082518e-13 4.36014861e-14,3.20041428 4.36014861e-14,7.14832536 C4.36014861e-14,11.0962364 3.20041428,14.2966507 7.14832536,14.2966507 C11.0962364,14.2966507 14.2966506,11.0962364 14.2966506,7.14832536 C14.2966506,3.20041434 11.0962364,-4.65082518e-13 7.14832536,-4.65082518e-13 Z M7.14832536,2.23923445 C8.90217465,2.23923445 10.5227983,3.17490183 11.3997229,4.69377986 C12.2766476,6.2126579 12.2766476,8.08399282 11.3997229,9.60287086 C10.5227983,11.1217489 8.90217465,12.0574163 7.14832536,12.0574163 C4.43710931,12.0574163 2.23923445,9.8595414 2.23923445,7.14832536 C2.23923445,4.43710931 4.43710931,2.23923445 7.14832536,2.23923445 L7.14832536,2.23923445 Z" id="形状"></path>
                    <path d="M10.3413184,5.55290045 C10.7300695,5.86993136 10.8043046,6.43504496 10.510622,6.84172249 L10.44,6.92784689 L8.09913876,9.47799043 C7.6179923,9.99923685 6.8197377,10.0700437 6.25435407,9.64162679 L6.15186603,9.55722488 L4.78334928,8.29550239 C4.40955004,7.95649957 4.3670891,7.3839918 4.68678829,6.99355458 C5.00648747,6.60311736 5.57612152,6.53180737 5.98220096,6.83138756 L6.06832536,6.90200957 L7.055311,7.81320574 L9.04478469,5.64631579 C9.38407225,5.27682963 9.95256719,5.23586953 10.3413184,5.55290045 Z" id="路径"></path>
                </g>
                <path d="M5.69407895,5.38322368 L12.0098684,5.38322368 C12.6414474,5.38322368 12.9572368,5.69901316 12.9572368,6.33059211 L12.9572368,6.33059211 C12.9572368,6.96217105 12.6414474,7.27796053 12.0098684,7.27796053 L5.69407895,7.27796053 C5.0625,7.27796053 4.74671053,6.96217105 4.74671053,6.33059211 L4.74671053,6.33059211 C4.74671053,5.69901316 5.0625,5.38322368 5.69407895,5.38322368 Z" id="路径"></path>
                <path d="M5.49671053,9.80427632 L11.9967105,9.80427632 C12.4967105,9.80427632 12.7467105,10.1200658 12.7467105,10.7516447 L12.7467105,10.7516447 C12.7467105,11.3832237 12.4967105,11.6990132 11.9967105,11.6990132 L5.49671053,11.6990132 C4.99671053,11.6990132 4.74671053,11.3832237 4.74671053,10.7516447 L4.74671053,10.7516447 C4.74671053,10.1200658 4.99671053,9.80427632 5.49671053,9.80427632 Z" id="路径"></path>
                <path d="M15.1677632,5.38322368 L17.6940789,5.38322368 C18.3256579,5.38322368 18.6414474,5.69901316 18.6414474,6.33059211 L18.6414474,6.33059211 C18.6414474,6.96217105 18.3256579,7.27796053 17.6940789,7.27796053 L15.1677632,7.27796053 C14.5361842,7.27796053 14.2203947,6.96217105 14.2203947,6.33059211 L14.2203947,6.33059211 C14.2203947,5.69901316 14.5361842,5.38322368 15.1677632,5.38322368 Z" id="路径"></path>
            </g>
        </g>
    </g>
</svg>