<?xml version="1.0" encoding="UTF-8"?>
<svg width="26px" height="26px" viewBox="0 0 26 26" version="1.1" xmlns="http://www.w3.org/2000/svg" xmlns:xlink="http://www.w3.org/1999/xlink">
    <title>弹幕_关</title>
    <g id="解决方案" stroke="none" stroke-width="1" fill="none" fill-rule="evenodd">
        <g id="icon" transform="translate(-111.000000, -302.000000)" fill="#999999" fill-rule="nonzero">
            <g id="弹幕_关" transform="translate(111.000000, 302.000000)">
                <path d="M20.9836957,0.014673913 C22.1472795,0.014673913 23.1080387,0.923937826 23.1718696,2.08576957 L23.175,2.20597826 L23.175,10.0464652 C23.174752,10.5474075 22.7813648,10.959972 22.2810012,10.9840456 C21.7806376,11.0081192 21.3494602,10.6352264 21.3011217,10.1366217 L21.2967391,10.0464652 L21.2967391,2.20597826 C21.2967895,2.05478308 21.1887691,1.9251586 21.0400435,1.89794348 L20.9836957,1.89293478 L2.20108696,1.89293478 C2.04989177,1.89288438 1.9202673,2.00090477 1.89305217,2.14963043 L1.88804348,2.20597826 L1.88804348,18.857387 C1.88806108,18.9402511 1.92093248,19.0197278 1.97945217,19.0783957 C2.08776522,19.1873348 2.28435652,19.1835783 2.49472174,19.0139087 L2.92985217,18.6651783 C5.09673913,16.9471957 6.05590435,16.4907783 8.19461739,16.3117174 L8.40498261,16.2954391 L8.47385217,16.2929348 L10.3683913,16.2929348 C10.8693336,16.2931828 11.2818981,16.68657 11.3059717,17.1869336 C11.3300453,17.6872972 10.9571525,18.1184745 10.4585478,18.166813 L10.3683913,18.1711957 L8.50891304,18.1711957 L8.37117391,18.1818391 C6.64818261,18.3227087 5.97952174,18.6388826 4.06807826,20.1596478 L3.67489565,20.4745696 C2.75830435,21.2152304 1.48108696,21.2390217 0.648391304,20.4038217 C0.271783517,20.0258026 0.0460493803,19.5233549 0.0135391304,18.9907435 L0.0097826087,18.857387 L0.0097826087,2.20597826 C0.0097826087,1.04239442 0.919046522,0.0816352297 2.08087826,0.0178043478 L2.20108696,0.014673913 L20.9836957,0.014673913 Z" id="路径"></path>
                <g id="编组-5" transform="translate(11.282826, 11.035543)">
                    <path d="M7.08616568,5.68434189e-14 C3.17258444,5.68434189e-14 0,3.17258444 0,7.08616568 C0,10.9997469 3.17258444,14.1723314 7.08616568,14.1723314 C10.9997469,14.1723314 14.1723312,10.9997469 14.1723312,7.08616568 C14.1723312,3.1725845 10.9997469,5.68434189e-14 7.08616568,5.68434189e-14 Z M11.3005944,4.65296417 C12.1698936,6.1586345 12.1698936,8.01369686 11.3005944,9.51936719 C10.4312952,11.0250375 8.82476403,11.9525686 7.08616568,11.9525686 C4.39852555,11.9525686 2.21976274,9.77380581 2.21976274,7.08616568 C2.21976274,4.39852555 4.39852555,2.21976274 7.08616568,2.21976274 C8.82476403,2.21976274 10.4312952,3.14729384 11.3005944,4.65296417 Z" id="形状"></path>
                    <path d="M11.4075489,2.69557913 C11.8139465,3.06225027 11.8603341,3.68361191 11.5128854,4.10656126 L11.4420237,4.18510672 L4.19022925,11.4369012 C3.80512319,11.8258743 3.18227963,11.843424 2.77588197,11.4767529 C2.36948432,11.1100817 2.32309672,10.4887201 2.67054545,10.0657708 L2.74140711,9.9872253 L9.99320158,2.73543083 C10.3783076,2.34645769 11.0011512,2.32890798 11.4075489,2.69557913 Z" id="路径"></path>
                </g>
                <path d="M5.64456522,5.33641304 L11.9054348,5.33641304 C12.5315217,5.33641304 12.8445652,5.64945652 12.8445652,6.27554348 C12.8445652,6.90163043 12.5315217,7.21467391 11.9054348,7.21467391 L5.64456522,7.21467391 C5.01847826,7.21467391 4.70543478,6.90163043 4.70543478,6.27554348 C4.70543478,5.64945652 5.01847826,5.33641304 5.64456522,5.33641304 Z" id="路径"></path>
                <path d="M5.45543478,9.71902174 L11.9554348,9.71902174 C12.4554348,9.71902174 12.7054348,10.0320652 12.7054348,10.6581522 C12.7054348,11.2842391 12.4554348,11.5972826 11.9554348,11.5972826 L5.45543478,11.5972826 C4.95543478,11.5972826 4.70543478,11.2842391 4.70543478,10.6581522 C4.70543478,10.0320652 4.95543478,9.71902174 5.45543478,9.71902174 Z" id="路径"></path>
                <path d="M15.0358696,5.33641304 L17.5402174,5.33641304 C18.1663043,5.33641304 18.4793478,5.64945652 18.4793478,6.27554348 C18.4793478,6.90163043 18.1663043,7.21467391 17.5402174,7.21467391 L15.0358696,7.21467391 C14.4097826,7.21467391 14.0967391,6.90163043 14.0967391,6.27554348 C14.0967391,5.64945652 14.4097826,5.33641304 15.0358696,5.33641304 Z" id="路径"></path>
            </g>
        </g>
    </g>
</svg>