<?xml version="1.0" encoding="UTF-8"?>
<svg width="23px" height="23px" viewBox="0 0 23 23" version="1.1" xmlns="http://www.w3.org/2000/svg" xmlns:xlink="http://www.w3.org/1999/xlink">
    <title>咨询</title>
    <g id="构家方案" stroke="none" stroke-width="1" fill="none" fill-rule="evenodd">
        <g id="初始界面" transform="translate(-302.000000, -627.000000)" stroke="#FFFFFF" stroke-width="2">
            <g id="咨询" transform="translate(313.500000, 638.937500) rotate(-345.000000) translate(-313.500000, -638.937500) translate(305.000000, 630.437500)">
                <path d="M4.4915299,0.962730302 C3.75130026,0.152873103 2.49995967,0.0567655686 1.68245331,0.787317249 C1.3340302,1.09916268 1.00933239,1.52190141 0.86359121,2.07569588 C0.473140409,3.55292918 1.27573372,7.41739299 5.32462718,11.4068638 C9.37352064,15.3970067 13.0095937,16.2922181 13.5003687,16.2928932 C14.8608457,16.2942344 15.7305477,15.8439403 16.3480836,14.9735959 C16.5453426,14.6960266 16.78124,13.8075359 16.7752551,13.3424561 C16.7473467,11.450549 13.6854261,9.68566522 12.8807992,10.2737358 C11.4071186,11.3517532 10.6214719,11.0110083 8.96273386,9.8288184 C7.30399583,8.64662852 6.66341248,7.59213396 6.17602685,6.50806785 C5.68796334,5.42467382 6.35362773,4.73444698 6.44649537,3.97432375 C6.50614757,3.49109776 6.60782747,3.46085413 5.26633071,1.835091 C4.9477337,1.47418369 4.69827902,1.1885494 4.4915299,0.962730302 Z" id="Stroke-2"></path>
            </g>
        </g>
    </g>
</svg>