<?xml version="1.0" encoding="UTF-8"?>
<svg width="19px" height="20px" viewBox="0 0 19 20" version="1.1" xmlns="http://www.w3.org/2000/svg" xmlns:xlink="http://www.w3.org/1999/xlink">
    <!-- Generator: Sketch 63.1 (92452) - https://sketch.com -->
    <title>退出</title>
    <desc>Created with Sketch.</desc>
    <defs>
        <linearGradient x1="50%" y1="0%" x2="50%" y2="100%" id="linearGradient-1">
            <stop stop-color="#06A6EE" offset="0%"></stop>
            <stop stop-color="#32D58F" offset="100%"></stop>
        </linearGradient>
    </defs>
    <g id="多户型" stroke="none" stroke-width="1" fill="none" fill-rule="evenodd">
        <g id="碧桂园多户型展示" transform="translate(-297.000000, -630.000000)" fill="url(#linearGradient-1)" fill-rule="nonzero">
            <g id="编组-15" transform="translate(297.000000, 630.000000)">
                <g id="退出">
                    <path d="M13.2192477,3.82653061 C12.7984522,3.56671708 12.6629533,3.00967448 12.9160409,2.58003201 C13.0370215,2.37358851 13.2338877,2.22477419 13.4630199,2.1665617 C13.6921521,2.10834921 13.9346311,2.14554512 14.136731,2.26990796 C16.9520953,4.00130274 18.6709105,7.1070913 18.6666588,10.4551821 C18.6666588,15.7262905 14.4876057,20 9.33358093,20 C4.17857335,20 9.748897e-06,15.7262905 9.748897e-06,10.4551821 C-0.0047289911,7.10227826 1.71837374,3.99244541 4.53976787,2.26190476 C4.74227178,2.13839136 4.98470886,2.10188627 5.21367248,2.16043122 C5.44263609,2.21897616 5.63934209,2.36776813 5.76045794,2.57402961 C6.01232163,3.00484324 5.87641591,3.56174756 5.45577685,3.82252901 C3.1693953,5.22174096 1.77225032,7.73971418 1.77552406,10.4551821 C1.77552406,14.7228892 5.15797565,18.1822729 9.33112382,18.1822729 C13.5047634,18.1822729 16.887215,14.7228892 16.887215,10.4551821 C16.890921,7.7438671 15.4991341,5.22866752 13.2192477,3.82653061 L13.2192477,3.82653061 Z M9.33112382,0 C9.82254495,0 10.2191252,0.407663065 10.2191252,0.910364146 L10.2191252,8.18327331 C10.2197743,8.42356351 10.1265527,8.65426135 9.95999245,8.8245477 C9.79343217,8.99483406 9.5671973,9.0907391 9.33112382,9.09113645 C8.8397027,9.09113645 8.44360081,8.68397359 8.44360081,8.18327331 L8.44360081,0.910364146 C8.44217913,0.669687774 8.53500164,0.438344725 8.70155494,0.267501863 C8.86810825,0.0966590013 9.09466748,0.000394687414 9.33112382,0 Z" id="形状"></path>
                </g>
            </g>
        </g>
    </g>
</svg>
