<?xml version="1.0" encoding="UTF-8"?>
<svg width="35px" height="35px" viewBox="0 0 35 35" version="1.1" xmlns="http://www.w3.org/2000/svg" xmlns:xlink="http://www.w3.org/1999/xlink">
    <!-- Generator: Sketch 63.1 (92452) - https://sketch.com -->
    <title>编组 14</title>
    <desc>Created with Sketch.</desc>
    <defs>
        <linearGradient x1="50%" y1="0%" x2="50%" y2="100%" id="linearGradient-1">
            <stop stop-color="#06A5F0" offset="0%"></stop>
            <stop stop-color="#32D490" offset="100%"></stop>
        </linearGradient>
        <circle id="path-2" cx="17.5" cy="17.5" r="17.5"></circle>
    </defs>
    <g id="多户型" stroke="none" stroke-width="1" fill="none" fill-rule="evenodd">
        <g id="碧桂园多户型展示" transform="translate(-102.000000, -623.000000)">
            <g id="编组-20" transform="translate(102.000000, 623.000000)">
                <g id="编组-14">
                    <mask id="mask-3" fill="white">
                        <use xlink:href="#path-2"></use>
                    </mask>
                    <use id="蒙版" fill-opacity="0.5" fill="url(#linearGradient-1)" xlink:href="#path-2"></use>
                    <g id="经纪人-(1)" mask="url(#mask-3)" fill-rule="nonzero">
                        <g transform="translate(1.000000, 1.000000)">
                            <path d="M11.1444444,19.7245747 L12.4288889,20.177908 L12.4288889,10.0534636 C12.4288889,9.10901912 11.6733333,8.35346355 10.7288889,8.35346355 L9.59555557,8.35346355 C8.65111114,8.35346355 7.89555557,9.10901912 7.89555557,10.0534636 L9.02888889,16.9667969 C9.02888889,17.9112413 10.1244445,18.8934636 11.0311111,18.8934636 L11.1444444,19.7245747 L11.1444444,19.7245747 Z M23.8,8.35346355 L22.6666667,8.35346355 C21.7222222,8.35346355 20.9666667,9.10901912 20.9666667,10.0534636 L20.9666667,11.5267969 C22.78,12.8867969 23.9888889,15.0401302 23.9888889,17.4956858 L22.8933333,20.1401302 C23.7622222,20.0645746 24.9333333,16.9667969 24.9333333,16.097908 L25.4622222,10.0156858 C25.5,9.10901909 24.7444444,8.35346355 23.8,8.35346355 Z" id="形状" fill="#333333"></path>
                            <path d="M20.74,24.697908 L20.8155556,24.697908 C20.7777778,24.697908 20.7022222,24.597908 20.6644444,24.597908 C20.7022222,24.697908 20.7022222,24.697908 20.74,24.697908 L20.74,24.697908 Z M19.2288889,24.2201302 C19.2666667,24.2201302 19.3044445,24.2201302 19.38,24.3201302 C19.3422222,24.3201302 19.2666667,24.3201302 19.2288889,24.2201302 Z M13.5244444,24.6356858 C13.4866666,24.6356858 13.4111111,24.597908 12.9955556,24.7490191 C12.7688889,24.8245747 12.6177778,24.9001302 12.4288889,24.9756858 C9.89777779,26.1090191 7.85995571,28.4948915 7.10440014,31.1771137 C9.86217793,33.1037804 13.3733333,33.9290191 16.9622222,33.9290191 C20.5511111,33.9290191 23.9133333,32.7956858 26.6333333,30.9067969 C25.84,27.9601302 23.7622222,25.7690191 20.8911111,24.7112413 C18.7,24.2956857 14.1288889,24.8623524 13.5244444,24.6356858 Z M13.2977778,24.597908 C13.26,24.597908 13.2222222,24.697908 13.1466667,24.697908 L13.1844444,24.697908 C13.26,24.697908 13.26,24.697908 13.2977778,24.597908 L13.2977778,24.597908 Z" id="形状" fill="#DDFFF9"></path>
                            <path d="M17,27.2801302 L16.8866667,27.2801302 L17,27.3801302 L17.1133333,27.2801302 L17,27.2801302 Z M20.2488889,24.4845747 C20.2866667,24.4845747 20.3244445,24.5845747 20.4,24.5845747 C20.3244444,24.5845747 20.2866667,24.4845747 20.2488889,24.4845747 Z M14.5822222,24.3201302 C14.62,24.3201302 14.6577778,24.3201302 14.7333333,24.2201302 C14.6955555,24.3201302 14.62,24.3201302 14.5822222,24.3201302 Z M18.3222222,24.0739175 L18.4733333,24.0739175 C18.3977778,24.1876953 18.36,24.1876953 18.3222222,24.0739175 Z M13.6,24.5845747 C13.6377778,24.5845747 13.6755556,24.4845747 13.7133333,24.4845747 C13.6755555,24.4845747 13.6377778,24.5845747 13.6,24.5845747 Z M15.5266667,24.1401953 L15.6777778,24.1401953 L15.5266667,24.1401953 Z" id="形状" fill="#C6D270"></path>
                            <path d="M17.0755556,27.2801302 L18.4733333,26.297908 L20.6266667,24.6734636 C20.6644445,24.6356858 20.7022222,24.6356858 20.74,24.597908 C20.7022222,24.597908 20.7022222,24.5601302 20.6644444,24.5601302 C20.5511111,24.5223524 20.4755555,24.4845746 20.3622222,24.4467969 C20.3244444,24.4467969 20.2866666,24.4090191 20.2111111,24.4090191 C20.06,24.3712413 19.9466667,24.3334635 19.7955556,24.2956858 C19.6444445,24.257908 19.5311111,24.2201302 19.38,24.1823524 C19.3422222,24.1823524 19.3044444,24.1823524 19.2288889,24.1445747 C19.0777778,24.1067969 18.9266667,24.0690191 18.7755556,24.0690191 C18.6622222,24.0690191 18.5488889,24.0312413 18.4733333,24.0312413 L18.3222222,24.0312413 C18.1711111,24.0312413 18.02,23.9934636 17.8688889,23.9934636 L16.1688889,23.9934636 C16.0177778,23.9934636 15.8666667,24.0312413 15.7155556,24.0312413 L15.5644444,24.0312413 C15.4511111,24.0312413 15.3377778,24.0690191 15.2244444,24.0690191 C15.0733333,24.1067969 14.9222222,24.1067969 14.7711111,24.1445747 C14.7333333,24.1445747 14.6955555,24.1445747 14.6577778,24.1823524 C14.3555556,24.257908 14.0911111,24.3334636 13.7888889,24.4090191 C13.7511111,24.4090191 13.7133333,24.4467969 13.6755556,24.4467969 C13.5622222,24.4845747 13.4866667,24.5223524 13.3733333,24.5601302 C13.3355555,24.5601302 13.3355555,24.597908 13.2977778,24.597908 C13.3355556,24.597908 13.3733334,24.6356858 13.4111111,24.6356858 L15.5644444,26.2601302 L16.9622222,27.2423524 L17.0755556,27.2423524 C17,27.2801302 17.0377778,27.2801302 17.0755556,27.2801302 L17.0755556,27.2801302 Z" id="路径" fill="#FEFEFE"></path>
                            <path d="M22.3266667,10.1290191 C22.3266667,10.1290191 22.3266667,10.0912413 22.3266667,10.1290191 C21.6466667,9.52457466 20.8911111,9.03346352 20.06,8.69346355 C19.1155556,8.27790798 18.1711111,8.08901909 17.2644444,8.08901909 L16.9622222,8.08901909 C17,8.27790798 17.0377778,8.50457466 17.0377778,8.7312413 C17.0377778,8.50457463 17.0377778,8.27790798 16.9622222,8.08901909 L17.2644444,8.08901909 L16.66,8.08901909 C15.5644444,8.08901909 14.3177778,8.42901909 13.1844444,9.03346355 C13.1844444,9.03346355 13.1466666,9.03346355 13.1466667,9.0712413 C13.1466667,9.0712413 13.1844445,9.0712413 13.1844444,9.03346355 C13.1844444,9.03346355 13.1466666,9.03346355 13.1466667,9.0712413 C13.1466667,9.0712413 13.1088889,9.0712413 13.1088889,9.10901909 C13.1088889,9.10901909 13.1466667,9.10901909 13.1466667,9.0712413 C13.1466667,9.0712413 13.1088889,9.0712413 13.1088889,9.10901909 L12.8822222,9.22235245 C12.8066666,9.26013023 12.7311111,9.29790802 12.6555556,9.37346355 C12.6177778,9.41124134 12.58,9.41124134 12.5422222,9.44901909 L12.5044444,9.44901909 L12.5422222,9.44901909 C12.5044444,9.48679688 12.4666666,9.48679688 12.4288889,9.52457466 C12.4288889,9.52457466 12.4666667,9.52457466 12.4666667,9.48679688 C12.4666667,9.48679688 12.4288889,9.48679688 12.4288889,9.52457466 C10.4266667,10.9223524 8.84,13.2645747 8.99111111,16.3245747 C9.14222221,20.6312413 12.6555555,24.0312413 16.9622222,24.0312413 C21.2688889,24.0312413 24.82,20.5934635 24.9333333,16.2867969 C25.1222222,13.6801302 23.9511111,11.5267969 22.3266667,10.1290191 L22.3266667,10.1290191 Z" id="路径" fill="#FAE7E8"></path>
                            <path d="M24.2533333,12.3956858 L9.70888889,12.3956858 C8.08444446,12.3956858 6.76222221,11.0734636 6.76222221,9.44901909 L6.76222221,6.57790798 C6.76222221,6.04901909 7.17777779,5.63346355 7.70666668,5.63346355 L20.6266667,5.63346355 C22.6288889,5.63346355 24.2533333,7.25790798 24.2533333,9.2601302 L24.2533333,12.3956858 Z" id="路径" fill="#333333"></path>
                            <path d="M13.2977778,10.6956858 C11.6355556,10.6956858 10.2377778,9.37346355 10.2377778,7.74901909 L10.2377778,5.63346355 L7.70666668,5.63346355 C7.17777779,5.63346355 6.76222221,6.04901912 6.76222221,6.57790798 L6.76222221,9.44901909 C6.76222221,11.0734635 8.12222221,12.3956858 9.82222221,12.3956858 L24.2533333,12.3956858 L24.2533333,10.6956858 L13.2977778,10.6956858 Z" id="路径" fill="#333333"></path>
                            <path d="M17.5666667,26.297908 L18.0955556,25.4667969 L17.7555556,24.5601302 L17.5666667,24.1067969 L16.1688889,24.1067969 L15.98,24.6356858 L15.6777778,25.5045747 L16.32,26.3356858 L15.9044444,33.8912413 C16.2444444,33.8912413 16.5466666,33.9290191 16.8866667,33.9290191 C17.4155556,33.9290191 17.9444445,33.8912413 18.4733333,33.8534636 L17.5666667,26.297908 L17.5666667,26.297908 Z" id="路径" fill-opacity="0.5" fill="#2DCE9C"></path>
                        </g>
                    </g>
                </g>
            </g>
        </g>
    </g>
</svg>
