<?xml version="1.0" encoding="UTF-8"?>
<svg width="14px" height="20px" viewBox="0 0 14 20" version="1.1" xmlns="http://www.w3.org/2000/svg" xmlns:xlink="http://www.w3.org/1999/xlink">
    <!-- Generator: Sketch 63.1 (92452) - https://sketch.com -->
    <title>电话</title>
    <desc>Created with Sketch.</desc>
    <defs>
        <linearGradient x1="50%" y1="0.405753788%" x2="50%" y2="100%" id="linearGradient-1">
            <stop stop-color="#009EFD" offset="0.0580658784%"></stop>
            <stop stop-color="#36D988" offset="100%"></stop>
        </linearGradient>
        <path d="M9.38620557,2.16008841 C7.88222609,2.1681427 7.18751617,2.71872764 6.64338415,3.23432716 C6.44687704,3.4233642 6.4302176,3.73106473 6.57944581,3.95242929 C6.66905472,4.07157603 6.78901316,4.13929168 6.92437131,4.13857255 C7.02964987,4.13800299 7.1351084,4.10325919 7.21075727,4.01740648 C7.66420062,3.58774022 8.17762318,3.19193178 9.38080677,3.18548835 C10.5990301,3.17896438 11.153343,3.58614427 11.5272684,3.97720067 C11.7067561,4.16422415 11.9925122,4.16269383 12.1590297,3.95672787 C12.3255472,3.75076191 12.3272568,3.42605193 12.1477691,3.23902845 C11.6691951,2.72890585 10.9353044,2.15179249 9.38620557,2.16008841 L9.38620557,2.16008841 Z" id="path-2"></path>
    </defs>
    <g id="多户型" stroke="none" stroke-width="1" fill="none" fill-rule="evenodd">
        <g id="碧桂园多户型-留电" transform="translate(-290.000000, -580.000000)">
            <g id="编组-7" transform="translate(280.000000, 575.000000)">
                <g id="编组-4" transform="translate(10.000000, 5.000000)">
                    <g id="电话">
                        <path d="M9.67206288,19.44 C6.61281224,19.44 3.65495343,17.3051953 1.62885856,13.500222 C-0.762566464,9.00884929 -0.497931556,4.41058775 2.2723657,2.31798141 C3.18317111,1.62986924 4.40896925,1.30598378 5.39244323,1.49165665 C6.63514344,1.72635806 7.53175112,4.04974518 7.85956894,5.0377444 C8.68352854,7.52026789 8.18165032,8.07359287 8.01672728,8.25536574 C7.77813179,8.51798617 7.22554742,8.81038278 5.77637586,9.43415531 C6.19038391,10.5773909 7.07617426,12.0288295 7.53107504,12.4613165 C7.5439206,12.4548578 7.55709396,12.4483784 7.5706156,12.4415689 C8.89948553,11.7757424 9.72512509,11.4348331 10.2804138,11.5355934 C11.9026418,11.8317455 13.6803278,15.51553 13.68,16.941794 C13.68,18.0805931 12.4589344,18.8868195 11.6893892,19.1274844 C11.0178349,19.3375477 10.3425928,19.44 9.67206288,19.44 L9.67206288,19.44 Z M11.5213225,18.7290909 L11.538207,18.7290909 L11.5213225,18.7290909 Z M4.84577987,2.88 C4.30592776,2.88 3.64614902,3.1045752 3.15340083,3.47884668 C1.36614569,4.83566798 0.525302453,8.33972176 2.90218673,12.8266944 C4.55748611,15.952294 7.61518996,18.8876207 11.2351233,17.7498182 C11.7432421,17.5901777 12.24,17.1288277 12.24,16.9010334 C12.240324,15.714699 10.670889,13.0680415 10.0254885,12.8975546 C9.85811366,12.9082164 9.39944796,13.0553293 8.17877629,13.6700662 C7.78390134,13.8687865 7.70038609,13.9108802 7.51998985,13.9108802 L7.51766099,13.9108802 C6.15701417,13.9090144 4.53010673,10.2153644 4.29926516,9.20929709 C4.17466054,8.63345536 4.6129537,8.4450689 5.07696568,8.24567204 C6.07515947,7.81663562 6.70219229,7.52169229 6.94605526,7.36695215 C7.09771526,6.3441334 5.71835648,3.14193264 5.14543445,2.90601897 C5.0515709,2.88844745 4.95100425,2.88 4.84577987,2.88 Z" id="形状" fill="url(#linearGradient-1)" fill-rule="nonzero"></path>
                        <mask id="mask-3" fill="white">
                            <use xlink:href="#path-2"></use>
                        </mask>
                        <use id="路径" fill="#32D592" fill-rule="nonzero" transform="translate(9.381588, 3.149286) rotate(71.000000) translate(-9.381588, -3.149286) " xlink:href="#path-2"></use>
                    </g>
                </g>
            </g>
        </g>
    </g>
</svg>
