<?xml version="1.0" encoding="utf-8"?>
<!-- Generator: Adobe Illustrator 21.0.0, SVG Export Plug-In . SVG Version: 6.00 Build 0)  -->
<svg version="1.1" xmlns="http://www.w3.org/2000/svg" xmlns:xlink="http://www.w3.org/1999/xlink" x="0px" y="0px"
	 viewBox="0 0 1024 1024" style="enable-background:new 0 0 1024 1024;" xml:space="preserve">
<g id="图层_1">
</g>
<g id="图层_2">
	<path fill="#fff" d="M512.1,129.3c51.9,0,102.2,10.2,149.6,30.2c45.8,19.4,86.9,47.1,122.2,82.4c35.3,35.3,63,76.4,82.4,122.2
		c20,47.3,30.2,97.7,30.2,149.6s-10.2,102.2-30.2,149.6c-19.4,45.8-47.1,86.9-82.4,122.2c-35.3,35.3-76.4,63-122.2,82.4
		c-47.3,20-97.6,30.2-149.6,30.2s-102.2-10.2-149.6-30.2c-45.8-19.4-86.9-47.1-122.2-82.4c-35.3-35.3-63-76.4-82.4-122.2
		c-20-47.3-30.2-97.6-30.2-149.6S138,411.4,158,364c19.4-45.8,47.1-86.9,82.4-122.2s76.4-63,122.2-82.4
		C409.9,139.5,460.2,129.3,512.1,129.3 M512.1,65.3C264.5,65.3,63.8,266,63.8,513.6s200.7,448.3,448.3,448.3
		s448.3-200.7,448.3-448.3S759.7,65.3,512.1,65.3L512.1,65.3z"/>
	<path fill="#fff" d="M391.3,528.1c0,0,33.5-126.5,135.6-120.4c102.1,6.1,31.8,116.1-6.3,222.8c-38.1,106.7,47.4,31.7,68.8-3.3
		c0,0-44.1,180.7-173.8,118.9c-60.8-29,15.3-176.8,48.8-242.4C498,438.2,429.4,476.3,391.3,528.1z M632.9,326.5
		c0,32.2-26.1,58.3-58.3,58.3c-32.2,0-58.3-26.1-58.3-58.3c0-32.2,26.1-58.3,58.3-58.3C606.8,268.2,632.9,294.3,632.9,326.5z
		 M391.3,528.1c0,0,33.5-126.5,135.6-120.4c102.1,6.1,31.8,116.1-6.3,222.8c-38.1,106.7,47.4,31.7,68.8-3.3
		c0,0-44.1,180.7-173.8,118.9c-60.8-29,15.3-176.8,48.8-242.4C498,438.2,429.4,476.3,391.3,528.1z M632.9,326.5
		c0,32.2-26.1,58.3-58.3,58.3c-32.2,0-58.3-26.1-58.3-58.3c0-32.2,26.1-58.3,58.3-58.3C606.8,268.2,632.9,294.3,632.9,326.5z"/>
</g>
</svg>
