<?xml version="1.0" encoding="UTF-8"?>
<svg width="20px" height="20px" viewBox="0 0 20 20" version="1.1" xmlns="http://www.w3.org/2000/svg" xmlns:xlink="http://www.w3.org/1999/xlink">
    <title>错误</title>
    <g id="1.1" stroke="none" stroke-width="1" fill="none" fill-rule="evenodd">
        <g id="编辑模式1.1-修改名称状态" transform="translate(-904.000000, -110.000000)" fill="#FF4040" fill-rule="nonzero">
            <g id="编组-8" transform="translate(889.000000, 100.000000)">
                <g id="错误" transform="translate(15.000000, 10.000000)">
                    <path d="M10.0019212,19.9615754 C4.49951969,19.9615754 0.0192123047,15.481268 0.0192123047,9.98270893 C0.0192123047,4.48414984 4.49951969,0 10.0019212,0 C15.5043228,0 19.9807877,4.4803074 19.9807877,9.98270893 C19.9807877,15.4851104 15.5004803,19.9615754 10.0019212,19.9615754 Z M10.9971182,9.98270893 L14.1709894,6.80883766 C14.4322767,6.54755043 14.4322767,6.12872238 14.1709894,5.87896254 L14.1018252,5.80979826 C13.8405379,5.54851104 13.4217099,5.54851104 13.17195,5.80979826 L10.0019212,8.97214217 L6.82804996,5.7982709 C6.56676273,5.53698367 6.14793469,5.53698367 5.89817482,5.7982709 L5.82901057,5.86743516 C5.56772334,6.12872238 5.56772334,6.54755043 5.82901057,6.79731027 L8.99135447,9.97118156 L5.81748318,13.1450528 C5.55619596,13.4063401 5.55619596,13.8251681 5.81748318,14.0749279 L5.88664746,14.1440922 C6.14793469,14.4053795 6.56676273,14.4053795 6.81652258,14.1440922 L9.99039385,10.9817483 L13.1642651,14.1556196 C13.4255524,14.4169068 13.8443804,14.4169068 14.0941403,14.1556196 L14.1633045,14.0864553 C14.4245917,13.8251681 14.4245917,13.4063401 14.1633045,13.1565802 L10.9971182,9.98270893 L10.9971182,9.98270893 Z" id="形状"></path>
                </g>
            </g>
        </g>
    </g>
</svg>
