<?xml version="1.0" encoding="UTF-8"?>
<svg width="13px" height="8px" viewBox="0 0 13 8" version="1.1" xmlns="http://www.w3.org/2000/svg" xmlns:xlink="http://www.w3.org/1999/xlink">
    <!-- Generator: Sketch 63 (92445) - https://sketch.com -->
    <title>下拉</title>
    <desc>Created with Sketch.</desc>
    <g id="展示端2.3" stroke="none" stroke-width="1" fill="none" fill-rule="evenodd">
        <g id="展示端2.3-多户型首页备份-2" transform="translate(-247.000000, -40.000000)" fill="#FFFFFF" fill-rule="nonzero">
            <g id="编组-13" transform="translate(114.000000, 36.000000)">
                <g id="编组-20" transform="translate(132.000000, 3.000000)">
                    <g id="下拉" transform="translate(7.500000, 5.000000) scale(-1, 1) rotate(-90.000000) translate(-7.500000, -5.000000) translate(3.000000, -2.000000)">
                        <g id="向下" transform="translate(4.500000, 7.343750) rotate(-270.000000) translate(-4.500000, -7.343750) translate(-2.000000, 3.343750)">
                            <path d="M6.03297916,7.93465909 C5.88035595,7.93465909 5.72773274,7.84375 5.57510953,7.66193182 L0.233297127,1.29829545 C-0.0719492961,1.02556818 -0.0719492961,0.480113636 0.233297127,0.207386364 C0.53854355,-0.0653409091 0.920101578,-0.0653409091 1.1490364,0.207386364 L6.03297916,6.02556818 L10.9169219,0.207386364 C11.1458567,-0.0653409091 11.6037264,-0.0653409091 11.8326612,0.207386364 C12.061596,0.480113636 12.061596,1.02556818 11.8326612,1.29829545 L6.4908488,7.66193182 C6.33822558,7.84375 6.18560237,7.93465909 6.03297916,7.93465909 Z" id="路径"></path>
                        </g>
                    </g>
                </g>
            </g>
        </g>
    </g>
</svg>
