<?xml version="1.0" encoding="utf-8"?>
<!-- Generator: Adobe Illustrator 21.0.0, SVG Export Plug-In . SVG Version: 6.00 Build 0)  -->
<svg version="1.1" id="图层_1" xmlns="http://www.w3.org/2000/svg" xmlns:xlink="http://www.w3.org/1999/xlink" x="0px" y="0px"
	 viewBox="0 0 196 60" style="enable-background:new 0 0 196 60;" xml:space="preserve">
<style type="text/css">
	.st0{fill:#FFFFFF;}
</style>
<g>
	<path class="st0" d="M0,24.1h6.4L11,37.9l4.7-13.8h5.7l-7.2,20.3H7.5L0,24.1z"/>
	<path class="st0" d="M29.5,24.1v3.8h0.2c1.2-2.8,3.5-4.1,6.9-3.9v5.3h-2.7c-1.5,0.3-2.5,0.8-3,1.4c-0.3,0.7-0.6,1.7-0.8,3
		c0,0.3,0,0.5,0,0.6v10.1h-6V28.2c0-0.2,0-0.7,0-1.4c-0.1-1.2-0.2-2-0.2-2.7H29.5z"/>
	<path class="st0" d="M37.8,15.3h23.6v4.9h-8.6v24.2h-6.3V20.2h-8.6V15.3z"/>
	<path class="st0" d="M74.1,44.7c-6.7-0.2-10.2-3.7-10.5-10.4c0.3-6.8,3.8-10.4,10.5-10.7c6.7,0.3,10.2,3.9,10.5,10.7
		C84.3,41,80.8,44.5,74.1,44.7z M74.1,40.9c2.9,0,4.4-2.2,4.4-6.6c0.1-4.5-1.4-6.8-4.4-6.8c-2.8,0-4.2,2.3-4.2,6.8
		C69.9,38.7,71.3,40.9,74.1,40.9z"/>
	<path class="st0" d="M102.1,41.9c-1.4,1.9-3.4,2.8-6.1,2.8c-3.7-0.3-5.9-1.7-6.8-4.2c-0.2-0.8-0.3-1.9-0.3-3.1V24.1h6v12.3
		c0.1,3,1.3,4.6,3.6,4.6c2.3-0.2,3.5-1.7,3.6-4.6V24.1h6.1v16.6c0,0.4,0.1,1,0.2,1.7c0,0.8,0,1.5,0,1.9h-6L102.1,41.9z"/>
	<path class="st0" d="M118.6,24.1v3.8h0.2c1.2-2.8,3.5-4.1,6.9-3.9v5.3H123c-1.5,0.3-2.5,0.8-3,1.4c-0.3,0.7-0.6,1.7-0.8,3
		c0,0.3,0,0.5,0,0.6v10.1h-6V28.2c0-0.2,0-0.7,0-1.4c-0.1-1.2-0.2-2-0.2-2.7H118.6z"/>
	<path class="st0" d="M139.1,29.6c-0.1-1.3-1-1.9-2.7-2c-1.6,0-2.4,0.6-2.4,1.9c0,0.8,1.3,1.6,3.9,2.2c4.2,0.3,6.7,2.6,7.5,6.8
		c-0.3,3.8-3.4,5.9-9.1,6.3c-5.8-0.1-8.7-2.1-9-6.1h5.7c0.2,1.5,1.3,2.3,3.3,2.4c1.9,0,2.8-0.7,2.8-2.2c-0.1-1.2-1.5-2-4.1-2.5
		c-5.1-0.9-7.6-3.1-7.4-6.6c0.2-3.6,3.1-5.5,8.6-6c5.1,0,7.9,2,8.2,6H139.1z"/>
	<path class="st0" d="M153.6,36.7c0.1,2.5,1.3,3.9,3.5,4.2c2.2-0.2,3.4-1.6,3.6-4.2c-0.1-3.1-2.4-4.7-6.8-4.6v-3.9
		c4.6-0.1,6.9-1.6,6.8-4.4c-0.1-2.4-1.3-3.7-3.5-3.8c-1.9,0.3-3,1.6-3.3,3.8h-6.1c0.3-5,3.5-7.6,9.4-7.9c5.9,0.5,9,2.9,9.4,7.1
		c-0.1,3.8-1.9,6.1-5.3,6.9c3.7,1,5.5,3.6,5.5,7.5c-0.5,4.4-3.8,6.8-9.9,7.2c-6.3,0-9.4-2.7-9.4-8H153.6z"/>
	<path class="st0" d="M171.5,15.3h9.9c9.6,0.1,14.5,5,14.6,14.6c-0.1,9.5-5,14.3-14.6,14.4h-9.9V15.3z M177.6,39.5h3.3
		c5.8,0.2,8.6-3,8.5-9.6c0.1-6.7-2.7-9.9-8.5-9.7h-3.3V39.5z"/>
</g>
</svg>
