<?xml version="1.0" encoding="UTF-8"?>
<svg width="18px" height="18px" viewBox="0 0 18 18" version="1.1" xmlns="http://www.w3.org/2000/svg" xmlns:xlink="http://www.w3.org/1999/xlink">
    <title>错误</title>
    <g id="1.2" stroke="none" stroke-width="1" fill="none" fill-rule="evenodd">
        <g id="展示端编辑模式1.2-设置弹窗备份" transform="translate(-1127.000000, -341.000000)" fill="#666666" fill-rule="nonzero">
            <g id="编组-2" transform="translate(760.000000, 316.000000)">
                <g id="错误" transform="translate(367.000000, 25.000000)">
                    <path d="M0.259615385,0.236899038 C0.567908654,-0.0713942308 1.07415865,-0.0713942308 1.38245192,0.236899038 L17.2741587,16.1286058 C17.5824519,16.436899 17.5824519,16.943149 17.2741587,17.2514423 C16.9658654,17.5597356 16.4596154,17.5597356 16.1513221,17.2514423 L0.259615385,1.35973558 C-0.0519230769,1.05144231 -0.0519230769,0.545192308 0.259615385,0.236899038 Z" id="路径"></path>
                    <path d="M17.2611779,0.236899038 C16.9528846,-0.0713942308 16.4466346,-0.0713942308 16.1383413,0.236899038 L0.246634615,16.1286058 C-0.0616586538,16.436899 -0.0616586538,16.943149 0.246634615,17.2514423 C0.554927885,17.5597356 1.06117788,17.5597356 1.36947115,17.2514423 L17.2611779,1.35973558 C17.5694712,1.05144231 17.5694712,0.545192308 17.2611779,0.236899038 Z" id="路径"></path>
                </g>
            </g>
        </g>
    </g>
</svg>
