<?xml version="1.0" encoding="UTF-8"?>
<svg width="19px" height="19px" viewBox="0 0 19 19" version="1.1" xmlns="http://www.w3.org/2000/svg" xmlns:xlink="http://www.w3.org/1999/xlink">
    <!-- Generator: Sketch 63 (92445) - https://sketch.com -->
    <title>分享</title>
    <desc>Created with Sketch.</desc>
    <g id="页面-1" stroke="none" stroke-width="1" fill="none" fill-rule="evenodd">
        <g id="展示端优化-锚点模式" transform="translate(-338.000000, -34.000000)" fill="#FFFFFF" fill-rule="nonzero">
            <g id="分享-2" transform="translate(338.000000, 34.000000)">
                <g id="分享">
                    <path d="M17.3828353,7.97709311 C16.9474186,7.99292645 16.607002,8.36105145 16.6228353,8.80042642 C16.7059603,10.8943848 15.906377,12.9448014 14.4259603,14.4252181 C13.0049186,15.8462598 11.1167936,16.6300098 9.10596029,16.6300098 C7.09512695,16.6300098 5.20700195,15.8462598 3.78991861,14.4252181 C0.856793612,11.4920931 0.856793612,6.72230145 3.78991861,3.78917642 C5.21096027,2.36813477 7.09908527,1.58438477 9.10596029,1.58438477 C9.54137695,1.58438477 9.89762695,1.22813477 9.89762695,0.792718107 C9.89762695,0.357301448 9.54137695,0.00105142456 9.10596029,0.00105142456 C6.67554364,0.00105142456 4.38762695,0.947093083 2.66971029,2.66896811 C-0.880914706,6.21959311 -0.880914706,11.9948014 2.66971029,15.5454264 C4.38762695,17.2633431 6.67554364,18.2133431 9.10596029,18.2133431 C11.536377,18.2133431 13.8242936,17.2673014 15.5422103,15.5454264 C17.3380131,13.7468651 18.3021034,11.2806876 18.2022103,8.74105142 C18.1903353,8.30167642 17.8261686,7.96521808 17.3828353,7.97709311 Z" id="路径"></path>
                    <path d="M17.4659603,0.0327181067 L13.5986686,0.0327181067 C13.163252,0.0327181067 12.807002,0.388968107 12.807002,0.824384766 C12.807002,1.25980142 13.163252,1.61605142 13.5986686,1.61605142 L15.6253353,1.61605142 L9.93325195,7.30417642 C9.70703265,7.53072335 9.63917333,7.87105042 9.76120254,8.16703616 C9.88323175,8.4630219 10.1712254,8.65663766 10.491377,8.65792642 C10.693252,8.65792642 10.895127,8.57875977 11.049502,8.42438477 L16.6703353,2.80355142 L16.6703353,4.68771811 C16.6703353,5.12313477 17.0265853,5.47938477 17.462002,5.47938477 C17.8974186,5.47938477 18.2537013,5.12313477 18.2537013,4.68771811 L18.2537013,0.820426425 C18.257627,0.385009766 17.901377,0.0327181067 17.4659603,0.0327181067 L17.4659603,0.0327181067 Z" id="路径"></path>
                </g>
            </g>
        </g>
    </g>
</svg>
