<?xml version="1.0" encoding="UTF-8"?>
<svg width="20px" height="20px" viewBox="0 0 20 20" version="1.1" xmlns="http://www.w3.org/2000/svg" xmlns:xlink="http://www.w3.org/1999/xlink">
    <title>正确</title>
    <g id="1.1" stroke="none" stroke-width="1" fill="none" fill-rule="evenodd">
        <g id="编辑模式1.1-修改名称状态" transform="translate(-904.000000, -60.000000)" fill="#00D350" fill-rule="nonzero">
            <g id="编组-8备份-2" transform="translate(889.000000, 50.000000)">
                <g id="正确" transform="translate(15.000000, 10.000000)">
                    <path d="M10,20 C4.4771525,20 0,15.5228475 0,10 C0,4.4771525 4.4771525,0 10,0 C15.5228475,0 20,4.4771525 20,10 C20,15.5228475 15.5228475,20 10,20 Z M15.7777778,6.76111111 C15.5610903,6.54570912 15.2111319,6.54570912 14.9944445,6.76111111 L9.1,12.6555555 L5.56111111,9.11666666 C5.34442364,8.90126465 4.99446525,8.90126465 4.77777777,9.11666666 C4.5611234,9.33500441 4.5611234,9.6872178 4.77777777,9.90555555 L8.70555555,13.8333333 C8.92389329,14.0499877 9.27610671,14.0499877 9.49444445,13.8333333 L15.7777778,7.55 C15.9944321,7.33166225 15.9944321,6.97944886 15.7777778,6.76111111 L15.7777778,6.76111111 Z" id="形状"></path>
                </g>
            </g>
        </g>
    </g>
</svg>
