<?xml version="1.0" encoding="UTF-8"?>
<svg width="15px" height="15px" viewBox="0 0 15 15" version="1.1" xmlns="http://www.w3.org/2000/svg" xmlns:xlink="http://www.w3.org/1999/xlink">
    <title>路径</title>
    <g id="页面-1" stroke="none" stroke-width="1" fill="none" fill-rule="evenodd">
        <g id="手机锚点展示-文本展开" transform="translate(-308.000000, -215.000000)" fill="#999999" fill-rule="nonzero">
            <g id="编组-7" transform="translate(38.000000, 200.000000)">
                <g id="编组-3" transform="translate(270.000000, 15.000000)">
                    <path d="M13.598347,14.7595225 L7.50017523,8.66131863 L1.40200342,14.7595225 C1.1944799,14.9669738 0.8920469,15.0479536 0.608628016,14.9719576 C0.325209133,14.8959617 0.103862434,14.6745355 0.027967079,14.3910883 C-0.0479282762,14.1076411 0.0331580222,13.8052351 0.24068155,13.5977839 L6.33885335,7.5 L0.24068155,1.40219742 C-0.0801220285,1.08150555 -0.0802139559,0.561469369 0.240476225,0.240664102 C0.561166405,-0.080141165 1.08119985,-0.080233093 1.40200342,0.240458775 L7.50017523,6.33866266 L13.598347,0.240458775 C13.8058705,0.0330808528 14.1082644,-0.0478311804 14.3916198,0.0282014568 C14.6749751,0.104234094 14.8962436,0.325660235 14.9720754,0.609070791 C15.0479072,0.892481347 14.9667818,1.19481951 14.7592582,1.40219742 L8.66190775,7.5 L14.7592582,13.5977839 C14.9667818,13.8051618 15.0479072,14.1075 14.9720754,14.3909105 C14.8962436,14.6743211 14.6749751,14.8957472 14.3916198,14.9717798 C14.1082644,15.0478125 13.8058705,14.9669005 13.598347,14.7595225 Z" id="路径"></path>
                </g>
            </g>
        </g>
    </g>
</svg>
