<?xml version="1.0" encoding="UTF-8"?>
<svg width="24px" height="24px" viewBox="0 0 24 24" version="1.1" xmlns="http://www.w3.org/2000/svg" xmlns:xlink="http://www.w3.org/1999/xlink">
    <title>错误</title>
    <g id="页面-1" stroke="none" stroke-width="1" fill="none" fill-rule="evenodd">
        <g id="锚点展示-文字激活状态备份" transform="translate(-1128.000000, -285.000000)" fill="#FFFFFF" fill-rule="nonzero">
            <g id="错误" transform="translate(1128.000000, 285.000000)">
                <path d="M23.1851953,1.30710938 L1.30710938,23.1851953 C1.02375,23.4685547 0.557578125,23.4685547 0.271933594,23.1851953 L0.212519531,23.1257812 C-0.0708398438,22.8424219 -0.0708398438,22.37625 0.212519531,22.0906055 L22.0928906,0.214804688 C22.37625,-0.0685546875 22.8424219,-0.0685546875 23.1280664,0.214804688 L23.1874805,0.27421875 C23.4708398,0.557578125 23.4708398,1.02375 23.1851953,1.30710938 Z" id="路径"></path>
                <path d="M1.30710938,0.214804688 L23.1851953,22.0928906 C23.4685547,22.37625 23.4685547,22.8424219 23.1851953,23.1280664 L23.1257812,23.1874805 C22.8424219,23.4708398 22.37625,23.4708398 22.0906055,23.1874805 L0.214804688,1.30710938 C-0.0708398438,1.02375 -0.0708398438,0.557578125 0.214804688,0.27421875 L0.27421875,0.214804688 C0.557578125,-0.0708398438 1.02375,-0.0708398438 1.30710938,0.214804688 Z" id="路径"></path>
            </g>
        </g>
    </g>
</svg>
