<?xml version="1.0" encoding="UTF-8"?>
<svg width="22px" height="22px" viewBox="0 0 22 22" version="1.1" xmlns="http://www.w3.org/2000/svg" xmlns:xlink="http://www.w3.org/1999/xlink">
    <title>路径 2</title>
    <g id="页面-1" stroke="none" stroke-width="1" fill="none" fill-rule="evenodd">
        <g id="手机锚点展示-商品锚点弹窗方案备份-2" transform="translate(-316.000000, -142.000000)">
            <g id="编组-7" transform="translate(28.000000, 132.000000)">
                <g id="路径-2" transform="translate(288.000000, 10.000000)">
                    <rect id="矩形" fill-opacity="0.2" fill="#000000" x="0" y="0" width="22" height="22" rx="2"></rect>
                    <path d="M17.5049035,18.7434907 L11.0001869,12.2387399 L4.49547032,18.7434907 C4.27411189,18.964772 3.95151669,19.0511505 3.64920322,18.9700881 C3.34688974,18.8890258 3.1107866,18.6528379 3.02983155,18.3504942 C2.94887651,18.0481505 3.03536856,17.7255842 3.25672699,17.5043028 L9.76144358,11 L3.25672699,4.49567724 C2.9145365,4.15360592 2.91443845,3.59890066 3.25650797,3.25670838 C3.5985775,2.91451609 4.15327984,2.91441803 4.49547032,3.25648936 L11.0001869,9.76124017 L17.5049035,3.25648936 C17.7262619,3.03528624 18.0488154,2.94898007 18.3510611,3.03008155 C18.6533068,3.11118303 18.8893265,3.34737092 18.9702138,3.64967551 C19.051101,3.9519801 18.9645672,4.27447414 18.7432088,4.49567724 L12.2393683,11 L18.7432088,17.5043028 C18.9645672,17.7255059 19.051101,18.048 18.9702138,18.3503045 C18.8893265,18.6526091 18.6533068,18.888797 18.3510611,18.9698985 C18.0488154,19.051 17.7262619,18.9646938 17.5049035,18.7434907 Z" id="路径" fill="#FFFFFF" fill-rule="nonzero"></path>
                </g>
            </g>
        </g>
    </g>
</svg>
