<?xml version="1.0" encoding="UTF-8"?>
<svg width="24px" height="25px" viewBox="0 0 24 25" version="1.1" xmlns="http://www.w3.org/2000/svg" xmlns:xlink="http://www.w3.org/1999/xlink">
    <!-- Generator: Sketch 63 (92445) - https://sketch.com -->
    <title>户型图 (1)</title>
    <desc>Created with Sketch.</desc>
    <g id="页面-1" stroke="none" stroke-width="1" fill="none" fill-rule="evenodd">
        <g id="展示端编辑模式1.0" transform="translate(-1823.000000, -292.000000)" fill-rule="nonzero">
            <g id="编组-15" transform="translate(1823.000000, 292.000000)">
                <g id="户型图-(1)" transform="translate(1.000000, 2.000000)">
                    <path d="M21.4145211,6.62380524 L14.7661754,6.62380524 L14.7661754,0.531933581 C14.7661754,0.233820712 14.5093724,0.000514991116 14.1812352,0.000514991116 L0.584940282,0.000514991116 C0.256803049,-0.0124464346 0,0.220859286 0,0.518972155 L0,19.4685814 C0,19.7666943 0.256803049,20 0.584940282,20 L21.4145211,20 C21.7426583,20 21.9994614,19.7666943 21.9994614,19.4685814 L21.9994614,7.15522383 C22.0137282,6.85711096 21.7426583,6.62380524 21.4145211,6.62380524 Z" id="路径" stroke="#FFFFFF" stroke-width="1.35"></path>
                    <g id="编组-8" transform="translate(4.000000, 5.000000)" fill="#FFFFFF">
                        <path d="M3.44193594,9.13064562 L5.84818957,6.47702012 C6.05770604,6.25813349 6.39653055,6.25813349 6.60567223,6.47702012 L6.79457438,6.62769208 C7.00409085,6.84732832 7.00409085,7.1078184 6.79457438,7.32670502 L4.02026138,10.3660058 C4.01651332,10.3705034 4.01501409,10.3746263 4.01164085,10.3783744 L3.82198908,10.5770215 C3.71816787,10.6868396 3.5798645,10.7411864 3.44193594,10.7400791 C3.30363257,10.7408116 3.16607882,10.6864648 3.06038356,10.5770215 L2.8707318,10.3783744 C2.86698373,10.3746263 2.86623412,10.3697538 2.86286087,10.3660058 L0.157137356,7.37355575 C-0.0523791185,7.15466912 -0.0523791185,6.80047759 0.157137356,6.58084135 L0.346039509,6.47702014 C0.555555983,6.25813351 0.8951301,6.30498424 1.10427178,6.52387086 L3.44193594,9.13064562 Z" id="路径"></path>
                        <path d="M3.44980686,-2.0250468e-14 C3.86359254,-2.0250468e-14 4.19941859,0.335826053 4.19941859,0.749611732 L4.19941859,8.99534071 C4.19941859,9.40950118 3.86359254,9.74495244 3.44980686,9.74495244 C3.03602118,9.74495244 2.70019513,9.40950118 2.70019513,8.99534071 L2.70019513,0.749611732 C2.70019513,0.335826053 3.03564638,-2.0250468e-14 3.44980686,-2.0250468e-14 Z" id="路径"></path>
                    </g>
                </g>
            </g>
        </g>
    </g>
</svg>
