<?xml version="1.0" encoding="UTF-8"?>
<svg width="20px" height="20px" viewBox="0 0 20 20" version="1.1" xmlns="http://www.w3.org/2000/svg" xmlns:xlink="http://www.w3.org/1999/xlink">
    <!-- Generator: Sketch 63 (92445) - https://sketch.com -->
    <title>音乐 (2)</title>
    <desc>Created with Sketch.</desc>
    <g id="页面-1" stroke="none" stroke-width="1" fill="none" fill-rule="evenodd">
        <g id="展示端优化-首页备份-3" transform="translate(-331.000000, -230.000000)" fill="#FFFFFF" fill-rule="nonzero" stroke="#FFFFFF" stroke-width="0.5">
            <g id="音乐-(2)-2" transform="translate(330.000000, 230.000000)">
                <g id="音乐-(2)" transform="translate(1.000000, 1.000000)">
                    <path d="M16.2825903,17.833647 L3.25676191,17.833647 C1.45921569,17.831073 0.00268591592,16.435232 0,14.7125835 L0,3.1210635 C0.00201587662,1.39814857 1.45893764,0.00193188176 3.25676191,0 L16.2838096,0 C18.0816338,0.00193188176 19.5385556,1.39814857 19.5405715,3.1210635 L19.5405715,14.7125835 C19.5372145,16.435421 18.0803348,17.8310748 16.2825903,17.833647 L16.2825903,17.833647 Z M3.25676191,0.8915655 C1.97246577,0.892853606 0.931673327,1.8902797 0.930329217,3.1210635 L0.930329217,14.7125835 C0.931673327,15.9433673 1.97246577,16.9407934 3.25676191,16.9420815 L16.2838096,16.9420815 C17.5676295,16.9401497 18.6076802,15.9429118 18.609023,14.7125835 L18.609023,3.1210635 C18.6076802,1.89073521 17.5676295,0.893497281 16.2838096,0.8915655 L3.25676191,0.8915655 Z" id="形状"></path>
                    <path d="M8.14129513,14.7125835 C5.95875989,14.710652 4.18977971,13.0159021 4.18709113,10.9243065 C4.18910661,8.83206488 5.95808721,7.13626906 8.14129513,7.1336925 C10.3249792,7.13562511 12.0947018,8.83160923 12.0967184,10.9243065 C12.0940288,13.0163579 10.3243065,14.7112961 8.14129513,14.7125835 L8.14129513,14.7125835 Z M8.14129513,8.025258 C6.47189357,8.02783308 5.11943437,9.32446243 5.11742035,10.9243065 C5.12010738,12.5235043 6.47256602,13.8190879 8.14129513,13.821018 C9.81030223,13.8197303 11.1631531,12.523771 11.1651699,10.9243065 C11.1644976,9.32392936 9.81125348,8.02654746 8.14129513,8.025258 L8.14129513,8.025258 Z" id="形状"></path>
                    <path d="M11.6309442,10.6999545 C11.3737042,10.6999545 11.1651699,10.5001092 11.1651699,10.2535875 L11.1651699,3.566262 C11.1651699,3.31974032 11.3737042,3.11989503 11.6309442,3.11989503 C11.8881842,3.11989503 12.0967184,3.31974032 12.0967184,3.566262 L12.0967184,10.2535875 C12.0967184,10.5001092 11.8881842,10.6999545 11.6309442,10.6999545 Z" id="路径"></path>
                    <path d="M15.3534803,7.5800595 C13.0411763,7.5781267 11.1671868,5.78222006 11.1651699,3.566262 C11.1651699,3.31974032 11.3737042,3.11989503 11.6309442,3.11989503 C11.8881842,3.11989503 12.0967184,3.31974032 12.0967184,3.566262 C12.0987343,5.28917693 13.5556561,6.68539362 15.3534803,6.6873255 C15.6107204,6.6873255 15.8192546,6.88717081 15.8192546,7.1336925 C15.8192546,7.38021419 15.6107204,7.5800595 15.3534803,7.5800595 L15.3534803,7.5800595 Z" id="路径"></path>
                </g>
            </g>
        </g>
    </g>
</svg>
