<?xml version="1.0" encoding="UTF-8"?>
<svg width="20px" height="20px" viewBox="0 0 20 20" version="1.1" xmlns="http://www.w3.org/2000/svg" xmlns:xlink="http://www.w3.org/1999/xlink">
    <!-- Generator: Sketch 63 (92445) - https://sketch.com -->
    <title>播放</title>
    <desc>Created with Sketch.</desc>
    <g id="页面-1" stroke="none" stroke-width="1" fill="none" fill-rule="evenodd">
        <g id="展示端优化-点击/播放等状态" transform="translate(-328.000000, -135.000000)" fill="#FFFFFF" fill-rule="nonzero">
            <g id="编组-20" transform="translate(328.000000, 135.000000)">
                <g id="播放">
                    <path d="M9.99990105,1.26725535 C14.1537502,1.27030385 17.7310522,4.19785076 18.555658,8.2690296 C19.3802637,12.3402084 17.2241114,16.4290503 13.3988344,18.0482254 C8.9553824,19.919556 3.83598115,17.8373876 1.96010462,13.3958527 C0.084228096,8.95431794 2.16115686,3.83278873 6.60076979,1.95236822 C7.67617474,1.49761751 8.8323023,1.26460164 9.99990105,1.26725535 M9.99990105,0.0007915625 C4.4770301,0.0007915625 0,4.47722797 0,10.0000989 C0,15.5229699 4.4770301,20 9.99990105,20 C15.522772,20 19.9998021,15.522772 19.9998021,10.0000989 C19.9998021,4.47742586 15.5225741,0.0007915625 9.99990105,0.0007915625 L9.99990105,0.0007915625 Z" id="形状"></path>
                    <path d="M9.21012793,6.45947738 L13.5240979,10.0000989 L9.20458705,13.5450741 L9.21646037,9.03935014 L9.21646037,7.42161141 L9.21012793,6.46046682 M8.73776801,4.76119791 C8.62768818,4.76119791 8.51817959,4.7770166 8.41263717,4.80829549 C8.12702535,4.89656378 7.93367953,5.16241427 7.93770469,5.46132764 L7.95076533,7.43051639 L7.95076533,9.03737125 L7.93609959,14.5438175 C7.93372631,14.8417627 8.12724382,15.1059282 8.4120435,15.1934855 C8.80293573,15.3107029 9.22666644,15.2093399 9.52219814,14.9279191 C9.53565457,14.9150563 9.54911098,14.9025894 9.56335896,14.8909139 L14.5105722,10.8312308 C14.5367456,10.8098734 14.5612862,10.7865896 14.5839888,10.761574 C14.9730706,10.3294593 14.9730706,9.67331115 14.5839888,9.24119643 C14.5612862,9.21618084 14.5367456,9.19289707 14.5105722,9.17153967 L9.56335896,5.11185648 C9.549111,5.10018105 9.53565457,5.08771408 9.52219814,5.07485133 C9.31106562,4.87342405 9.03036387,4.76119791 8.73855957,4.76159379 L8.73776801,4.76119791 Z" id="形状"></path>
                </g>
            </g>
        </g>
    </g>
</svg>
