<?xml version="1.0" encoding="UTF-8"?>
<svg width="20px" height="20px" viewBox="0 0 20 20" version="1.1" xmlns="http://www.w3.org/2000/svg" xmlns:xlink="http://www.w3.org/1999/xlink">
    <!-- Generator: Sketch 63 (92445) - https://sketch.com -->
    <title>播放 (1)</title>
    <desc>Created with Sketch.</desc>
    <g id="页面-1" stroke="none" stroke-width="1" fill="none" fill-rule="evenodd">
        <g id="展示端优化-首页备份-3" transform="translate(-330.000000, -136.000000)" fill="#16D475" fill-rule="nonzero">
            <g id="编组-19" transform="translate(330.000000, 136.000000)">
                <g id="播放-(1)">
                    <path d="M9.7434375,18.2351562 C5.0628125,18.2351562 1.2540625,14.4270312 1.2540625,9.74640625 C1.2540625,5.06515625 5.0628125,1.25765625 9.7434375,1.25765625 C14.4246875,1.25765625 18.2328125,5.06515625 18.2328125,9.74640625 C18.2328125,14.4276562 14.4240625,18.2351562 9.7434375,18.2351562 M9.7434375,0.00703125 C4.3734375,0.00703125 0.0046875,4.37703125 0.0046875,9.74640625 C0.0046875,15.1164063 4.3734375,19.4851562 9.7434375,19.4851562 C15.1134375,19.4851562 19.4828125,15.1164063 19.4828125,9.74640625 C19.4828125,4.37703125 15.1140625,0.00765625 9.7434375,0.00765625" id="形状"></path>
                    <path d="M7.8684375,5.99640625 C7.52325953,5.99640625 7.2434375,6.27622828 7.2434375,6.62140625 L7.2434375,12.8714063 C7.2434375,13.2165842 7.52325953,13.4964062 7.8684375,13.4964062 C8.21361547,13.4964062 8.4934375,13.2165842 8.4934375,12.8714063 L8.4934375,6.62140625 C8.4934375,6.27622828 8.21361547,5.99640625 7.8684375,5.99640625 M11.6184375,5.99640625 C11.2732595,5.99640625 10.9934375,6.27622828 10.9934375,6.62140625 L10.9934375,12.8714063 C10.9934375,13.2165842 11.2732595,13.4964062 11.6184375,13.4964062 C11.9636155,13.4964062 12.2434375,13.2165842 12.2434375,12.8714063 L12.2434375,6.62140625 C12.2434375,6.27622828 11.9636155,5.99640625 11.6184375,5.99640625" id="形状"></path>
                </g>
            </g>
        </g>
    </g>
</svg>
