<?xml version="1.0" encoding="UTF-8"?>
<svg width="20px" height="20px" viewBox="0 0 20 20" version="1.1" xmlns="http://www.w3.org/2000/svg" xmlns:xlink="http://www.w3.org/1999/xlink">
    <!-- Generator: Sketch 63 (92445) - https://sketch.com -->
    <title>声明 (1)</title>
    <desc>Created with Sketch.</desc>
    <g id="页面-1" stroke="none" stroke-width="1" fill="none" fill-rule="evenodd">
        <g id="展示端优化-点击/播放等状态" transform="translate(-330.000000, -277.000000)" fill="#16D475" fill-rule="nonzero" stroke="#16D475" stroke-width="0.2">
            <g id="编组-10" transform="translate(330.000000, 277.000000)">
                <g id="编组-18">
                    <g id="声明-(1)" transform="translate(2.000000, 0.000000)">
                        <path d="M14.0848131,20 L2.91518685,20 C1.30665253,19.9977679 0.00225284919,18.6696429 0,17.03125 L0,2.96875 C0.00225284919,1.33035714 1.30665253,0 2.91518685,0 L14.0848131,0 C15.6933475,0.00223214286 16.9977472,1.33035714 17,2.96875 L17,17.0290179 C16.9977472,18.6696429 15.6933475,19.9977679 14.0848131,20 L14.0848131,20 Z M15.7068646,2.96875 C15.7068646,2.05580357 14.9791943,1.31696429 14.0848131,1.31696429 L2.91518685,1.31696429 C2.02080572,1.31696429 1.29313544,2.05803571 1.29313544,2.96875 L1.29313544,17.03125 C1.29313544,17.9441964 2.02080572,18.6830357 2.91518685,18.6830357 L14.0848131,18.6830357 C14.9791943,18.6830357 15.7068646,17.9419643 15.7068646,17.03125 L15.7068646,2.96875 L15.7068646,2.96875 Z M3.41306653,11.5223214 L13.8099655,11.5223214 L13.8099655,12.8392857 L3.41306653,12.8392857 L3.41306653,11.5223214 Z M8.68022794,10.2879464 C8.05393586,10.2879464 7.54704479,9.77008929 7.54704479,9.13169643 C7.54704479,8.49330357 8.05393586,7.97544643 8.68022794,7.97544643 C9.30652001,7.97544643 9.81341108,8.49330357 9.81341108,9.13169643 C9.81341108,9.77008929 9.30426716,10.2879464 8.68022794,10.2879464 Z M8.11701564,2.19419643 L9.41015107,2.19419643 L9.41015107,6.85044643 L8.11701564,6.85044643 L8.11701564,2.19419643 L8.11701564,2.19419643 Z M9.2051418,16.4709821 L3.45361781,16.4709821 L3.45361781,15.1540179 L9.20739465,15.1540179 L9.20739465,16.4709821 L9.2051418,16.4709821 Z" id="形状"></path>
                    </g>
                </g>
            </g>
        </g>
    </g>
</svg>
