<?xml version="1.0" encoding="UTF-8"?>
<svg width="24px" height="24px" viewBox="0 0 24 24" version="1.1" xmlns="http://www.w3.org/2000/svg" xmlns:xlink="http://www.w3.org/1999/xlink">
    <!-- Generator: Sketch 63 (92445) - https://sketch.com -->
    <title>声明 (1)</title>
    <desc>Created with Sketch.</desc>
    <g id="展示端2.0" stroke="none" stroke-width="1" fill="none" fill-rule="evenodd">
        <g id="pc-2.0首页" transform="translate(-1823.000000, -290.000000)" fill="#FFFFFF" fill-rule="nonzero">
            <g id="编组-10" transform="translate(1821.000000, 290.000000)">
                <g id="编组-18" transform="translate(2.000000, 0.000000)">
                    <g id="声明-(1)" transform="translate(2.000000, 1.000000)">
                        <path d="M16.5703684,22 L3.42963159,22 C1.53723827,21.9975446 0.00265041081,20.5366071 0,18.734375 L0,3.265625 C0.00265041081,1.46339286 1.53723827,0 3.42963159,0 L16.5703684,0 C18.4627617,0.00245535714 19.9973496,1.46339286 20,3.265625 L20,18.7319196 C19.9973496,20.5366071 18.4627617,21.9975446 16.5703684,22 L16.5703684,22 Z M18.4786642,3.265625 C18.4786642,2.26138393 17.6225815,1.44866071 16.5703684,1.44866071 L3.42963159,1.44866071 C2.3774185,1.44866071 1.52133581,2.26383929 1.52133581,3.265625 L1.52133581,18.734375 C1.52133581,19.7386161 2.3774185,20.5513393 3.42963159,20.5513393 L16.5703684,20.5513393 C17.6225815,20.5513393 18.4786642,19.7361607 18.4786642,18.734375 L18.4786642,3.265625 L18.4786642,3.265625 Z M4.01537238,12.6745536 L16.2470183,12.6745536 L16.2470183,14.1232143 L4.01537238,14.1232143 L4.01537238,12.6745536 Z M10.2120329,11.3167411 C9.47521866,11.3167411 8.87887623,10.7470982 8.87887623,10.0448661 C8.87887623,9.34263393 9.47521866,8.77299107 10.2120329,8.77299107 C10.9488471,8.77299107 11.5451895,9.34263393 11.5451895,10.0448661 C11.5451895,10.7470982 10.9461967,11.3167411 10.2120329,11.3167411 Z M9.54943016,2.41361607 L11.070766,2.41361607 L11.070766,7.53549107 L9.54943016,7.53549107 L9.54943016,2.41361607 L9.54943016,2.41361607 Z M10.8295786,18.1180804 L4.06307978,18.1180804 L4.06307978,16.6694196 L10.832229,16.6694196 L10.832229,18.1180804 L10.8295786,18.1180804 Z" id="形状"></path>
                    </g>
                </g>
            </g>
        </g>
    </g>
</svg>
