<?xml version="1.0" encoding="UTF-8"?>
<svg width="20px" height="20px" viewBox="0 0 20 20" version="1.1" xmlns="http://www.w3.org/2000/svg" xmlns:xlink="http://www.w3.org/1999/xlink">
    <!-- Generator: Sketch 63 (92445) - https://sketch.com -->
    <title>标尺</title>
    <desc>Created with Sketch.</desc>
    <g id="页面-1" stroke="none" stroke-width="1" fill="none" fill-rule="evenodd">
        <g id="展示端优化-点击/播放等状态" transform="translate(-330.000000, -89.000000)" fill-rule="nonzero">
            <g id="编组-20" transform="translate(330.000000, 89.000000)">
                <g id="编组-14">
                    <g id="标尺">
                        <polygon id="路径" fill="#000000" points="18.896201 16.2228575 18.903799 16.2228575 18.903799 16.1771425"></polygon>
                        <path d="M17.6765249,0.00567517443 L11.6362427,0.00786593521 C11.5646071,-0.00333962854 11.4617884,-0.00117406588 11.4437536,0.00567517443 L2.12344992,0.00567517443 C0.953150744,0.00567517443 0,0.957846454 0,2.12743098 L0,17.6771362 C0,18.8470985 0.953150769,19.8 2.12344992,19.8 L5.79497326,19.8 C6.96595252,19.8 7.918398,18.8470985 7.918398,17.6771362 L7.918398,7.56188069 L18.2823037,7.56188069 C18.3279449,7.56188069 18.2359824,7.55822945 18.2823037,7.5488369 C19.0661134,7.59768815 19.8,6.90274136 19.8,6.16402988 L19.8,2.12816124 C19.8,0.958601906 18.846824,0.00567517443 17.6765249,0.00567517443 L17.6765249,0.00567517443 Z M18.4191266,5.32545034 C18.5059506,6.20852481 17.4311907,6.12386611 17.4311907,6.12386611 L7.10781305,6.12386608 C7.06368315,6.13799266 7.02821799,6.1578857 6.98912574,6.17450519 C6.97033527,6.18175733 6.95295532,6.18825404 6.93560058,6.19658899 C6.6880499,6.31524213 6.53749938,6.49286931 6.53749938,6.81810784 L6.53749938,17.575153 C6.53749938,18.0403982 6.15826422,18.4187939 5.69366587,18.4187939 L2.22551293,18.4187939 C1.76013376,18.4187939 1.38160385,18.0403982 1.38160385,17.5751529 L1.38160385,15.661443 L4.81431684,15.661443 C5.21163721,15.661443 5.5337201,15.3387226 5.5337201,14.9422217 C5.5337201,14.5457208 5.21163721,14.2222953 4.81431684,14.2222953 L1.38160385,14.2222953 L1.38160385,11.8824211 L3.73449409,11.8824211 C4.13110918,11.8824211 4.45460264,11.5589705 4.45460264,11.1617897 C4.45460264,10.7667241 4.131084,10.4432986 3.73449409,10.4432986 L1.38160385,10.4432986 L1.38160385,8.10269421 L4.81429166,8.10269421 C5.21161203,8.10269421 5.53369492,7.77999897 5.53369492,7.38276782 C5.53369492,6.98626691 5.21161203,6.66321912 4.81429166,6.66321912 L1.38160385,6.66321914 L1.38160385,2.23054741 C1.38160385,1.76530222 1.76013376,1.38655394 2.22548775,1.38655394 L6.48611525,1.38655394 L6.48611525,3.93845257 C6.48611525,4.34578133 6.80819814,4.6778691 7.20622379,4.6778691 C7.60283888,4.6778691 7.92565225,4.34578133 7.92565225,3.93845257 L7.92565223,1.38655394 L10.806842,1.38655394 L10.806842,3.3983189 C10.806842,3.80564767 11.129605,4.13703038 11.5254645,4.13703038 C11.92281,4.13703038 12.245573,3.80564767 12.245573,3.3983189 L12.245573,1.38655394 L14.5869018,1.38655394 L14.5869018,3.93845257 C14.5869018,4.34578133 14.9104204,4.6778691 15.3070103,4.6778691 C15.7036254,4.6778691 16.0257083,4.34578133 16.0257083,3.93845257 L16.0257083,1.38655394 L17.574487,1.38655394 C18.039841,1.38655394 18.4190762,1.76530222 18.4190762,2.23054741 L18.4190762,5.32545034 L18.4191266,5.32545034 Z" id="形状" fill="#16D475"></path>
                    </g>
                </g>
            </g>
        </g>
    </g>
</svg>
