<?xml version="1.0" encoding="UTF-8"?>
<svg width="21px" height="20px" viewBox="0 0 21 20" version="1.1" xmlns="http://www.w3.org/2000/svg" xmlns:xlink="http://www.w3.org/1999/xlink">
    <!-- Generator: Sketch 63 (92445) - https://sketch.com -->
    <title>VR (1)</title>
    <desc>Created with Sketch.</desc>
    <g id="页面-1" stroke="none" stroke-width="1" fill="none" fill-rule="evenodd">
        <g id="展示端优化-点击/播放等状态" transform="translate(-330.000000, -183.000000)" fill="#16D475" fill-rule="nonzero" stroke="#16D475" stroke-width="0.5">
            <g id="编组-15" transform="translate(325.000000, 183.000000)">
                <g id="编组-17" transform="translate(5.000000, 0.000000)">
                    <g id="VR-(1)" transform="translate(0.000000, 3.000000)">
                        <path d="M20.5218485,2.74361953 C20.3363402,1.54724036 19.3392335,0.603941406 18.1334299,0.465897656 C12.8232567,-0.155299219 8.09279674,-0.155299219 2.75943499,0.465897656 C1.55363147,0.626948698 0.556524704,1.57024766 0.371016469,2.74361953 C0.115942647,4.12405703 0,5.52750182 0,6.90793932 C0,8.28837682 0.115942647,9.64580703 0.34782794,11.0262445 C0.579713233,12.245631 1.55363147,13.1659227 2.75943499,13.3039664 C4.17393528,13.4880247 5.12466498,13.5800539 5.65800116,13.6260685 L5.84350939,13.6260685 C6.81742762,13.6260685 7.65221468,12.7287841 8.46381321,11.854507 C9.11309203,11.1642883 9.85512497,10.3590331 10.4116497,10.3590331 C10.9681744,10.3590331 11.7102073,11.141281 12.3594861,11.854507 C13.2174617,12.7747987 14.0986258,13.7180977 15.1189211,13.6260685 C15.6058802,13.5800539 16.5797985,13.4880247 18.0870529,13.3039664 C19.3392335,13.1429154 20.3131517,12.2226237 20.4986599,11.0262445 C20.7305452,9.62279974 20.8464879,8.28837682 20.8464879,6.90793932 C20.8696764,5.50449453 20.7537338,4.10104974 20.5218485,2.74361953 Z M19.5943073,10.8651935 C19.4551761,11.6704487 18.8058973,12.2686383 17.9711102,12.3836747 C16.5102329,12.5677331 15.5131261,12.6597622 15.0725441,12.7057768 L15.026167,12.7057768 C14.4696423,12.7057768 13.7276094,11.9235289 13.0783305,11.2103029 C12.2435435,10.3360258 11.4087564,9.43874141 10.4348382,9.43874141 C9.46091997,9.43874141 8.62613291,10.3360258 7.81453439,11.2103029 C7.14206704,11.9235289 6.37684557,12.7517914 5.82032086,12.7057768 L5.75075528,12.7057768 C5.24060763,12.6597622 4.2666894,12.5677331 2.87537764,12.3836747 C2.06377911,12.2916456 1.41450029,11.6704487 1.25218058,10.8421862 C1.04348382,9.53077057 0.927541173,8.24236224 0.927541173,6.90793932 C0.927541173,5.57351641 1.04348382,4.23909349 1.27536911,2.90467057 C1.39131176,2.12242266 2.06377911,1.50122578 2.87537764,1.38618932 C8.11598527,0.764992448 12.7536911,0.764992448 18.0174873,1.38618932 C18.8290858,1.47821849 19.4783646,2.09941536 19.6174958,2.88166328 C19.8493811,4.2160862 19.9653238,5.55050912 19.9653238,6.88493203 C19.9421352,8.21935495 19.8261926,9.50776328 19.5943073,10.8651935 Z M14.9566014,3.45684557 C13.3565929,3.45684557 12.0580353,4.74525391 12.0580353,6.33275703 C12.0580353,7.92026016 13.3565929,9.20866849 14.9566014,9.20866849 C16.5566099,9.20866849 17.8551676,7.92026016 17.8551676,6.33275703 C17.8551676,4.74525391 16.5566099,3.45684557 14.9566014,3.45684557 Z M14.9566014,8.28837682 C13.8667405,8.28837682 12.9855764,7.41409974 12.9855764,6.33275703 C12.9855764,5.25141432 13.8667405,4.37713724 14.9566014,4.37713724 C16.0464623,4.37713724 16.9276264,5.25141432 16.9276264,6.33275703 C16.9276264,7.41409974 16.0464623,8.28837682 14.9566014,8.28837682 Z M5.91307498,3.45684557 C4.31306646,3.45684557 3.01450881,4.74525391 3.01450881,6.33275703 C3.01450881,7.92026016 4.31306646,9.20866849 5.91307498,9.20866849 C7.5130835,9.20866849 8.81164115,7.92026016 8.81164115,6.33275703 C8.81164115,4.74525391 7.5130835,3.45684557 5.91307498,3.45684557 L5.91307498,3.45684557 Z M5.91307498,8.28837682 C4.8232141,8.28837682 3.94204999,7.41409974 3.94204999,6.33275703 C3.94204999,5.25141432 4.8232141,4.37713724 5.91307498,4.37713724 C7.00293586,4.37713724 7.88409997,5.25141432 7.88409997,6.33275703 C7.88409997,7.41409974 7.00293586,8.28837682 5.91307498,8.28837682 Z" id="形状"></path>
                    </g>
                </g>
            </g>
        </g>
    </g>
</svg>
