<?xml version="1.0" encoding="UTF-8"?>
<svg width="20px" height="20px" viewBox="0 0 20 20" version="1.1" xmlns="http://www.w3.org/2000/svg" xmlns:xlink="http://www.w3.org/1999/xlink">
    <!-- Generator: Sketch 63 (92445) - https://sketch.com -->
    <title>锚点</title>
    <desc>Created with Sketch.</desc>
    <g id="页面-1" stroke="none" stroke-width="1" fill="none" fill-rule="evenodd">
        <g id="展示端优化-锚点模式" transform="translate(-330.000000, -137.000000)" fill="#FFFFFF" fill-rule="nonzero">
            <g id="编组-10" transform="translate(320.000000, 74.000000)">
                <g id="编组-19" transform="translate(10.000000, 63.000000)">
                    <g id="锚点-2">
                        <g id="锚点">
                            <path d="M9.9475,19.8967188 C4.4625,19.8967188 0,15.4342187 0,9.94921875 C0,4.46421875 4.4625,0.00296875 9.9475,0.00296875 C15.4325,0.00296875 19.895,4.46546875 19.895,9.94921875 C19.895,15.4342187 15.4325,19.8967188 9.9475,19.8967188 Z M9.9475,1.32921875 C5.18888685,1.33472795 1.33244921,5.19060645 1.32625,9.94921875 C1.33176062,14.7083192 5.18839954,18.5649581 9.9475,18.5704688 C14.7066005,18.5649581 18.5632394,14.7083192 18.56875,9.94921875 C18.5618623,5.19109463 14.7056259,1.33597644 9.9475,1.33046875 L9.9475,1.32921875 Z" id="形状"></path>
                            <path d="M4.99625,10.6129688 L0.66375,10.6129688 C0.297516175,10.6129688 0.000625,10.3160776 0.000625,9.94984375 C0.000625,9.58360993 0.297516175,9.28671875 0.66375,9.28671875 L4.99625,9.28671875 C5.36213865,9.28671875 5.65875,9.5833301 5.65875,9.94921875 C5.65875,10.3151074 5.36213865,10.6117188 4.99625,10.6117188 L4.99625,10.6129688 Z M19.23125,10.6129688 L14.89875,10.6129688 C14.5325162,10.6129688 14.235625,10.3160776 14.235625,9.94984375 C14.235625,9.58360993 14.5325162,9.28671875 14.89875,9.28671875 L19.23125,9.28671875 C19.5971386,9.28671875 19.89375,9.5833301 19.89375,9.94921875 C19.89375,10.3151074 19.5971386,10.6117188 19.23125,10.6117188 L19.23125,10.6129688 Z M9.9475,5.66171875 C9.77179408,5.66171875 9.60328461,5.59191984 9.47904176,5.46767699 C9.35479891,5.34343414 9.285,5.17492467 9.285,4.99921875 L9.285,0.66421875 C9.285,0.42753029 9.41127177,0.20882113 9.61624999,0.0904768967 C9.82122821,-0.0278673361 10.0737718,-0.0278673361 10.27875,0.0904768967 C10.4837282,0.20882113 10.61,0.42753029 10.61,0.66421875 L10.61,4.99671875 C10.61,5.3626074 10.3133886,5.65921875 9.9475,5.65921875 L9.9475,5.66171875 Z M9.9475,19.5879687 C9.58161135,19.5879687 9.285,19.2913574 9.285,18.9254688 L9.285,14.5917188 C9.285,14.3550303 9.41127177,14.1363211 9.61624999,14.0179769 C9.82122821,13.8996327 10.0737718,13.8996327 10.27875,14.0179769 C10.4837282,14.1363211 10.61,14.3550303 10.61,14.5917188 L10.61,18.9242188 C10.61,19.2901074 10.3133886,19.5867187 9.9475,19.5867187 L9.9475,19.5879687 Z" id="形状"></path>
                        </g>
                    </g>
                </g>
            </g>
        </g>
    </g>
</svg>
