<?xml version="1.0" encoding="UTF-8"?>
<svg width="20px" height="20px" viewBox="0 0 20 20" version="1.1" xmlns="http://www.w3.org/2000/svg" xmlns:xlink="http://www.w3.org/1999/xlink">
    <!-- Generator: Sketch 63 (92445) - https://sketch.com -->
    <title>马赛克</title>
    <desc>Created with Sketch.</desc>
    <g id="页面-1" stroke="none" stroke-width="1" fill="none" fill-rule="evenodd">
        <g id="展示端优化-锚点模式" transform="translate(-330.000000, -89.000000)" fill="#FFFFFF" fill-rule="nonzero">
            <g id="编组-10" transform="translate(320.000000, 74.000000)">
                <g id="马赛克-2" transform="translate(10.000000, 15.000000)">
                    <g id="马赛克">
                        <path d="M18.3333333,1.33333334 C18.5555556,1.33333334 18.6666667,1.44444445 18.6666667,1.66666666 L18.6666667,18.3333333 C18.6666667,18.5555556 18.5555555,18.6666667 18.3333333,18.6666667 L1.66666666,18.6666667 C1.44444443,18.6666667 1.33333334,18.5555555 1.33333334,18.3333333 L1.33333334,1.66666666 C1.33333334,1.44444443 1.44444445,1.33333334 1.66666666,1.33333334 L18.3333333,1.33333334 M18.3333333,-1.42108547e-15 L1.66666666,-1.42108547e-15 C0.777777773,-1.42108547e-15 0,0.777777773 0,1.66666666 L0,18.3333333 C0,19.2222222 0.777777773,20 1.66666666,20 L18.3333333,20 C19.2222222,20 20,19.2222222 20,18.3333333 L20,1.66666666 C20,0.777777773 19.2222222,-1.42108547e-15 18.3333333,-1.42108547e-15 Z" id="形状"></path>
                        <path d="M18.3333333,1.33333334 C18.5555556,1.33333334 18.6666667,1.44444445 18.6666667,1.66666666 L18.6666667,18.3333333 C18.6666667,18.5555556 18.5555555,18.6666667 18.3333333,18.6666667 L1.66666666,18.6666667 C1.44444443,18.6666667 1.33333334,18.5555555 1.33333334,18.3333333 L1.33333334,1.66666666 C1.33333334,1.44444443 1.44444445,1.33333334 1.66666666,1.33333334 L18.3333333,1.33333334 M18.3333333,-1.42108547e-15 L1.66666666,-1.42108547e-15 C0.777777773,-1.42108547e-15 0,0.777777773 0,1.66666666 L0,18.3333333 C0,19.2222222 0.777777773,20 1.66666666,20 L18.3333333,20 C19.2222222,20 20,19.2222222 20,18.3333333 L20,1.66666666 C20,0.777777773 19.2222222,-1.42108547e-15 18.3333333,-1.42108547e-15 Z" id="形状"></path>
                        <path d="M10,2.77777777 L17.2222222,2.77777777 L17.2222222,10 L10,10 L10,2.77777777 Z M2.77777777,10 L10,10 L10,17.2222222 L2.77777777,17.2222222 L2.77777777,10 Z" id="形状"></path>
                    </g>
                </g>
            </g>
        </g>
    </g>
</svg>
