<?xml version="1.0" encoding="UTF-8"?>
<svg width="24px" height="24px" viewBox="0 0 24 24" version="1.1" xmlns="http://www.w3.org/2000/svg" xmlns:xlink="http://www.w3.org/1999/xlink">
    <title>锚点</title>
    <g id="1.1" stroke="none" stroke-width="1" fill="none" fill-rule="evenodd">
        <g id="编辑模式1.1-悬浮状态" transform="translate(-1744.000000, -122.000000)" fill="#16D475" fill-rule="nonzero">
            <g id="编组-17备份" transform="translate(1731.000000, 50.000000)">
                <g id="锚点" transform="translate(13.000000, 72.000000)">
                    <path d="M5.9955,12.7355625 L0.7965,12.7355625 C0.35701941,12.7355625 0.00075,12.3792931 0.00075,11.9398125 C0.00075,11.5003319 0.35701941,11.1440625 0.7965,11.1440625 L5.9955,11.1440625 C6.43456638,11.1440625 6.7905,11.4999961 6.7905,11.9390625 C6.7905,12.3781289 6.43456638,12.7340625 5.9955,12.7340625 L5.9955,12.7355625 Z M23.0775,12.7355625 L17.8785,12.7355625 C17.4390194,12.7355625 17.08275,12.3792931 17.08275,11.9398125 C17.08275,11.5003319 17.4390194,11.1440625 17.8785,11.1440625 L23.0775,11.1440625 C23.5165664,11.1440625 23.8725,11.4999961 23.8725,11.9390625 C23.8725,12.3781289 23.5165664,12.7340625 23.0775,12.7340625 L23.0775,12.7355625 Z M11.937,6.7940625 C11.7261529,6.7940625 11.5239415,6.71030381 11.3748501,6.56121239 C11.2257587,6.41212097 11.142,6.20990961 11.142,5.9990625 L11.142,0.7970625 C11.142,0.513036348 11.2935261,0.250585356 11.5395,0.108572276 C11.7854739,-0.0334408034 12.0885261,-0.0334408034 12.3345,0.108572276 C12.5804739,0.250585356 12.732,0.513036348 12.732,0.7970625 L12.732,5.9960625 C12.732,6.43512888 12.3760664,6.7910625 11.937,6.7910625 L11.937,6.7940625 Z M11.937,23.5055625 C11.4979336,23.5055625 11.142,23.1496289 11.142,22.7105625 L11.142,17.5100625 C11.142,17.2260363 11.2935261,16.9635854 11.5395,16.8215723 C11.7854739,16.6795592 12.0885261,16.6795592 12.3345,16.8215723 C12.5804739,16.9635854 12.732,17.2260363 12.732,17.5100625 L12.732,22.7090625 C12.732,23.1481289 12.3760664,23.5040625 11.937,23.5040625 L11.937,23.5055625 Z" id="形状"></path>
                    <path d="M11.937,23.8760625 C5.355,23.8760625 0,18.5210625 0,11.9390625 C0,5.3570625 5.355,0.0035625 11.937,0.0035625 C18.519,0.0035625 23.874,5.3585625 23.874,11.9390625 C23.874,18.5210625 18.519,23.8760625 11.937,23.8760625 Z M1.5915,11.9390625 C1.59811274,17.6499831 6.22607945,22.2779498 11.937,22.2845625 C17.6479206,22.2779498 22.2758873,17.6499831 22.2825,11.9390625 C22.2742348,6.22931356 17.6467511,1.60317173 11.937,1.5965625 C6.22666423,1.60167354 1.59893905,6.22872774 1.5915,11.9390625 Z" id="形状"></path>
                </g>
            </g>
        </g>
    </g>
</svg>
