<?xml version="1.0" encoding="UTF-8"?>
<svg width="35px" height="35px" viewBox="0 0 35 35" version="1.1" xmlns="http://www.w3.org/2000/svg" xmlns:xlink="http://www.w3.org/1999/xlink">
    <title>返回 (1)</title>
    <g id="1.2" stroke="none" stroke-width="1" fill="none" fill-rule="evenodd">
        <g id="展示端编辑模式1.2-设置最佳视角" transform="translate(-60.000000, -50.000000)" fill="#FFFFFF" fill-rule="nonzero">
            <g id="返回-(1)-2" transform="translate(60.000000, 50.000000)">
                <g id="返回-(1)" transform="translate(8.000000, 0.000000)">
                    <path d="M16.7067614,0.28757101 L16.4841836,0.472601497 L0.47179617,16.2894429 C0.412667334,16.3476311 0.358148176,16.4102175 0.308719273,16.4766502 L0.47179617,16.2894429 C-0.0778200124,16.8360843 -0.156458544,17.6914582 0.284478123,18.3269551 L0.315330503,18.3704917 L0.469592402,18.5489917 L16.4841836,34.3658331 C17.0758539,34.9497707 18.0206198,34.991859 18.6631019,34.4629015 C19.3055839,33.933944 19.4338773,33.0084027 18.9589855,32.3283209 L18.7716675,32.1062843 L3.90522577,17.4192173 L18.7716675,2.73215029 C19.367601,2.14815554 19.4122396,1.21090487 18.8744435,0.574224469 C18.3366474,-0.0624559306 17.3951593,-0.186957961 16.7067614,0.28757101 Z" id="路径"></path>
                </g>
            </g>
        </g>
    </g>
</svg>
