<?xml version="1.0" encoding="UTF-8"?>
<svg width="80px" height="80px" viewBox="0 0 80 80" version="1.1" xmlns="http://www.w3.org/2000/svg" xmlns:xlink="http://www.w3.org/1999/xlink">
    <title>编组 4</title>
    <defs>
        <rect id="path-1" x="0" y="0" width="80" height="80" rx="4"></rect>
    </defs>
    <g id="1.2" stroke="none" stroke-width="1" fill="none" fill-rule="evenodd">
        <g id="展示端编辑模式1.2-实勘图" transform="translate(-871.000000, -924.000000)">
            <g id="编组-3" transform="translate(606.000000, 839.000000)">
                <g id="编组-2" transform="translate(60.000000, 70.000000)">
                    <g id="编组-4" transform="translate(205.000000, 15.000000)">
                        <g id="位图">
                            <mask id="mask-2" fill="white">
                                <use xlink:href="#path-1"></use>
                            </mask>
                            <use id="蒙版" fill="#FFFFFF" xlink:href="#path-1"></use>
                        </g>
                        <g id="图片" transform="translate(7.000000, 11.000000)" fill-rule="nonzero">
                            <path d="M53.2772017,5.75433239 C51.6904119,5.75433239 50.4,4.46377841 50.4,2.87713068 C50.4,1.29055398 51.6904119,0 53.2772017,0 C54.8638494,0 56.1543324,1.29055398 56.1543324,2.87713068 C56.1543324,4.46377841 54.8638494,5.75433239 53.2772017,5.75433239 Z M53.2772017,1.2787642 C52.3955966,1.2787642 51.6789062,1.99552557 51.6789062,2.87713068 C51.6789062,3.7587358 52.3955966,4.47549716 53.2772017,4.47549716 C54.1588068,4.47549716 54.8756392,3.7587358 54.8756392,2.87713068 C54.8756392,1.99566761 54.1588068,1.2787642 53.2772017,1.2787642 L53.2772017,1.2787642 Z" id="形状" fill="#95F1C3"></path>
                            <path d="M6.47713068,58.5544034 C4.89055398,58.5544034 3.6,57.2637074 3.6,55.6771307 C3.6,54.090554 4.89055398,52.8 6.47713068,52.8 C8.06377841,52.8 9.35426136,54.090625 9.35426136,55.6771307 C9.35440341,57.2637784 8.06377841,58.5544034 6.47713068,58.5544034 L6.47713068,58.5544034 Z M6.47713068,54.0787642 C5.59545455,54.0787642 4.8787642,54.7955966 4.8787642,55.6771307 C4.8787642,56.5588068 5.59545455,57.2755682 6.47713068,57.2755682 C7.35880682,57.2755682 8.0756392,56.5588068 8.0756392,55.6771307 C8.0756392,54.7955966 7.35880682,54.0787642 6.47713068,54.0787642 L6.47713068,54.0787642 Z" id="形状" fill="#95F1C3"></path>
                            <polygon id="路径" fill="#C9F2DE" points="61.7806108 19.7351562 62.0832386 17.5792614 59.3385653 18.0848722 59.5240057 15.1427557 56.7117898 15.6610795 56.9477983 11.9022727 58.2239347 11.9821733 58.090483 14.106321 60.9025568 13.5880682 60.7171165 16.5301847 63.596875 15.9995028 63.2702415 18.3215199 65.4742898 18.1285511 65.5854403 19.4022727"></polygon>
                            <polygon id="路径" fill="#95F1C3" points="5.54318182 21.7379972 2.1397017 20.0034091 3.5390625 18.3356534 0.943465909 17.3098722 2.65923295 14.9134233 -4.79616347e-15 13.8620028 2.19225852 10.8 3.23238636 11.5442472 1.9931108 13.275 4.65227273 14.3264915 2.93636364 16.7229403 5.65951705 17.7987216 4.15269886 19.593821 6.12393466 20.5990767"></polygon>
                            <path d="M47.5731459,40.3160511 C48.742824,40.3160511 49.6992898,39.2762555 49.6992898,38.0045582 L49.6992898,11.4267082 C49.6992898,10.1559397 48.7429094,9.11605114 47.5731459,9.11605114 L14.6245794,9.11605114 C13.4557555,9.11605114 12.4992898,10.1559397 12.4992898,11.4267082 L12.4992898,38.0045582 C12.4992898,39.2761626 13.4558409,40.3160511 14.6245794,40.3160511 L47.5731459,40.3160511 Z" id="路径" fill="#6EEBAC"></path>
                            <path d="M51.8741124,15.6 L18.925375,15.6 C17.7564657,15.6 16.8,16.6398855 16.8,17.9107431 L16.8,44.4884211 C16.8,45.7598359 17.7564657,46.8 18.925375,46.8 L51.874027,46.8 C53.0434488,46.8 54,45.7599288 54,44.4884211 L54,17.9107431 C54,16.6399783 53.0435343,15.6 51.8741124,15.6 Z M32.4,19.2 C33.7442469,19.2 34.8,20.4946702 34.8,22.1421313 C34.8,23.7886469 33.7442469,25.2 32.4,25.2 C31.0558303,25.2 30,23.9061809 30,22.2595707 C30.0959074,20.4947647 31.1524321,19.2 32.4,19.2 L32.4,19.2 Z M31.1999357,42 C30.5600129,42 30,41.1600836 30,40.2000964 C30,39.2400129 30.5600129,38.4 31.1999357,38.4 C31.8399871,38.4 32.4,39.2400129 32.4,40.2000964 C32.3999357,41.1600836 31.8399229,42 31.1999357,42 Z M36,42 C35.3600429,42 34.8,41.1600836 34.8,40.2000964 C34.8,39.2400129 35.3600429,38.4 36,38.4 C36.6398928,38.4 37.2,39.2400129 37.2,40.2000964 C37.2,41.1600836 36.6398928,42 36,42 Z M40.7999679,42 C40.1599936,42 39.6,41.1600836 39.6,40.2000964 C39.6,39.2400129 40.1599936,38.4 40.7999679,38.4 C41.4399421,38.4 42,39.2400129 42,40.2000964 C42,41.1600836 41.4399421,42 40.7999679,42 Z M49.3789224,33.6 L24.9940929,33.6 C24.6883108,33.6 24.3817088,33.3411913 24.177854,33.0818627 C23.87199,32.5647652 23.9739173,31.6589868 24.3817088,31.2712416 L27.8506011,28.0370167 C28.5649126,27.389735 29.3812335,27.389735 30.095463,27.9076644 L33.8708754,30.8826646 L42.0335103,24.4139029 C42.8489292,23.7674531 43.8699248,23.8968055 44.481489,24.6722957 L50.0934799,31.400698 C50.2972526,31.6589868 50.4,32.0478757 50.4,32.3062685 C50.4,33.0818627 49.9912245,33.6 49.3789224,33.6 L49.3789224,33.6 Z" id="形状" fill="#B4F3D4"></path>
                        </g>
                    </g>
                </g>
            </g>
        </g>
    </g>
</svg>
