<?xml version="1.0" encoding="UTF-8"?>
<svg width="80px" height="80px" viewBox="0 0 80 80" version="1.1" xmlns="http://www.w3.org/2000/svg" xmlns:xlink="http://www.w3.org/1999/xlink">
    <title>失败</title>
    <g id="1.2" stroke="none" stroke-width="1" fill="none" fill-rule="evenodd">
        <g id="展示端编辑模式1.2-设置弹窗备份" transform="translate(-920.000000, -385.000000)" fill="#FF6E6E" fill-rule="nonzero">
            <g id="编组-2" transform="translate(760.000000, 316.000000)">
                <g id="失败" transform="translate(160.000000, 69.000000)">
                    <path d="M39.6460843,79.3256024 C17.7894578,79.3256024 0.00993975904,61.5460843 0.00993975904,39.6894578 C0.00993975904,17.8328313 17.7930723,0.0496987952 39.6460843,0.0496987952 C61.4990964,0.0496987952 79.2822289,17.8292169 79.2822289,39.6858434 C79.2822289,61.5424699 61.5027108,79.3256024 39.6460843,79.3256024 Z M39.6460843,5.71355422 C20.9123494,5.71355422 5.67018072,20.9557229 5.67018072,39.6894578 C5.67018072,58.4231928 20.9123494,73.6653614 39.6460843,73.6653614 C58.3798193,73.6653614 73.621988,58.4231928 73.621988,39.6894578 C73.621988,20.9557229 58.3798193,5.71355422 39.6460843,5.71355422 Z M26.1135542,39.0858434 C23.7680075,39.0858434 21.8665663,37.1844021 21.8665663,34.8388554 L21.8665663,29.175 C21.8665663,26.8294533 23.7680075,24.928012 26.1135542,24.928012 C28.4591009,24.928012 30.3605422,26.8294533 30.3605422,29.175 L30.3605422,34.8388554 C30.3605422,37.1846386 28.4593373,39.0858434 26.1135542,39.0858434 L26.1135542,39.0858434 Z M53.3665663,39.0858434 C51.0210196,39.0858434 49.1195783,37.1844021 49.1195783,34.8388554 L49.1195783,29.175 C49.1195783,26.8294533 51.0210196,24.928012 53.3665663,24.928012 C55.7121129,24.928012 57.6135542,26.8294533 57.6135542,29.175 L57.6135542,34.8388554 C57.6115613,37.1835761 55.7112869,39.0838504 53.3665663,39.0858434 L53.3665663,39.0858434 Z M48.3533133,59.3738035 C47.7316828,59.3746294 47.1284474,59.1629231 46.6436747,58.7737952 C45.114759,57.5521084 42.4328313,56.7930723 39.6460843,56.7930723 C36.8593373,56.7930723 34.1774096,57.5521084 32.648494,58.7737952 C31.4610758,59.6046116 29.8324916,59.3700763 28.9277582,58.2379653 C28.0230248,57.1058543 28.1533926,55.4656417 29.2256024,54.4906627 C31.7557229,52.4701807 35.5545181,51.3135542 39.6460843,51.3135542 C43.7376506,51.3135542 47.5364458,52.4737952 50.0665663,54.4906627 C50.9787221,55.2169018 51.3313166,56.440881 50.9453086,57.5410852 C50.5593006,58.6412894 49.5192649,59.3766626 48.3533133,59.3738035 Z" id="形状"></path>
                </g>
            </g>
        </g>
    </g>
</svg>
