<?xml version="1.0" encoding="UTF-8"?>
<svg width="80px" height="80px" viewBox="0 0 80 80" version="1.1" xmlns="http://www.w3.org/2000/svg" xmlns:xlink="http://www.w3.org/1999/xlink">
    <title>成功2</title>
    <g id="1.2" stroke="none" stroke-width="1" fill="none" fill-rule="evenodd">
        <g id="展示端编辑模式1.2-设置弹窗" transform="translate(-920.000000, -384.000000)" fill="#16D475" fill-rule="nonzero">
            <g id="编组-2" transform="translate(760.000000, 316.000000)">
                <g id="成功2" transform="translate(160.000000, 68.000000)">
                    <path d="M68.284375,11.715625 C52.6546875,-3.88359375 27.3460938,-3.88359375 11.715625,11.715625 C-3.88359375,27.3460937 -3.88359375,52.6539063 11.715625,68.284375 C27.3453125,83.8828125 52.6539062,83.8835938 68.284375,68.284375 C83.8835937,52.6546875 83.8835937,27.3453125 68.284375,11.715625 Z M40,75 C20.6796875,74.9773438 5.02265625,59.3203125 5,40 C5.02265625,20.6796875 20.6796875,5.02265625 40,5 C59.3203125,5.02265625 74.9773437,20.6796875 75,40 C74.978125,59.3203125 59.3203125,74.9773438 40,75 Z M22.865625,35.29375 C20.5625,35.29375 18.6953125,33.4265625 18.6953125,31.1234375 C18.6953125,28.8203125 20.5625,26.953125 22.865625,26.953125 C25.16875,26.953125 27.0359377,28.8203125 27.0359377,31.1234375 C27.0367187,33.4265625 25.1695312,35.29375 22.865625,35.29375 Z M56.4921875,35.29375 C54.1882812,35.29375 52.3210937,33.4265625 52.3210937,31.1234375 C52.3210937,28.8203125 54.1882812,26.953125 56.4921875,26.953125 C58.7953125,26.953125 60.6625,28.8203125 60.6625,31.1234375 C60.6625,33.4265625 58.7953125,35.29375 56.4921875,35.29375 Z M39.9742188,62.6359375 C30.4742188,62.6359375 23.8820313,57.9578125 19.1085938,50.81875 C18.3335938,49.5953125 18.6773438,47.978125 19.8835938,47.175 C21.0890625,46.3726563 22.715625,46.678125 23.546875,47.8640625 C27.4265625,53.6632813 32.5617188,57.30625 39.9742188,57.30625 C47.3867188,57.30625 52.521875,53.6632813 56.4023438,47.8640625 C56.9304154,47.0717074 57.841189,46.6213837 58.7914063,46.6828125 C59.7416832,46.7438847 60.5873195,47.3069475 61.0101563,48.1601563 C61.4326131,49.0131946 61.3673762,50.0268985 60.8390625,50.81875 C56.0703125,57.9578125 49.4742188,62.6359375 39.9742188,62.6359375 L39.9742188,62.6359375 Z" id="形状"></path>
                </g>
            </g>
        </g>
    </g>
</svg>
