<?xml version="1.0" encoding="UTF-8"?>
<svg width="24px" height="24px" viewBox="0 0 24 24" version="1.1" xmlns="http://www.w3.org/2000/svg" xmlns:xlink="http://www.w3.org/1999/xlink">
    <title>发布 (1)</title>
    <g id="1.1" stroke="none" stroke-width="1" fill="none" fill-rule="evenodd">
        <g id="展示端编辑模式1.1-锚点模式保存" transform="translate(-1824.000000, -369.000000)" fill="#FFFFFF" fill-rule="nonzero" stroke="#FFFFFF" stroke-width="0.5">
            <g id="编组-12" transform="translate(1811.000000, 360.000000)">
                <g id="编组-14" transform="translate(13.000000, 9.000000)">
                    <g id="发布-(1)" transform="translate(0.000000, 2.000000)">
                        <path d="M10.9335938,20.7375 C10.9125,20.7375 10.8890625,20.7351562 10.8679687,20.7328125 C10.66875,20.7070312 10.5046875,20.5617187 10.453125,20.3671875 L7.3921875,8.925 L0.2765625,5.06953125 C0.09140625,4.96875 -0.01171875,4.7625 0.02109375,4.55390625 C0.05390625,4.3453125 0.21328125,4.18125 0.421875,4.14140625 L22.3148438,0.0140625 C22.425,-0.00703125 22.5398438,0.00703125 22.6453125,0.06328125 C22.6546875,0.06796875 22.6664062,0.075 22.6757812,0.08203125 C22.7789062,0.14765625 22.8492187,0.24375 22.884375,0.3515625 C22.8984375,0.39609375 22.9054687,0.44296875 22.9080082,0.48984375 C22.9101562,0.56953125 22.8914062,0.6515625 22.8539063,0.72890625 C22.8492187,0.73828125 22.8445312,0.74765625 22.8375,0.75703125 L11.3648438,20.4890625 C11.2734375,20.64375 11.109375,20.7375 10.9335938,20.7375 Z M8.4,8.8359375 L11.1046875,18.9515625 L21.0703125,1.81640625 L8.4,8.8359375 Z M1.9828125,4.8609375 L7.8140625,8.0203125 L19.4625,1.565625 L1.9828125,4.8609375 Z" id="形状"></path>
                        <path d="M4.6828125,16.2960938 C4.5796875,16.2960938 4.4765625,16.2632812 4.3875,16.2 C4.2,16.0617187 4.13203125,15.8132812 4.22578125,15.6 L7.36171875,8.390625 C7.471875,8.1375 7.76484375,8.02265625 8.01796875,8.1328125 C8.27109375,8.24296875 8.3859375,8.5359375 8.27578125,8.7890625 L6.01640625,13.9828125 L8.41171875,11.90625 C8.6203125,11.7257812 8.934375,11.7492187 9.11484375,11.9554688 C9.2953125,12.1640625 9.271875,12.478125 9.065625,12.6585938 L5.0109375,16.1765625 C4.91484375,16.25625 4.79765625,16.2960938 4.6828125,16.2960938 L4.6828125,16.2960938 Z" id="路径"></path>
                    </g>
                </g>
            </g>
        </g>
    </g>
</svg>
