<?xml version="1.0" encoding="UTF-8"?>
<svg width="24px" height="24px" viewBox="0 0 24 24" version="1.1" xmlns="http://www.w3.org/2000/svg" xmlns:xlink="http://www.w3.org/1999/xlink">
    <title>保存</title>
    <g id="1.1" stroke="none" stroke-width="1" fill="none" fill-rule="evenodd">
        <g id="展示端编辑模式1.1-锚点模式" transform="translate(-1597.000000, -57.000000)" fill="#FFFFFF" fill-rule="nonzero">
            <g id="编组-4" transform="translate(1590.000000, 50.000000)">
                <g id="保存-2" transform="translate(7.000000, 7.000000)">
                    <g id="保存" transform="translate(4.000000, 4.000000)">
                        <path d="M13.7212641,0.0125403912 L2.29328143,0.0125403912 C1.03076787,0.0125403912 0.00728210034,1.03602616 0.00728210034,2.29853972 L0.00728210034,13.7265411 C0.00728210034,14.9890546 1.03076787,16.0125404 2.29328143,16.0125404 L13.7212828,16.0125404 C14.9837963,16.0125404 16.0072821,14.9890546 16.0072821,13.7265411 L16.0072821,2.29853972 C16.0072821,1.03602616 14.9837963,0.0125403912 13.7212641,0.0125403912 Z M11.4008223,1.19319001 L11.4008223,5.68996336 L4.62017544,5.68996336 L4.62017544,1.19319001 L11.4008223,1.19319001 Z M14.865346,13.7296366 C14.8658489,14.3592803 14.3558309,14.8701002 13.7261871,14.8706037 L2.29592942,14.8706037 C1.99031025,14.8706037 1.70173519,14.7531783 1.48560692,14.53705 C1.26947865,14.3209218 1.14921884,14.0352371 1.14921884,13.7296366 L1.14921884,2.29963994 C1.15035636,1.66704984 1.66333932,1.15475685 2.29592942,1.15447713 L3.43954447,1.15447713 L3.43954447,5.72867624 C3.43861207,6.35843187 3.94836897,6.86968058 4.5781246,6.87061298 L11.4384349,6.87061298 C12.0697197,6.87061298 12.5815278,6.35990505 12.5815278,5.72867624 L12.5815278,1.15447713 L13.7228865,1.15447713 C14.3545255,1.15514845 14.8660167,1.66773981 14.865346,2.29937887 L14.865346,13.7296366 Z" id="形状"></path>
                        <path d="M8.86892963,4.46206633 C9.18484269,4.46206633 9.44094494,4.20596407 9.44094494,3.89005102 L9.44094494,2.78252126 C9.44094494,2.46660821 9.18484269,2.21050595 8.86892963,2.21050595 C8.55301658,2.21050595 8.29691433,2.46660821 8.29691433,2.78252126 L8.29691433,3.89005102 C8.29691433,4.20596407 8.55301658,4.46206633 8.86892963,4.46206633 Z" id="路径"></path>
                    </g>
                </g>
            </g>
        </g>
    </g>
</svg>
