<?xml version="1.0" encoding="UTF-8"?>
<svg width="19px" height="20px" viewBox="0 0 19 20" version="1.1" xmlns="http://www.w3.org/2000/svg" xmlns:xlink="http://www.w3.org/1999/xlink">
    <!-- Generator: Sketch 63 (92445) - https://sketch.com -->
    <title>体验-截图</title>
    <desc>Created with Sketch.</desc>
    <g id="页面-1" stroke="none" stroke-width="1" fill="none" fill-rule="evenodd">
        <g id="展示端优化-锚点模式" transform="translate(-331.000000, -185.000000)" fill="#FFFFFF" fill-rule="nonzero">
            <g id="编组-10" transform="translate(320.000000, 74.000000)">
                <g id="体验-截图-2" transform="translate(11.000000, 111.000000)">
                    <g id="体验-截图">
                        <path d="M18.1640625,15.8828125 L17.515625,15.8828125 L17.515625,2.921875 C17.515625,2.5625 17.2265625,2.2734375 16.8671875,2.2734375 L2.609375,2.2734375 L2.609375,0.65234375 C2.609375,0.29296875 2.3203125,0.00390625 1.9609375,0.00390625 C1.6015625,0.00390625 1.3125,0.29296875 1.3125,0.65234375 L1.3125,2.2734375 L0.6640625,2.2734375 C0.3046875,2.2734375 0.015625,2.5625 0.015625,2.921875 C0.015625,3.28125 0.3046875,3.5703125 0.6640625,3.5703125 L1.3125,3.5703125 L1.3125,16.5351562 C1.3125,16.8945312 1.6015625,17.1835937 1.9609375,17.1835937 L16.2226562,17.1835937 L16.2226562,18.8046875 C16.2226562,19.1640625 16.5117188,19.453125 16.8710938,19.453125 C17.2304688,19.453125 17.5195312,19.1640625 17.5195312,18.8046875 L17.5195312,17.1835937 L18.1640625,17.1835937 C18.5234375,17.1835937 18.8125,16.8945312 18.8125,16.5351562 C18.8125,16.1757812 18.5234375,15.8828125 18.1640625,15.8828125 Z M16.21875,15.8828125 L2.609375,15.8828125 L2.609375,3.5703125 L16.2226562,3.5703125 L16.2226562,15.8828125 L16.21875,15.8828125 Z" id="形状"></path>
                        <path d="M3.9296875,14.265625 L14.8945312,14.265625 C15.015625,14.265625 15.1171875,14.2148438 15.1875,14.1171875 C15.2578125,14.0195312 15.2695312,13.9101562 15.2304687,13.796875 L13.3046875,8.65625 C13.2578125,8.52734375 13.1484375,8.4453125 13.0078125,8.4296875 C12.8710937,8.4140625 12.7421875,8.47265625 12.6679687,8.58984375 L10.4921875,11.9140625 C10.3945312,12.0664062 10.1992187,12.1171875 10.03125,12.0390625 L6.30078125,10.2265625 C6.13671875,10.1484375 5.94140625,10.1992188 5.83984375,10.3515625 L3.625,13.7304688 C3.55078125,13.8398438 3.546875,13.96875 3.61328125,14.0859375 C3.68359375,14.1992188 3.796875,14.265625 3.9296875,14.265625 Z" id="路径"></path>
                    </g>
                </g>
            </g>
        </g>
    </g>
</svg>
