<?xml version="1.0" encoding="UTF-8"?>
<svg width="22px" height="14px" viewBox="0 0 22 14" version="1.1" xmlns="http://www.w3.org/2000/svg" xmlns:xlink="http://www.w3.org/1999/xlink">
    <title>形状</title>
    <g id="1.1" stroke="none" stroke-width="1" fill="none" fill-rule="evenodd">
        <g id="标记屏幕-点击框选" transform="translate(-1386.000000, -270.000000)" fill="#FFFFFF" fill-rule="nonzero">
            <g id="编组-2" transform="translate(1375.000000, 261.000000)">
                <g id="编组-7备份" transform="translate(11.000000, 7.000000)">
                    <g id="上传视频" transform="translate(0.000000, 2.000000)">
                        <path d="M2.66674479,7.80141494 C2.9889109,7.80141494 3.25007812,8.06258217 3.25007812,8.38474827 L3.25007812,9.8693316 L4.73757812,9.87030381 C5.05974423,9.87030381 5.32091146,10.131471 5.32091146,10.4536371 C5.32091146,10.7758032 5.05974423,11.0369705 4.73757812,11.0369705 L3.25007812,11.0369705 L3.25007812,12.522526 C3.25007812,12.8446921 2.9889109,13.1058594 2.66674479,13.1058594 C2.34457869,13.1058594 2.08341146,12.8446921 2.08341146,12.522526 L2.08341146,11.0359983 L0.597855895,11.0369705 C0.275689791,11.0369705 0.0145225618,10.7758032 0.0145225618,10.4536371 C0.0145225618,10.131471 0.275689791,9.87030381 0.597855895,9.87030381 L2.08341146,9.87030381 L2.08341146,8.38474827 C2.08341146,8.06258217 2.34457869,7.80141494 2.66674479,7.80141494 Z M12.6679948,0.0100260417 C14.5929654,0.0116334587 16.1532118,1.57144482 16.1553559,3.49641494 L16.1553559,3.7705816 L19.8050781,1.8368316 C20.2074134,1.61252992 20.6988572,1.61994234 21.0942448,1.85627604 C21.5006337,2.09252604 21.7436892,2.51544271 21.7436892,2.98697048 L21.7436892,10.2358594 C21.7436892,10.7064149 21.5006337,11.1303038 21.0942448,11.367526 C20.6924119,11.6040088 20.194835,11.6077165 19.7895226,11.3772483 L16.1553559,9.45030381 L16.1553559,9.5280816 C16.1537476,11.4534314 14.5933446,13.0138345 12.6679948,13.0154427 L6.85507812,13.0154427 C6.45237049,13.0154427 6.12591146,12.6889837 6.12591146,12.286276 C6.12591146,11.8835684 6.45237049,11.5571094 6.85507812,11.5571094 L12.668967,11.5571094 C13.7885223,11.5549678 14.6954176,10.6476378 14.6970226,9.5280816 L14.6970226,3.49641494 C14.694881,2.37685961 13.787551,1.46996435 12.6679948,1.46835937 L4.69868923,1.46835937 C3.57891149,1.4694303 2.67126905,2.37663784 2.66966146,3.49641494 L2.66966146,6.24294271 C2.66966146,6.64565034 2.34320242,6.97210937 1.94049479,6.97210937 C1.53778716,6.97210937 1.21132813,6.64565034 1.21132813,6.24294271 L1.21132813,3.49641494 C1.21347226,1.57144482 2.77371859,0.0116334587 4.69868923,0.0100260417 L12.6679948,0.0100260417 Z M20.2853559,3.23197048 L16.1553559,5.42044271 L16.1553559,7.79947048 L20.2853559,9.98988715 L20.2853559,3.23294271 L20.2853559,3.23197048 Z M4.31174479,2.40460937 C4.68035651,2.40460937 4.97917534,2.70342821 4.97917534,3.07203993 C4.97917534,3.44065164 4.68035651,3.73947048 4.31174479,3.73947048 C3.94313308,3.73947048 3.64431424,3.44065164 3.64431424,3.07203993 C3.64431424,2.70342821 3.94313308,2.40460937 4.31174479,2.40460937 L4.31174479,2.40460937 Z" id="形状"></path>
                    </g>
                </g>
            </g>
        </g>
    </g>
</svg>
