<?xml version="1.0" encoding="UTF-8"?>
<svg width="24px" height="24px" viewBox="0 0 24 24" version="1.1" xmlns="http://www.w3.org/2000/svg" xmlns:xlink="http://www.w3.org/1999/xlink">
    <title>位置</title>
    <g id="1.2" stroke="none" stroke-width="1" fill="none" fill-rule="evenodd">
        <g id="展示端编辑模式1.2" transform="translate(-1824.000000, -405.000000)" fill="#FFFFFF" fill-rule="nonzero">
            <g id="编组-13备份-2" transform="translate(1811.000000, 50.000000)">
                <g id="位置-2" transform="translate(13.000000, 355.000000)">
                    <g id="位置" transform="translate(3.000000, 0.000000)">
                        <path d="M9.71123798,13.8461809 C7.35739453,13.8461809 5.55738371,12.0461457 5.55738371,9.69230228 C5.55738371,7.33845883 7.35741887,5.53847236 9.71123798,5.53847236 C12.0650571,5.53847236 13.8650922,7.33845883 13.8650922,9.69230228 C13.8650922,12.0461457 12.0650571,13.8461809 9.71123798,13.8461809 L9.71123798,13.8461809 Z M9.71123798,12.4615385 C11.2343203,12.4615385 12.4804742,11.2153846 12.4804742,9.69230228 C12.4804742,8.16921995 11.2343203,6.92306611 9.71123798,6.92306611 C8.18815565,6.92306611 6.9420018,8.16921995 6.9420018,9.69230228 C6.9420018,11.2153846 8.18815565,12.4615385 9.71123798,12.4615385 Z" id="形状"></path>
                        <path d="M9.71123798,23.5384832 C3.20354026,18.276915 0.0189356971,13.7076923 0.0189356971,9.69230228 C0.0189356971,3.73846154 4.58813401,0 9.71123798,0 C14.8343419,0 19.4035403,3.73846154 19.4035403,9.69230228 C19.4035403,13.7076923 16.2189357,18.276915 9.71123798,23.5384832 L9.71123798,23.5384832 Z M18.0189222,9.69230228 C18.0189222,4.84617548 14.4189492,1.38461809 9.71123798,1.38461809 C5.00352674,1.38461809 1.40355379,4.8461268 1.40355379,9.69230228 C1.40355379,13.0153954 4.17276563,17.0307611 9.71123798,21.7384724 C15.2497103,17.0307611 18.0189222,13.0153954 18.0189222,9.69230228 Z" id="形状"></path>
                    </g>
                </g>
            </g>
        </g>
    </g>
</svg>
