<?xml version="1.0" encoding="UTF-8"?>
<svg width="24px" height="24px" viewBox="0 0 24 24" version="1.1" xmlns="http://www.w3.org/2000/svg" xmlns:xlink="http://www.w3.org/1999/xlink">
    <title>编组 13</title>
    <g id="1.2" stroke="none" stroke-width="1" fill="none" fill-rule="evenodd">
        <g id="展示端编辑模式1.2-点击状态" transform="translate(-1824.000000, -349.000000)" fill="#01CF68" fill-rule="nonzero">
            <g id="编组-13备份-2" transform="translate(1811.000000, 50.000000)">
                <g id="编组-17" transform="translate(13.000000, 299.000000)">
                    <g id="编组-13" transform="translate(0.000000, 2.000000)">
                        <path d="M21.1178895,19.0107172 L2.82934872,19.0107172 C1.26957955,19.0107172 1.13686838e-13,17.7411377 1.13686838e-13,16.1813685 L1.13686838e-13,2.82934872 C1.13686838e-13,1.26957955 1.26957955,5.32907052e-15 2.82934872,5.32907052e-15 L21.1178895,5.32907052e-15 C22.7073372,5.32907052e-15 24,1.29266282 24,2.88211047 L24,16.1253092 C24,17.7147568 22.7073372,19.0107172 21.1178895,19.0107172 Z M2.82934872,1.26298434 C1.96867271,1.26298434 1.26628195,1.9653751 1.26628195,2.82605111 L1.26628195,16.1747733 C1.26628195,17.0354493 1.96867271,17.7378401 2.82934872,17.7378401 L21.1178895,17.7378401 C22.008244,17.7378401 22.7337181,17.012366 22.7337181,16.1220115 L22.7337181,2.88211047 C22.7337181,1.99175598 22.008244,1.26628195 21.1178895,1.26628195 L2.82934872,1.26628195 L2.82934872,1.26298434 Z" id="形状"></path>
                        <path d="M6.39130435,7.04347826 C5.60217391,7.04347826 4.95978261,6.40108696 4.95978261,5.61195652 C4.95978261,4.82282609 5.60217391,4.18043478 6.39130435,4.18043478 C7.18043478,4.18043478 7.82282609,4.82282609 7.82282609,5.61195652 C7.82282609,6.40108696 7.18043478,7.04347826 6.39130435,7.04347826 Z M3.44673913,15.9423913 C3.38804348,15.9423913 3.32608696,15.9326087 3.26413043,15.9163043 C2.93478261,15.8152174 2.74565217,15.4663043 2.84673913,15.1336957 C2.91195652,14.9184783 4.49347826,9.87065217 8.11304348,9.92934783 C9.08804348,9.95217391 9.90978261,10.2065217 10.6336957,10.4315217 C11.5173913,10.7021739 12.2184783,10.9173913 13.1315217,10.7673913 C13.3206522,10.7380435 13.5913043,9.8576087 13.7347826,9.38804348 C14.2043478,7.84891304 15.0847826,4.98586957 18.7663043,4.98586957 C20.148913,4.95326087 20.3706522,5.16521739 20.4978261,5.2923913 C20.7423913,5.53695652 20.7423913,5.93478261 20.4978261,6.17934783 C20.2923913,6.38478261 19.9826087,6.4173913 19.7413043,6.27717391 C19.5847826,6.24782609 19.1608696,6.22826087 18.7826087,6.23804348 C16.0076087,6.23804348 15.4108696,8.18804348 14.9315217,9.75652174 C14.5891304,10.8782609 14.2891304,11.85 13.3336957,12.0032609 C12.1271739,12.1956522 11.223913,11.9217391 10.2652174,11.6282609 C9.55434783,11.4097826 8.8826087,11.201087 8.08043478,11.1847826 L8.01521739,11.1847826 C5.38695652,11.1847826 4.05652174,15.4597826 4.04347826,15.5021739 C3.96195652,15.7695652 3.71413043,15.9423913 3.44673913,15.9423913 L3.44673913,15.9423913 Z" id="形状"></path>
                    </g>
                </g>
            </g>
        </g>
    </g>
</svg>
