<?xml version="1.0" encoding="UTF-8"?>
<svg width="24px" height="24px" viewBox="0 0 24 24" version="1.1" xmlns="http://www.w3.org/2000/svg" xmlns:xlink="http://www.w3.org/1999/xlink">
    <title>屏幕</title>
    <g id="1.1" stroke="none" stroke-width="1" fill="none" fill-rule="evenodd">
        <g id="展示端编辑模式1.1" transform="translate(-1824.000000, -349.000000)" fill="#FFFFFF" fill-rule="nonzero">
            <g id="编组-13备份-2" transform="translate(1811.000000, 50.000000)">
                <g id="屏幕-2" transform="translate(13.000000, 299.000000)">
                    <g id="屏幕" transform="translate(0.000000, 2.000000)">
                        <path d="M21.8778906,0 L1.87789062,0 C0.844140625,0 0.002890625,0.84125 0.002890625,1.875 L0.002890625,14.375 C0.002890625,15.40875 0.844140625,16.25 1.87789062,16.25 L11.2528906,16.25 L11.2528906,18.75 L6.87789063,18.75 C6.53289063,18.75 6.25289063,19.03 6.25289063,19.375 C6.25289063,19.72 6.53289063,20 6.87789063,20 L16.8778906,20 C17.2228906,20 17.5028906,19.72 17.5028906,19.375 C17.5028906,19.03 17.2228906,18.75 16.8778906,18.75 L12.5028906,18.75 L12.5028906,16.25 L21.8778906,16.25 C22.9116406,16.25 23.7528906,15.40875 23.7528906,14.375 L23.7528906,1.875 C23.7528906,0.84125 22.9116406,0 21.8778906,0 Z M22.5028906,14.375 C22.5028906,14.72 22.2228906,15 21.8778906,15 L1.87789062,15 C1.53289062,15 1.25289062,14.72 1.25289062,14.375 L1.25289062,1.875 C1.25289062,1.53 1.53289062,1.25 1.87789062,1.25 L21.8778906,1.25 C22.2228906,1.25 22.5028906,1.53 22.5028906,1.875 L22.5028906,14.375 Z" id="形状"></path>
                    </g>
                </g>
            </g>
        </g>
    </g>
</svg>
