<?xml version="1.0" encoding="UTF-8"?>
<svg width="24px" height="25px" viewBox="0 0 24 25" version="1.1" xmlns="http://www.w3.org/2000/svg" xmlns:xlink="http://www.w3.org/1999/xlink">
    <!-- Generator: Sketch 63 (92445) - https://sketch.com -->
    <title>编组 6</title>
    <desc>Created with Sketch.</desc>
    <g id="页面-1" stroke="none" stroke-width="1" fill="none" fill-rule="evenodd">
        <g id="展示端编辑模式1.0" transform="translate(-1823.000000, -65.000000)" fill="#FFFFFF">
            <g id="编组-7" transform="translate(1823.000000, 65.000000)">
                <g id="编组-6" transform="translate(0.000000, 2.000000)">
                    <g id="微信" fill-rule="nonzero">
                        <path d="M19.9539379,18.0205707 C19.8804004,17.8017205 19.8165422,17.6119824 19.8165422,17.2429054 C19.8165422,16.9650614 19.8967559,16.9066385 20.1071181,16.7542772 C20.2340155,16.6623244 20.4159853,16.5301903 20.6667522,16.2703149 C21.377457,15.5345682 21.8082579,15.0354666 22.0589255,14.4648131 C22.3088983,13.8954749 22.3836518,13.2448062 22.3836518,12.2036421 C22.3836518,11.0177856 21.6458948,9.84113687 20.5230775,8.96124383 C19.4007814,8.08219463 17.8957581,7.50081945 16.3550704,7.50081945 C14.7311164,7.50081945 13.4140193,8.00024369 12.4379295,8.77756154 C11.6117687,9.4357254 11.0285321,10.293654 10.7096134,11.2164087 C10.3908435,12.1387663 10.3354237,13.1256771 10.5636553,14.0425746 C10.8031049,15.0046419 11.356038,15.8911119 12.2449402,16.545826 C13.0338235,17.1270771 13.9648676,17.5607321 14.9536149,17.7835036 C15.8805144,17.9925505 16.8591357,18.0164012 17.8197884,17.8032096 C19.0233157,17.536261 19.1375804,17.6470015 19.3655142,17.8691774 C19.4795804,17.9802405 19.6272013,18.1240145 20.0274009,18.2534186 C20.0030538,18.1667521 19.9779871,18.0918993 19.9539379,18.0205707 L19.9539379,18.0205707 Z M4.14400755,13.7474569 C4.07990116,13.9239666 4.01544731,14.1009727 3.98276125,14.357026 C4.25859492,14.2717493 4.50303309,14.1278761 4.74506386,13.9855167 C5.22254848,13.7043222 5.69288534,13.4276695 6.3986016,13.5690361 C6.96228113,13.6821096 7.37779376,13.7606107 7.81805051,13.8106202 C8.2285746,13.8573039 8.66265152,13.879318 9.26174717,13.8819488 C9.10879028,13.4903364 9.05381713,13.0218361 9.06448911,12.5450464 C9.07873498,11.9049753 9.21148955,11.2462406 9.38219173,10.7379313 C9.83835718,9.382291 10.4101772,8.85417649 11.2722009,8.05821988 L11.3197781,8.01421655 C11.4261257,7.91615835 11.4881473,7.85939826 11.5543385,7.80593904 L11.5542392,7.80579013 C11.6177003,7.7543164 11.6867952,7.70490261 11.8082821,7.6199238 C12.4069559,7.20138331 13.0343943,6.87705414 13.7209258,6.65755864 C14.3788663,6.44719637 15.0911595,6.33273309 15.8836911,6.32342612 C15.7711637,5.86366197 15.6076837,5.43209173 15.4011684,5.0308746 C14.6408761,3.55258084 13.2922345,2.47912772 11.7218142,1.86814398 C10.1479689,1.25611785 8.35197257,1.10800058 6.70009768,1.48147054 C6.08762482,1.61988374 5.49508128,1.83029565 4.94160218,2.11496473 C3.75075718,2.72748723 2.84976836,3.51835602 2.23818897,4.40457779 C1.65167634,5.25429144 1.3303254,6.19305414 1.27344122,7.14703062 C1.21665631,8.1012553 1.42389144,9.0724807 1.89415385,9.9867971 C2.39645704,10.9636067 3.19948694,11.8765581 4.30056313,12.6364533 L4.33734427,12.6618923 L4.33734427,12.7071118 C4.3373939,13.2148006 4.24070073,13.4809302 4.14400755,13.7474569 Z M0.960081858,10.8209743 C0.383471843,9.76923745 0.0165043541,8.55312714 0.0165043541,7.41566691 C0.0165043541,6.49087707 0.307502177,5.48780943 0.77088984,4.56989434 C1.26103193,3.59899158 1.94572685,2.72058766 2.68390581,2.12851567 C4.37539115,0.771262119 6.32446851,0.0707329463 8.29511321,0.00995224964 C10.2912714,-0.051771553 12.3095181,0.542558926 14.1045962,1.7741312 C14.8760073,2.30296546 15.4675829,2.87900464 15.9353882,3.5354312 C16.4023498,4.19106357 16.7454914,4.92663657 17.0202083,5.7759283 C17.1894213,6.29758999 17.2420615,6.30329826 17.5566866,6.33662961 C17.6714726,6.34879071 17.8168598,6.36435196 18.0060022,6.40187765 C18.6484062,6.52954441 19.2943097,6.74454775 19.894274,7.03619086 C20.4685511,7.31530058 21.0018279,7.6653418 21.45092,8.07737983 C21.7662649,8.36673962 22.0602657,8.65351829 22.3264946,8.96764702 C22.5936418,9.28311597 22.830957,9.62427213 23.0304984,10.019781 C23.5376164,11.0251319 23.7753536,11.9532475 23.7395652,12.8744882 C23.7038016,13.7955305 23.3942147,14.7068687 22.8078013,15.6779203 C22.615234,15.9965909 22.2932377,16.3957977 21.9469689,16.7654704 C21.6140774,17.1212199 21.2573103,17.451307 20.9705565,17.6576983 C21.0805028,18.1293505 21.2019401,18.461026 21.2982113,18.7238299 C21.4922926,19.2543766 21.5901274,19.5213997 21.3168004,20.0540808 L21.2912621,20.1038917 L21.2370832,20.0992258 C20.7806943,20.0600373 20.4955785,19.8762557 20.1811768,19.6738602 L20.0771125,19.6071727 L20.0771125,19.6073713 C19.9237867,19.5100083 19.7675832,19.4172529 19.6087115,19.3292295 C19.4603708,19.2467821 19.3025743,19.1636151 19.1297874,19.0728039 C18.7073504,18.8507273 18.6949411,18.8539537 18.3388938,18.9524586 C18.2609882,18.9739763 18.1675463,18.9999366 18.0370999,19.0323745 C17.2439726,19.2301041 16.9381581,19.2269769 16.3002213,19.2202015 C16.1852369,19.2189853 16.0574212,19.2176451 15.8659707,19.2176451 C14.5850343,19.2176451 13.1211353,18.6571176 11.9218271,17.8328678 C10.7584067,17.0333621 9.83989594,15.9824939 9.57200421,14.9500163 C9.05384194,15.0649015 8.52557852,15.0907624 8.0034701,15.0621714 C7.4570643,15.0324884 6.91693759,14.9425707 6.40205138,14.8331208 C5.58852322,14.6599367 4.93835094,15.0846074 4.31773759,15.4900685 C3.91441089,15.7535425 3.52235181,16.0095958 3.09636575,16.1020202 C2.72773541,16.1820601 2.55174688,16.0566518 2.49754311,15.8065054 C2.4163119,15.4326631 2.66107271,14.7605761 2.89111611,14.1289929 C3.00699405,13.8109428 3.11934775,13.5026961 3.1819402,13.2548329 C2.33446023,12.7725832 1.54026575,11.8790151 0.960081858,10.8211729 L0.960081858,10.8209743 L0.960081858,10.8209743 Z" id="形状"></path>
                    </g>
                    <g id="编组-5" transform="translate(4.545969, 4.545969)">
                        <circle id="椭圆形" cx="9.59704615" cy="7.57661538" r="1.01021538"></circle>
                        <circle id="椭圆形备份" cx="6.5664" cy="1.01021538" r="1.01021538"></circle>
                        <circle id="椭圆形备份-2" cx="1.01021538" cy="1.01021538" r="1.01021538"></circle>
                        <circle id="椭圆形备份-3" cx="14.1430154" cy="7.57661538" r="1.01021538"></circle>
                    </g>
                </g>
            </g>
        </g>
    </g>
</svg>
