<?xml version="1.0" encoding="UTF-8"?>
<svg width="24px" height="25px" viewBox="0 0 24 25" version="1.1" xmlns="http://www.w3.org/2000/svg" xmlns:xlink="http://www.w3.org/1999/xlink">
    <!-- Generator: Sketch 63 (92445) - https://sketch.com -->
    <title>上传 (2)</title>
    <desc>Created with Sketch.</desc>
    <g id="页面-1" stroke="none" stroke-width="1" fill="none" fill-rule="evenodd">
        <g id="展示端编辑模式1.0" transform="translate(-1823.000000, -349.000000)" fill="#FFFFFF" fill-rule="nonzero">
            <g id="上传-(2)-2" transform="translate(1823.000000, 349.000000)">
                <g id="上传-(2)" transform="translate(0.000000, 2.000000)">
                    <path d="M18.0722486,17.2832143 C17.6023737,17.2772752 17.2245848,16.8946809 17.2245848,16.4247686 C17.2245848,15.9548562 17.6023737,15.572262 18.0722486,15.5663229 C19.0975301,15.5592497 20.0784771,15.1473012 20.8013914,14.42022 C21.4956321,13.7382343 21.8880136,12.8067416 21.8909914,11.8335686 C21.8914773,9.93453398 20.4593481,8.34101814 18.5710371,8.13948857 C18.0020735,8.07832793 17.5557169,7.62347043 17.5053,7.05345429 C17.2423469,4.0310088 14.708366,1.71356832 11.6745126,1.72093456 C8.6406591,1.7283008 6.11796162,4.05801897 5.86968857,7.08170571 C5.82511856,7.63152494 5.40945644,8.07911309 4.86443143,8.16417429 C3.03524472,8.46417112 1.70234895,10.0595955 1.7325,11.9129743 C1.76980286,13.9274657 3.48724286,15.5663229 5.56098,15.5663229 C6.03085482,15.572262 6.40864374,15.9548562 6.40864374,16.4247686 C6.40864374,16.8946809 6.03085482,17.2772752 5.56098,17.2832143 C2.55906,17.2832143 0.0730714286,14.8884257 0.0182142857,11.9447914 C-0.02216316,9.38716852 1.7167939,7.14365807 4.20367714,6.54492857 C4.70811284,2.80807928 7.89128131,0.0157085786 11.6619997,0.00221595229 C15.4327181,-0.0111792087 18.6357169,2.75842263 19.1667857,6.49158 C21.7400725,6.96813926 23.607038,9.21282277 23.6067857,11.8298657 C23.6061157,13.2592812 23.0332055,14.6289318 22.0159286,15.6331114 C20.9705506,16.6818986 19.5530262,17.2750149 18.0722486,17.2832143 L18.0722486,17.2832143 Z" id="路径"></path>
                    <path d="M16.5533914,13.8446314 C16.2495021,14.2112237 15.7076895,14.2661743 15.3363857,13.96806 L12.7454829,11.8834886 L12.7454829,19.5839229 C12.737082,20.0556986 12.3522362,20.4337525 11.8803857,20.4337525 C11.4085352,20.4337525 11.0236894,20.0556986 11.0152886,19.5839229 L11.0152886,11.8834886 L8.42507143,13.9676486 C8.05372302,14.2657781 7.51186685,14.2108293 7.20792857,13.84422 C7.06315302,13.6689088 6.9948186,13.4428149 7.01825629,13.2166631 C7.04169398,12.9905113 7.15494148,12.783236 7.33259143,12.64134 L11.1152657,9.59814 C11.5633469,9.24130009 12.1985216,9.24130009 12.6466029,9.59814 L16.42914,12.64134 C16.606884,12.7832822 16.7201591,12.9906754 16.7435229,13.2169377 C16.7668866,13.4432001 16.6983805,13.669364 16.5533914,13.8446314 L16.5533914,13.8446314 Z" id="路径"></path>
                </g>
            </g>
        </g>
    </g>
</svg>
