<?xml version="1.0" encoding="UTF-8"?>
<svg width="113px" height="90px" viewBox="0 0 113 90" version="1.1" xmlns="http://www.w3.org/2000/svg" xmlns:xlink="http://www.w3.org/1999/xlink">
    <title>视频</title>
    <g id="1.1" stroke="none" stroke-width="1" fill="none" fill-rule="evenodd">
        <g id="标记屏幕-选择视频空" transform="translate(-904.000000, -369.000000)" fill-rule="nonzero">
            <g id="视频" transform="translate(904.000000, 369.000000)">
                <path d="M7.71604635,0.0474016854 L65.2351475,0.0474016854 C70.3317767,0.0474016854 72.8800913,2.59571629 72.8800913,7.69234551 L72.8800913,68.2451545 C72.8800913,73.3417837 70.3317767,75.8900983 65.2351475,75.8900983 L7.71604635,75.8900983 C2.61941713,75.8900983 0.0711025281,73.3417837 0.0711025281,68.2451545 L0.0711025281,7.69234551 C0.0711025281,2.59571629 2.61941713,0.0474016854 7.71604635,0.0474016854 L7.71604635,0.0474016854 Z" id="路径" fill="#F0F0F0"></path>
                <path d="M18.3340239,13.6990871 L81.9205407,13.6990871 C87.0171699,13.6990871 89.5654846,16.2474017 89.5654846,21.3440309 L89.5654846,81.8968399 C89.5654846,86.9934691 87.0171699,89.5417837 81.9205407,89.5417837 L18.3340239,89.5417837 C13.2373947,89.5417837 10.6890801,86.9934691 10.6890801,81.8968399 L10.6890801,21.3440309 C10.6890801,16.2474017 13.2373947,13.6990871 18.3340239,13.6990871 Z" id="路径" fill="#CCCCCC"></path>
                <path d="M106.857619,74.2518961 L85.0149228,61.6316713 C83.2588928,61.1090149 82.0359532,59.5191934 81.9812149,57.6878511 L81.9812149,45.5530197 C81.9834144,43.6765881 83.2167089,42.0239735 85.0149228,41.4878511 L106.857619,28.8676264 C108.162853,28.4779193 109.575808,28.7379078 110.656835,29.5666951 C111.737862,30.3954825 112.35577,31.6924887 112.318294,33.0541433 L112.318294,70.1867275 C112.316723,71.5271385 111.682481,72.7881476 110.607291,73.5885668 C109.532101,74.3889859 108.142156,74.6348718 106.857619,74.2518961 L106.857619,74.2518961 Z" id="路径" fill="#C5C5C5"></path>
                <path d="M28.8913272,41.0024579 C28.8913272,44.353399 31.6078018,47.0698736 34.958743,47.0698736 C38.3096842,47.0698736 41.0261587,44.353399 41.0261587,41.0024579 C41.0261587,38.834779 39.8697159,36.831761 37.9924509,35.7479216 C36.1151859,34.6640821 33.8023,34.6640821 31.9250351,35.7479216 C30.0477701,36.831761 28.8913272,38.834779 28.8913272,41.0024579 L28.8913272,41.0024579 Z" id="路径" fill="#FFFFFF"></path>
            </g>
        </g>
    </g>
</svg>
