<?xml version="1.0" encoding="UTF-8"?>
<svg width="16px" height="16px" viewBox="0 0 16 16" version="1.1" xmlns="http://www.w3.org/2000/svg" xmlns:xlink="http://www.w3.org/1999/xlink">
    <!-- Generator: Sketch 63 (92445) - https://sketch.com -->
    <title>放大</title>
    <desc>Created with Sketch.</desc>
    <g id="展示端2.3" stroke="none" stroke-width="1" fill="none" fill-rule="evenodd">
        <g id="展示端2.3-房源视频备份" transform="translate(-313.000000, -119.000000)" fill="#FFFFFF" fill-rule="nonzero">
            <g id="编组-10" transform="translate(28.000000, 67.000000)">
                <g id="位图" transform="translate(10.000000, 42.000000)">
                    <g id="编组-18" transform="translate(272.000000, 6.000000)">
                        <g id="编组-24" transform="translate(3.000000, 4.000000)">
                            <g id="放大">
                                <path d="M0.017391498,0.710903215 L0.017391498,5.42881647 C0.017391498,5.7616628 0.287532334,6.03182164 0.620396666,6.03182164 C0.95326098,6.03182164 1.22340183,5.7616628 1.22340183,5.42881647 L1.22340183,2.02422878 L5.05732243,5.85935457 C5.28283554,6.08488566 5.64827578,6.08488566 5.87497607,5.85935457 C6.10050716,5.63263629 6.10050716,5.26721404 5.87497607,5.04168295 L2.03985028,1.20776235 L5.44443797,1.20776235 C5.77728431,1.20776235 6.04744314,0.937603512 6.04744314,0.60475718 C6.04744314,0.271910848 5.77728431,0.00175201172 5.44443797,0.00175201172 L0.726524701,0.00175201172 C0.28632716,0.00175201172 0.017391498,0.228506273 0.017391498,0.710903215 L0.017391498,0.710903215 Z" id="路径"></path>
                                <path d="M15.0238251,0.00175201172 L10.3058939,0.00175201172 C9.97304757,0.00175201172 9.70288873,0.271910848 9.70288873,0.60475718 C9.70288873,0.937621494 9.97304757,1.20776235 10.3058939,1.20776235 L13.7104816,1.20776235 L9.8753558,5.04168295 C9.64982471,5.26719605 9.64982471,5.63263629 9.8753558,5.85935457 C10.1020741,6.08488566 10.4674963,6.08488566 10.6930094,5.85935457 L14.52693,2.02422878 L14.52693,5.42881647 C14.52693,5.7616628 14.7970889,6.03182164 15.1299352,6.03182164 C15.4627995,6.03182164 15.7329404,5.7616628 15.7329404,5.42881647 L15.7329404,0.710903215 C15.7329404,0.228506273 15.4652279,0.00175201172 15.0238251,0.00175201172 L15.0238251,0.00175201172 Z" id="路径"></path>
                                <path d="M0.726524701,15.6799222 L5.44445594,15.6799222 C5.77730227,15.6799222 6.04746111,15.4097814 6.04746111,15.0769171 C6.04746111,14.7440527 5.77730227,14.4739119 5.44445594,14.4739119 L2.03986826,14.4739119 L5.87499405,10.6399913 C6.10052514,10.4144782 6.10052514,10.049038 5.87499405,9.82233766 C5.64827578,9.59680658 5.28285352,9.59680658 5.05734042,9.82233766 L1.22341982,13.6574635 L1.22341982,10.2528758 C1.22341982,9.92002943 0.95327898,9.64987059 0.620414648,9.64987059 C0.287550334,9.64987059 0.0174094805,9.92002943 0.0174094805,10.2528758 L0.0174094805,14.970807 C0.0174094805,15.4532039 0.28632716,15.6799222 0.726524701,15.6799222 L0.726524701,15.6799222 Z" id="路径"></path>
                                <path d="M15.7329404,14.970789 L15.7329404,10.2528758 C15.7329404,9.92002943 15.4627995,9.64987059 15.1299352,9.64987059 C14.7970889,9.64987059 14.52693,9.92002943 14.52693,10.2528758 L14.52693,13.6574635 L10.6930094,9.82233766 C10.4674963,9.59680658 10.1020561,9.59680658 9.87535579,9.82233766 C9.6498247,10.0490559 9.6498247,10.4144782 9.87535579,10.6399913 L13.7104816,14.4739119 L10.3058939,14.4739119 C9.97304757,14.4739119 9.70288873,14.7440527 9.70288873,15.0769171 C9.70288873,15.4097814 9.97304757,15.6799222 10.3058939,15.6799222 L15.0238251,15.6799222 C15.4652279,15.6799222 15.7329404,15.4532039 15.7329404,14.970789 L15.7329404,14.970789 Z" id="路径"></path>
                            </g>
                        </g>
                    </g>
                </g>
            </g>
        </g>
    </g>
</svg>