<?xml version="1.0" encoding="UTF-8"?>
<svg width="15px" height="15px" viewBox="0 0 15 15" version="1.1" xmlns="http://www.w3.org/2000/svg" xmlns:xlink="http://www.w3.org/1999/xlink">
    <title>进入</title>
    <g id="解决方案" stroke="none" stroke-width="1" fill="none" fill-rule="evenodd">
        <g id="icon" transform="translate(-110.000000, -213.000000)" fill="#FFFFFF" fill-rule="nonzero">
            <g id="进入" transform="translate(110.000000, 213.000000)">
                <path d="M7.5,0 C5.625,0 3.85714286,0.669642861 2.4375,1.95535714 C2.25,2.14285714 2.25,2.51785714 2.4375,2.78571429 C2.625,3.08035715 3,3.08035715 3.29464286,2.78571429 C4.41964286,1.76785715 5.91964286,1.20535715 7.5,1.20535714 C10.9821429,1.20535714 13.7946429,4.01785714 13.7946429,7.5 C13.7946429,10.9821429 10.9821429,13.7946429 7.5,13.7946429 C5.89285714,13.7946429 4.41964286,13.2321429 3.29464286,12.1875 C3.10714286,11.9196429 2.65178572,11.9196429 2.4375,12.1875 C2.16964286,12.375 2.16964286,12.8571429 2.4375,13.0446429 C3.85714286,14.3303571 5.625,15 7.5,15 C11.625,15 15,11.625 15,7.5 C15,3.375 11.625,0 7.5,0 M7.23214286,9.45535714 C6.9375,9.64285714 6.9375,10.0178571 7.23214286,10.3125 C7.41964286,10.5803571 7.79464286,10.5803571 8.0625,10.3125 L10.4196429,7.95535714 C10.5267857,7.875 10.6071429,7.6875 10.6071429,7.47321429 L10.6071429,7.36607143 C10.6071429,7.17857143 10.5267857,6.99107143 10.4196429,6.88392857 L8.0625,4.52678571 C7.875,4.25892857 7.5,4.25892857 7.23214286,4.52678571 C6.9375,4.71428571 6.9375,5.08928571 7.23214286,5.38392857 L8.65178571,6.77678571 L0.669642861,6.77678571 C0.294642861,6.77678571 0,7.04464285 0,7.44642857 C0,7.71428571 0.294642861,8.00892857 0.669642861,8.00892857 L8.65178571,8.00892857 L7.23214286,9.45535714 Z" id="形状"></path>
            </g>
        </g>
    </g>
</svg>