<?xml version="1.0" encoding="UTF-8"?>
<svg width="20px" height="20px" viewBox="0 0 20 20" version="1.1" xmlns="http://www.w3.org/2000/svg" xmlns:xlink="http://www.w3.org/1999/xlink">
    <title>形状</title>
    <g id="1.1改版" stroke="none" stroke-width="1" fill="none" fill-rule="evenodd">
        <g id="量房1.1-装修效果首页" transform="translate(-237.000000, -608.000000)" fill="#FFFFFF" fill-rule="nonzero">
            <g id="编组-5" transform="translate(10.000000, 598.000000)">
                <g id="编组-2" transform="translate(223.000000, 10.000000)">
                    <g id="立体" transform="translate(5.000000, 1.000000)">
                        <path d="M0.241071429,14.1478795 L8.58816964,18.3214286 C8.7061942,18.3816964 8.84430804,18.3816964 8.96233259,18.3214286 L17.3094308,14.1478795 C17.4500558,14.0750558 17.5404576,13.9319196 17.5404576,13.7737165 L17.5404576,3.75669643 C17.5379464,3.68136161 17.515346,3.60853795 17.4751674,3.54324777 C17.4626116,3.52064732 17.4425223,3.51060268 17.4274554,3.49051339 C17.4023438,3.46289062 17.3872768,3.43024554 17.3571429,3.41266741 C17.3420759,3.40262277 17.3219866,3.40262277 17.3069196,3.39257812 C17.2943638,3.3875558 17.2893415,3.375 17.2767857,3.36997768 L8.9296875,0.0301339286 C8.82924107,-0.00753348214 8.72126116,-0.00753348214 8.61830357,0.0301339286 L0.271205357,3.36997768 C0.258649554,3.375 0.253627232,3.39006696 0.243582589,3.39508929 C0.226004464,3.40262277 0.208426339,3.40262277 0.193359375,3.41266741 C0.163225446,3.4327567 0.145647321,3.46289062 0.123046875,3.49051339 C0.107979911,3.50809152 0.087890625,3.52064732 0.0753348214,3.54324777 C0.03515625,3.60853795 0.0100446429,3.68136161 0.0100446429,3.75669643 L0.0100446429,13.7737165 C0.0125558036,13.9319196 0.100446429,14.0750558 0.241071429,14.1478795 Z M0.846261161,4.37444196 L8.35965402,7.37779018 L8.35965402,17.2717634 L0.846261161,13.515067 L0.846261161,4.37444196 Z M9.19335937,17.2717634 L9.19335937,7.37779018 L16.7042411,4.37444196 L16.7042411,13.515067 L9.19335937,17.2717634 L9.19335937,17.2717634 Z M8.77399554,0.868861607 L15.9986049,3.75669643 L8.77399554,6.64704241 L1.55189732,3.75669643 L8.77399554,0.868861607 Z" id="形状"></path>
                    </g>
                </g>
            </g>
        </g>
    </g>
</svg>
