<?xml version="1.0" encoding="UTF-8"?>
<svg width="22px" height="22px" viewBox="0 0 22 22" version="1.1" xmlns="http://www.w3.org/2000/svg" xmlns:xlink="http://www.w3.org/1999/xlink">
    <!-- Generator: Sketch 63 (92445) - https://sketch.com -->
    <title>加号</title>
    <desc>Created with Sketch.</desc>
    <g id="页面-1" stroke="none" stroke-width="1" fill="none" fill-rule="evenodd">
        <g id="装修diy-家装首页风格装修中备份-2" transform="translate(-307.000000, -552.000000)" fill="#FFFFFF" fill-rule="nonzero">
            <g id="编组-9" transform="translate(0.000000, 536.000000)">
                <g id="编组-3备份" transform="translate(290.000000, 5.000000)">
                    <g id="位图">
                        <g id="加号-2" transform="translate(17.000000, 11.000000)">
                            <g id="加号">
                                <path d="M21.1447428,9.89588441 L11.9454668,9.89588441 L11.9454668,0.971213611 C11.9454668,0.559305721 11.5335589,0.0100952285 10.9843484,0.0100952285 C10.4351378,0.0100952285 10.02323,0.559305742 10.02323,1.10851626 L10.02323,10.033187 L1.09855917,10.033187 C0.549348658,9.89588441 0.000138166016,10.4450949 0.000138166016,10.9943054 C0.000138166016,11.543516 0.54934868,11.9554238 0.961256549,11.9554238 L9.88592735,11.9554238 L9.88592735,20.8800946 C10.02323,21.4293051 10.4351379,21.9785156 10.9843484,21.9785156 C11.5335588,21.9785156 11.9454667,21.4293051 11.9454668,21.0173972 L11.9454668,11.9554238 L21.0074402,11.9554238 C21.5566507,11.9554238 21.9685586,11.4062133 21.9685586,10.9943054 C21.9685586,10.5823976 21.6939533,9.89588441 21.1447428,9.89588441 Z" id="路径"></path>
                            </g>
                        </g>
                    </g>
                </g>
            </g>
        </g>
    </g>
</svg>
