<?xml version="1.0" encoding="UTF-8"?>
<svg width="20px" height="20px" viewBox="0 0 20 20" version="1.1" xmlns="http://www.w3.org/2000/svg" xmlns:xlink="http://www.w3.org/1999/xlink">
    <title>切换</title>
    <g id="1.1改版" stroke="none" stroke-width="1" fill="none" fill-rule="evenodd">
        <g id="量房1.1-装修效果首页" transform="translate(-150.000000, -609.000000)" fill="#FFFFFF" fill-rule="nonzero">
            <g id="编组-5" transform="translate(10.000000, 598.000000)">
                <g id="编组-7" transform="translate(134.000000, 11.000000)">
                    <g id="切换" transform="translate(7.000000, 1.000000)">
                        <path d="M13.2034405,6.7126644 L11.4668411,4.97612178 C11.3239232,4.83309033 11.0794974,4.93437114 11.0794974,5.13649726 L11.0794974,6.48577193 C11.0794974,6.6110996 10.9779136,6.71268334 10.852586,6.71268334 L4.19488303,6.71268332 C4.06961217,6.71268332 3.96802841,6.81419135 3.96802841,6.93953795 L3.96802841,7.54771507 C3.96802841,7.67298593 4.06953644,7.77468329 4.19488303,7.77468329 L13.7176834,7.77468329 C13.9197527,7.77468329 14.0209578,7.53020062 13.8781157,7.38728278 L13.2034405,6.7126644 Z M13.7166041,10.1365009 L4.1935576,10.1365009 C3.99129894,10.1365009 3.89015067,10.38087 4.03312533,10.5238446 L4.70766799,11.1984441 L6.44432421,12.9350435 C6.58724205,13.0779045 6.83166791,12.9767941 6.83166791,12.7745544 L6.83166791,11.4252798 C6.83166791,11.3000089 6.93330848,11.1984251 7.05857932,11.1984251 L13.7165852,11.1984251 C13.8419128,11.1984251 13.9435534,11.0968414 13.9435534,10.9714569 L13.9435534,10.3633934 C13.9435534,10.2380847 13.8419318,10.1365009 13.7166041,10.1365009 Z M8.95555423,0.0100298191 C4.02299534,0.0100298191 0.00999194285,4.02303321 0.00999194285,8.9555353 C0.00999194285,13.8882267 4.02299534,17.9011544 8.95555423,17.9011544 C13.8881131,17.9011544 17.9011733,13.8882078 17.9011733,8.9555353 C17.9011733,4.02301428 13.888132,0.0100298191 8.95555423,0.0100298191 Z M8.95555423,16.8942918 C4.57794751,16.8942918 1.01666522,13.3328201 1.01666522,8.95540276 C1.01666522,4.57787178 4.57806112,1.01658949 8.95555423,1.01658949 C13.3330473,1.01658949 16.8944432,4.57792858 16.8944432,8.95540276 C16.8944432,13.3328201 13.3330284,16.8942918 8.95555423,16.8942918 Z" id="形状"></path>
                    </g>
                </g>
            </g>
        </g>
    </g>
</svg>
