<?xml version="1.0" encoding="UTF-8"?>
<svg width="12px" height="12px" viewBox="0 0 12 12" version="1.1" xmlns="http://www.w3.org/2000/svg" xmlns:xlink="http://www.w3.org/1999/xlink">
    <!-- Generator: Sketch 63 (92445) - https://sketch.com -->
    <title>编组 11</title>
    <desc>Created with Sketch.</desc>
    <g id="现场换装" stroke="none" stroke-width="1" fill="none" fill-rule="evenodd">
        <g id="装修diy-设计家备份-4" transform="translate(-67.000000, -386.000000)">
            <g id="编组-11备份-4" transform="translate(45.000000, 364.000000)">
                <g id="位图备份-5">
                    <g id="编组-12" transform="translate(22.000000, 22.000000)">
                        <g id="编组-11">
                            <circle id="椭圆形" fill="#36D988" cx="6" cy="6" r="6"></circle>
                            <path d="M4.56308914,9.92682337 C4.46361998,9.92682337 4.36515556,9.88663381 4.29381909,9.80725943 L2.09243599,7.35569632 L2.09143125,7.35469158 C2.03114691,7.28737407 2.00100474,7.20398073 2,7.11958266 C2,7.0974784 2.00100474,7.0743694 2.00502369,7.05226515 C2.01708056,6.98092868 2.05023695,6.91361117 2.10449285,6.85935526 C2.11253077,6.85131735 2.12056868,6.84428418 2.12961133,6.83624627 C2.19692884,6.77998088 2.27931744,6.75184819 2.36170603,6.75184819 L10.618651,6.75184819 C10.818594,6.75184819 10.980357,6.91361117 10.980357,7.11355422 C10.980357,7.31349728 10.818594,7.47526026 10.618651,7.47526026 L3.17353513,7.47526026 L4.83235918,9.32297524 C4.894653,9.39230223 4.92479517,9.47870978 4.92479517,9.5641126 C4.92479517,9.66358175 4.88460561,9.76204617 4.80523123,9.83338264 C4.73590424,9.8966812 4.64949669,9.92682337 4.56308914,9.92682337 L4.56308914,9.92682337 Z M10.6196557,5.17541273 L2.36271077,5.17541273 C2.16276771,5.17541273 2.00100474,5.01364976 2.00100474,4.8137067 C2.00100474,4.61376364 2.16276771,4.45200067 2.36271077,4.45200067 L9.81084083,4.45200067 L8.16005468,2.60328094 C8.09876561,2.53395395 8.06862344,2.44855114 8.0676187,2.36214359 C8.0676187,2.26267443 8.108813,2.16320527 8.18818738,2.0918688 C8.33688874,1.95924326 8.56596923,1.97130013 8.69859478,2.12100623 L10.887921,4.57256934 L10.887921,4.57357408 C10.9482054,4.64089159 10.9783475,4.72528967 10.9793523,4.80968774 C10.9793523,4.831792 10.9783475,4.85389626 10.9743286,4.87499578 C10.9622717,4.94633224 10.9281106,5.01565923 10.8728499,5.06991514 C10.8658168,5.07694831 10.8577788,5.08398148 10.8497409,5.09101466 C10.7834282,5.14828478 10.7010396,5.17541273 10.6196557,5.17541273 Z" id="形状" fill="#333333" fill-rule="nonzero"></path>
                        </g>
                    </g>
                </g>
            </g>
        </g>
    </g>
</svg>
