<?xml version="1.0" encoding="UTF-8"?>
<svg width="21px" height="21px" viewBox="0 0 21 21" version="1.1" xmlns="http://www.w3.org/2000/svg" xmlns:xlink="http://www.w3.org/1999/xlink">
    <!-- Generator: Sketch 63 (92445) - https://sketch.com -->
    <title>选中</title>
    <desc>Created with Sketch.</desc>
    <g id="现场换装" stroke="none" stroke-width="1" fill="none" fill-rule="evenodd">
        <g id="装修diy-换家具" transform="translate(-296.000000, -373.000000)" fill="#36D988" fill-rule="nonzero">
            <g id="编组备份-2" transform="translate(256.000000, 333.000000)">
                <g id="选中-2" transform="translate(40.000000, 40.000000)">
                    <g id="选中">
                        <path d="M17.3397142,2.97147104 C15.4233014,1.05538876 12.8755133,0.000161199097 10.1654606,0.000161199097 C7.45507734,0.000161199097 4.90705314,1.05548319 2.99085281,2.97147104 C1.07446364,4.88769495 0.0188819352,7.43602606 0.0188819352,10.1467634 C0.0188819352,12.8568161 1.07446362,15.4046042 2.99087641,17.3212531 C4.90707672,19.2373354 7.45507731,20.2933657 10.1654842,20.2933657 C12.8755133,20.2933657 15.4233014,19.237359 17.3400683,17.3212531 C19.2565047,15.4046042 20.3120628,12.8568161 20.3120628,10.1467634 C20.3120628,7.43671072 19.2564811,4.88769495 17.3397142,2.97147104 L17.3397142,2.97147104 L17.3397142,2.97147104 Z M15.7367108,7.17528835 L8.82661818,14.0855226 L8.82661818,14.0855226 C8.82217968,14.0898666 8.81783563,14.0929594 8.81349158,14.0973035 C8.68168256,14.2228797 8.51198114,14.2861282 8.3423033,14.2861282 C8.27728414,14.2861282 8.21224135,14.2774637 8.14901647,14.258907 C8.14844986,14.258246 8.1477888,14.258246 8.14722219,14.258246 C8.11742765,14.2490148 8.08897882,14.2379186 8.06041192,14.2254531 C7.98741291,14.1919991 7.9180733,14.1462213 7.8579412,14.0855226 L7.85761068,14.0855226 L4.5874582,10.8155826 C4.31994469,10.5480691 4.31994469,10.1145372 4.5874582,9.84700006 C4.85494809,9.57939212 5.28850364,9.57939212 5.55599353,9.84700006 L8.34230328,12.6331918 L14.7681518,6.20675303 C15.0356653,5.93926315 15.4691972,5.93926315 15.7367107,6.20675303 C16.0035396,6.4742429 16.0035396,6.90779844 15.7367108,7.17528835 L15.7367108,7.17528835 L15.7367108,7.17528835 Z" id="形状"></path>
                    </g>
                </g>
            </g>
        </g>
    </g>
</svg>
