<?xml version="1.0" encoding="UTF-8"?>
<svg width="80px" height="80px" viewBox="0 0 80 80" version="1.1" xmlns="http://www.w3.org/2000/svg" xmlns:xlink="http://www.w3.org/1999/xlink">
    <!-- Generator: Sketch 63 (92445) - https://sketch.com -->
    <title>装修房源</title>
    <desc>Created with Sketch.</desc>
    <defs>
        <filter x="-21.2%" y="-19.4%" width="142.4%" height="136.1%" filterUnits="objectBoundingBox" id="filter-1">
            <feOffset dx="0" dy="2" in="SourceAlpha" result="shadowOffsetOuter1"></feOffset>
            <feGaussianBlur stdDeviation="2" in="shadowOffsetOuter1" result="shadowBlurOuter1"></feGaussianBlur>
            <feColorMatrix values="0 0 0 0 0   0 0 0 0 0   0 0 0 0 0  0 0 0 0.3 0" type="matrix" in="shadowBlurOuter1" result="shadowMatrixOuter1"></feColorMatrix>
            <feMerge>
                <feMergeNode in="shadowMatrixOuter1"></feMergeNode>
                <feMergeNode in="SourceGraphic"></feMergeNode>
            </feMerge>
        </filter>
        <linearGradient x1="50%" y1="0%" x2="50%" y2="100%" id="linearGradient-2">
            <stop stop-color="#7DC9FF" offset="0%"></stop>
            <stop stop-color="#3B97FB" offset="100%"></stop>
        </linearGradient>
        <circle id="path-3" cx="33" cy="33" r="33"></circle>
        <linearGradient x1="40.6044881%" y1="22.5233306%" x2="40.6044881%" y2="80.7636956%" id="linearGradient-5">
            <stop stop-color="#F8F8F8" offset="0%"></stop>
            <stop stop-color="#E0E0E0" offset="100%"></stop>
        </linearGradient>
        <linearGradient x1="50%" y1="0%" x2="50%" y2="100%" id="linearGradient-6">
            <stop stop-color="#C9CDD3" offset="0%"></stop>
            <stop stop-color="#999EA7" offset="100%"></stop>
        </linearGradient>
        <linearGradient x1="6.2447312%" y1="35.0066757%" x2="94.1813833%" y2="66.5588634%" id="linearGradient-7">
            <stop stop-color="#F0F0F0" offset="0%"></stop>
            <stop stop-color="#DCDCDC" offset="100%"></stop>
        </linearGradient>
        <linearGradient x1="61.7068392%" y1="0%" x2="61.7068392%" y2="77.3419699%" id="linearGradient-8">
            <stop stop-color="#FFFFFF" offset="0%"></stop>
            <stop stop-color="#CFCFCF" offset="100%"></stop>
        </linearGradient>
        <linearGradient x1="96.1721612%" y1="33.4394162%" x2="6.91426295%" y2="64.56672%" id="linearGradient-9">
            <stop stop-color="#EFEFEF" offset="0%"></stop>
            <stop stop-color="#E5E5E5" offset="100%"></stop>
        </linearGradient>
        <linearGradient x1="50%" y1="1.1217272%" x2="50%" y2="73.062203%" id="linearGradient-10">
            <stop stop-color="#FFC9B6" offset="0%"></stop>
            <stop stop-color="#FCE6CC" offset="100%"></stop>
        </linearGradient>
        <filter x="-36.4%" y="-26.7%" width="172.7%" height="153.3%" filterUnits="objectBoundingBox" id="filter-11">
            <feOffset dx="1" dy="1" in="SourceAlpha" result="shadowOffsetOuter1"></feOffset>
            <feGaussianBlur stdDeviation="0.5" in="shadowOffsetOuter1" result="shadowBlurOuter1"></feGaussianBlur>
            <feColorMatrix values="0 0 0 0 0.50501019   0 0 0 0 0.446105967   0 0 0 0 0.410763433  0 0 0 0.2 0" type="matrix" in="shadowBlurOuter1" result="shadowMatrixOuter1"></feColorMatrix>
            <feMerge>
                <feMergeNode in="shadowMatrixOuter1"></feMergeNode>
                <feMergeNode in="SourceGraphic"></feMergeNode>
            </feMerge>
        </filter>
        <linearGradient x1="0%" y1="50%" x2="90.9415309%" y2="50%" id="linearGradient-12">
            <stop stop-color="#FFFFFF" offset="0%"></stop>
            <stop stop-color="#E4E4E4" offset="100%"></stop>
        </linearGradient>
        <linearGradient x1="50%" y1="0%" x2="50%" y2="75.5631139%" id="linearGradient-13">
            <stop stop-color="#FEC2C2" offset="0%"></stop>
            <stop stop-color="#FF7474" offset="100%"></stop>
        </linearGradient>
        <path d="M10.3731419,4.38915569 L10.3731419,4.35490667 C10.3731419,4.2731452 10.3517765,4.19595565 10.3142686,4.12700526 C10.2961287,2.94830572 9.68423983,1.90770083 8.76663589,1.1850949 C7.83275633,0.447706974 6.57337944,0.00847939987 5.19066304,0.00747777724 C3.80815377,0.00847939987 2.54933913,0.447706974 1.61492692,1.18511106 C0.69757452,1.90808857 0.0853009698,2.94859652 0.0672202523,4.12771609 C0.030422577,4.19658571 0.00877603337,4.27485766 0.00877603337,4.35492282 L0.00877603337,4.41346927 L0.00842093426,4.41346927 L0.00842093426,11.916041 C0.00842093426,12.0040545 0.0327011742,12.089984 0.0762310279,12.1633933 C0.307048735,12.8810395 0.974200663,13.3251621 1.81137351,13.6680724 C2.72191975,14.0270248 3.89832065,14.2354753 5.19039672,14.2368808 C6.48287227,14.2354753 7.6602645,14.0270248 8.57079594,13.6680724 C9.40699226,13.3251621 10.0738927,12.8818796 10.3051838,12.1641041 C10.3492463,12.0906787 10.3731419,12.0040707 10.3731419,11.9160571 L10.3731419,4.41345312 C10.3731419,4.40511704 10.3731419,4.39718482 10.3731419,4.38915569 L10.3731419,4.38915569 Z M9.46253646,4.43348556 L9.51941231,4.43348556 L9.51941231,4.69849546 C9.48006973,4.74731646 9.43026637,4.79899696 9.36437976,4.85327843 C8.75302356,5.37229653 7.0993331,5.80446428 5.19066304,5.79683903 C3.91613503,5.79725907 2.76223887,5.61509303 1.94743759,5.33071305 C1.5409617,5.18961354 1.21945927,5.0212602 1.01783409,4.85327843 C0.951932671,4.79862539 0.901862987,4.74731648 0.86232806,4.69849546 L0.86232806,4.43348556 L0.919322271,4.43348556 C0.915800819,4.41206376 0.936411663,4.31333934 1.12124338,4.1591541 C1.38912508,3.93372444 1.94261409,3.68747073 2.65501221,3.52257461 C3.36908228,3.35420512 4.2456273,3.25308905 5.19066304,3.25308905 C6.44999554,3.25268583 7.59048653,3.4341572 8.38142186,3.71068575 C8.77560226,3.84711642 9.08196838,4.01052626 9.26024546,4.1591541 C9.4456838,4.3133555 9.4664278,4.41206376 9.46253646,4.43348556 L9.46253646,4.43348556 Z M2.12216362,1.92119044 C2.88793093,1.31407803 3.9781303,0.92186209 5.19066304,0.92255584 C6.4034473,0.92186209 7.49352829,1.31407803 8.25993183,1.92119044 C8.6813073,2.25616851 9.00115257,2.64726975 9.20533747,3.07192534 C8.83895876,2.89105172 8.40404495,2.74697964 7.90971035,2.62852972 C7.12385006,2.44389193 6.19272258,2.3386085 5.19064823,2.3386085 C3.85468721,2.33930318 2.64620858,2.52465178 1.73640214,2.840179 C1.53348971,2.9119081 1.34768146,2.99019618 1.17517482,3.07502714 C1.37912296,2.64894988 1.69926417,2.25723475 2.12216362,1.92119044 L2.12216362,1.92119044 Z M9.51103777,11.8253296 C9.49359328,12.0567043 9.0748663,12.5055766 8.27484621,12.8096982 C7.48898592,13.1207504 6.39499878,13.322335 5.1903967,13.3216421 C3.98620892,13.322335 2.89245852,13.1207342 2.10634669,12.8096982 C1.30632662,12.5055927 0.887939933,12.0567205 0.870421469,11.8253296 C0.867891357,11.8135362 0.865346439,11.8017106 0.862328046,11.7899174 L0.862328046,6.01690517 C0.888235851,6.07674402 0.916052348,6.13598514 0.940569326,6.19588862 C1.06043178,6.48125407 1.10632898,6.84191891 1.21394034,7.21982134 C1.3185925,7.53922579 1.4601015,8.06706463 1.89572552,8.31511158 C2.00392871,8.37117013 2.11873093,8.39480517 2.22530657,8.39396512 C2.51220114,8.39120258 2.7435515,8.24793826 2.92154745,8.11420553 C3.08023462,7.98809804 3.1914414,7.82942166 3.30603648,7.70959855 C3.41853052,7.58696443 3.51221883,7.53712563 3.54648638,7.54132599 L3.54648638,7.54200451 C3.58492641,7.54827273 3.59010501,7.54329692 3.63588385,7.63893571 C3.67140906,7.72415438 3.69215306,7.86266908 3.70159292,7.97696711 C3.70058679,8.0151903 4.16120126,8.13821216 4.16120126,8.27057171 C4.16120126,8.70496888 4.0439873,9.7773349 4.16120126,10.5649655 C4.22112509,10.9591685 4.44392336,11.1758582 4.5760369,11.4827424 C4.70070805,11.7708865 4.67447473,11.4204641 4.99078376,11.4827424 C5.0321386,11.4973305 4.85381714,11.6013054 4.95590957,11.6013054 C4.96169481,11.6013054 4.984673,11.4827424 4.99078376,11.4827424 C5.2036835,11.4827424 5.19422885,11.4056659 5.40548623,11.0238701 C5.62658296,10.634546 5.639781,10.5631077 5.82033666,9.64720476 C5.8887534,9.29789702 5.85966445,10.5723323 5.82033666,10.1060932 L6.02721442,10.0848814 C6.02721442,10.0848814 6.02721442,10.0848814 6.02606033,10.0723773 C6.02533533,10.0598732 6.02468431,10.0398246 6.02468431,10.0148163 C6.02404808,9.93097085 6.03758643,9.79382936 6.08608774,9.6850887 C6.1384656,9.57704272 6.20103792,9.49450581 6.36515522,9.44330997 L6.38842934,9.43566856 L6.38842934,9.43566856 C6.4007692,9.43151667 6.44730264,9.41841481 6.49965093,9.41841481 C6.57725598,9.42188818 6.64758139,9.43497389 6.72381043,9.52715546 C6.80082364,9.62130797 6.89766351,9.84305423 6.90350793,10.3065146 C6.9080503,10.5531561 7.26414579,9.38881848 7.47935371,9.64717244 C7.64481745,9.84253727 7.5471934,8.20477157 7.75785895,8.20210597 C8.12033151,8.19574082 8.43121041,9.35350322 8.62956568,9.06747541 C8.93323891,8.61569524 9.00760364,8.05048943 9.04312886,7.58560739 L9.04376509,7.56756203 C9.04376509,7.56756203 9.04449009,7.47541276 9.05804323,7.31815806 C9.08254541,6.9243589 9.21369722,6.1650322 9.52001894,5.70992406 L9.52001894,11.7871387 C9.51623116,11.7996428 9.51367145,11.8128416 9.51103777,11.8253296 L9.51103777,11.8253296 Z" id="path-14"></path>
        <linearGradient x1="13.3840119%" y1="50%" x2="83.254573%" y2="50%" id="linearGradient-16">
            <stop stop-color="#FFFFFF" offset="0%"></stop>
            <stop stop-color="#E7E7E7" offset="100%"></stop>
        </linearGradient>
        <linearGradient x1="5.9704337%" y1="48.4072594%" x2="96.5447203%" y2="50.7957174%" id="linearGradient-17">
            <stop stop-color="#FFFFFF" offset="0%"></stop>
            <stop stop-color="#E4E4E4" offset="83.8034142%"></stop>
            <stop stop-color="#E4E4E4" offset="100%"></stop>
        </linearGradient>
        <linearGradient x1="50%" y1="0%" x2="50%" y2="100%" id="linearGradient-18">
            <stop stop-color="#FEC2C2" offset="0%"></stop>
            <stop stop-color="#FF7474" offset="100%"></stop>
        </linearGradient>
        <linearGradient x1="50%" y1="0%" x2="50%" y2="100%" id="linearGradient-19">
            <stop stop-color="#F0F0F0" offset="0%"></stop>
            <stop stop-color="#D0CDCD" offset="100%"></stop>
        </linearGradient>
        <filter x="-22.2%" y="-18.2%" width="144.4%" height="136.4%" filterUnits="objectBoundingBox" id="filter-20">
            <feOffset dx="0" dy="1" in="SourceAlpha" result="shadowOffsetOuter1"></feOffset>
            <feGaussianBlur stdDeviation="0.5" in="shadowOffsetOuter1" result="shadowBlurOuter1"></feGaussianBlur>
            <feColorMatrix values="0 0 0 0 0   0 0 0 0 0   0 0 0 0 0  0 0 0 0.15 0" type="matrix" in="shadowBlurOuter1" result="shadowMatrixOuter1"></feColorMatrix>
            <feMerge>
                <feMergeNode in="shadowMatrixOuter1"></feMergeNode>
                <feMergeNode in="SourceGraphic"></feMergeNode>
            </feMerge>
        </filter>
        <linearGradient x1="145.168487%" y1="14.7979728%" x2="13.8553303%" y2="78.6395024%" id="linearGradient-21">
            <stop stop-color="#FFACAC" offset="0%"></stop>
            <stop stop-color="#FF7474" offset="100%"></stop>
        </linearGradient>
    </defs>
    <g id="页面-1" stroke="none" stroke-width="1" fill="none" fill-rule="evenodd">
        <g id="看房首页" transform="translate(-287.000000, -561.000000)">
            <g id="装修房源-2" transform="translate(287.000000, 561.000000)">
                <g id="装修房源" filter="url(#filter-1)" transform="translate(7.000000, 4.000000)">
                    <g id="编组-18">
                        <mask id="mask-4" fill="white">
                            <use xlink:href="#path-3"></use>
                        </mask>
                        <circle stroke="#FFFFFF" stroke-width="2" cx="33" cy="33" r="34"></circle>
                        <g mask="url(#mask-4)">
                            <g transform="translate(-13.000000, -10.000000)">
                                <g>
                                    <circle id="蒙版" stroke="#FFFFFF" stroke-width="1.8" fill="url(#linearGradient-2)" cx="47.7" cy="39.6" r="30.6"></circle>
                                    <g>
                                        <polygon id="Fill-1" fill="url(#linearGradient-5)" points="80.5028606 24.1515055 80.3983206 60.9673964 42.8671977 39.3841964 42.9729972 2.56830545"></polygon>
                                        <polygon id="Fill-2" fill="url(#linearGradient-6)" points="80.5032384 24.1512545 80.3974389 60.9671455 84.835981 58.3990909 84.940521 21.9746182 84.940521 21.5832"></polygon>
                                        <polygon id="Fill-3" fill="url(#linearGradient-7)" points="47.4110355 0 42.9737529 2.56930909 80.5036163 24.1512545 84.9408989 21.5832 84.9408989 21.5819455"></polygon>
                                        <polygon id="Fill-4" fill="url(#linearGradient-8)" points="9.52157963 26.6612236 9.62737916 63.4771145 47.1572426 41.8951691 47.051443 5.07802364"></polygon>
                                        <polygon id="Fill-6" fill="url(#linearGradient-9)" points="5.08480087 24.0925418 9.52208344 26.6618509 47.0519468 5.07865091 42.6134047 2.50934182"></polygon>
                                        <g id="编组-17" opacity="0.2" transform="translate(0.000000, 9.189295)" stroke="#343333" stroke-linecap="square" stroke-width="0.9056124">
                                            <line x1="10.0761455" y1="25.9377273" x2="47.5017208" y2="4.61045455" id="直线-3" opacity="0.1"></line>
                                            <line x1="8.8166273" y1="35.9740909" x2="47.0519468" y2="14.1884898" id="直线-3" opacity="0.1"></line>
                                            <line x1="8.81740178" y1="46.0091506" x2="47.0511724" y2="24.2820171" id="直线-3" opacity="0.1" transform="translate(27.934287, 35.145584) rotate(-1.000000) translate(-27.934287, -35.145584) "></line>
                                            <line x1="20.2943958" y1="32.1708344" x2="57.5725451" y2="10.8441416" id="直线-3" opacity="0.1" transform="translate(38.933470, 21.507488) rotate(-240.000000) translate(-38.933470, -21.507488) "></line>
                                            <line x1="11.2970798" y1="36.9142779" x2="46.1447014" y2="16.9521317" id="直线-3" opacity="0.1" transform="translate(28.720891, 26.933205) rotate(-240.000000) translate(-28.720891, -26.933205) "></line>
                                            <line x1="0.121593798" y1="45.1593166" x2="38.2049148" y2="23.4276976" id="直线-3" opacity="0.1" transform="translate(19.163254, 34.293507) rotate(-241.000000) translate(-19.163254, -34.293507) "></line>
                                        </g>
                                        <g id="编组-17" opacity="0.2" transform="translate(35.266509, 3.681567)" stroke="#343333" stroke-linecap="square" stroke-width="0.9056124">
                                            <line x1="11.0691243" y1="29.4993644" x2="45.3340051" y2="10.5805775" id="直线-3" opacity="0.1" transform="translate(28.201565, 20.039971) rotate(-300.000000) translate(-28.201565, -20.039971) "></line>
                                            <line x1="11.9960346" y1="38.5661887" x2="45.4849773" y2="18.7171471" id="直线-3" opacity="0.1" transform="translate(28.740506, 28.641668) rotate(-300.000000) translate(-28.740506, -28.641668) "></line>
                                            <line x1="11.9028385" y1="48.259862" x2="45.2983282" y2="28.033728" id="直线-3" opacity="0.1" transform="translate(28.600583, 38.146795) rotate(-300.000000) translate(-28.600583, -38.146795) "></line>
                                            <line x1="17.7753594" y1="47.7149253" x2="55.0535088" y2="26.3882326" id="直线-3" opacity="0.1" transform="translate(36.414434, 37.051579) rotate(-240.000000) translate(-36.414434, -37.051579) "></line>
                                            <line x1="8.93752701" y1="43.1943912" x2="47.0222362" y2="21.4093918" id="直线-3" opacity="0.1" transform="translate(27.979882, 32.301891) rotate(-240.000000) translate(-27.979882, -32.301891) "></line>
                                            <line x1="0.121593798" y1="38.1215893" x2="38.2049148" y2="16.3899703" id="直线-3" opacity="0.1" transform="translate(19.163254, 27.255780) rotate(-241.000000) translate(-19.163254, -27.255780) "></line>
                                        </g>
                                        <polygon id="Fill-1" fill="url(#linearGradient-10)" points="47.5189968 40.9985166 8.78728947 63.8789029 46.6535856 82.3985166 80.8803929 60.8101809"></polygon>
                                        <g id="油漆桶" filter="url(#filter-11)" transform="translate(51.000000, 46.000000)">
                                            <polygon id="矩形" fill="url(#linearGradient-12)" points="0.622049542 5.37200916 10.1251828 4.73783867 9.66000931 12.5880258 6.5376598 14.0528387 0.622049542 12.5880258"></polygon>
                                            <g id="油漆桶-(1)">
                                                <g id="矩形">
                                                    <mask id="mask-15" fill="white">
                                                        <use xlink:href="#path-14"></use>
                                                    </mask>
                                                    <use id="蒙版" fill="url(#linearGradient-13)" fill-rule="nonzero" xlink:href="#path-14"></use>
                                                    <rect fill="url(#linearGradient-16)" mask="url(#mask-15)" x="-2.08965517" y="-1.035" width="14.6275862" height="6.21" rx="3.105"></rect>
                                                    <rect fill="url(#linearGradient-17)" mask="url(#mask-15)" x="-1.04482759" y="11.385" width="12.537931" height="3.105"></rect>
                                                    <rect fill="#E4E4E4" mask="url(#mask-15)" x="9.40344828" y="4.14" width="2.08965517" height="8.28"></rect>
                                                    <rect fill="#FFFFFF" mask="url(#mask-15)" x="-1.04482759" y="4.14" width="2.08965517" height="7.245"></rect>
                                                </g>
                                            </g>
                                            <path d="M5.07672084,6.20488293 C7.54738804,6.20488293 9.66000931,5.6469666 9.66000931,4.76901515 C9.66000931,3.8910637 7.44059612,2.93534202 4.96992892,2.93534202 C2.58260489,2.93534202 0.857503234,3.73321346 0.744235403,4.57011247 C0.740281143,4.59932921 0.744235403,4.49539774 0.744235403,4.52501373 C0.744235403,5.40296518 2.60605363,6.20488293 5.07672084,6.20488293 Z" id="椭圆形" stroke="#FFFFFF" stroke-width="0.579591936" fill="url(#linearGradient-18)"></path>
                                        </g>
                                        <polygon id="Fill-5" fill="url(#linearGradient-19)" points="5.18908897 60.9088091 9.62637154 63.4781182 9.52183154 26.6609727 5.08454897 24.0929182"></polygon>
                                        <g id="编组" filter="url(#filter-20)" transform="translate(27.900000, 28.800000)">
                                            <g transform="translate(5.186251, 12.776400)">
                                                <path d="M2.77547427,6.15531273 C3.2380879,5.90200364 3.61564699,5.45134909 3.61460974,5.15582182 C4.34587119,5.55836727 5.07713263,5.96091273 5.80839407,6.36247636 C5.80839407,6.65702182 5.43394672,7.10767636 4.97029585,7.36098545 C4.24110891,6.95942182 3.51192197,6.55785818 2.78273503,6.15727636 C3.51192197,6.55785818 4.24110891,6.95942182 4.97029585,7.36098545 C4.97029585,7.36196727 4.9692586,7.36196727 4.96822135,7.36196727 C4.30956743,6.99967636 3.43309095,6.51760364 2.77547427,6.15531273" id="Fill-1" fill="#33E69F"></path>
                                                <polygon id="Fill-3" fill="#33E69F" points="3.13405169 8.36440364 0.941304621 7.15774909 2.7751631 6.15531273 4.96894742 7.36196727"></polygon>
                                                <path d="M0.941097171,7.15824 C1.35392278,7.38602182 1.76778564,7.61478545 2.18061124,7.84158545 C2.36835354,7.94467636 2.55609584,8.04776727 2.74280089,8.15085818 C2.82266916,8.19405818 2.92846869,8.25198545 3.00833696,8.29518545 C3.04567797,8.31678545 3.09027973,8.36489455 3.13384424,8.36489455 C2.82370641,8.53376727 2.55298409,8.57205818 2.4067318,8.49154909 L0.212947481,7.28587636 C0.359199769,7.36638545 0.63095934,7.32711273 0.941097171,7.15824" id="Fill-11" fill="#33E69F"></path>
                                                <path d="M4.95836747,4.12736727 L2.7656204,2.92071273 C2.97929395,2.80485818 3.17118525,2.74987636 3.32054929,2.74987636 C3.36100205,2.74987636 3.39834306,2.75478545 3.43153507,2.76264 L5.62531939,3.97027636 C5.59109014,3.96045818 5.55374913,3.95653091 5.51329637,3.95653091 C5.36496958,3.95554909 5.17204103,4.01151273 4.95836747,4.12736727" id="Fill-13" fill="#33E69F"></path>
                                                <path d="M2.39874498,8.48614909 L0.205997904,7.27949455 C0.19043915,7.27164 0.175917646,7.26182182 0.165545143,7.25004 C0.121980632,7.20880364 0.0981238756,7.15185818 0.0981238756,7.07724 L2.29087095,8.28389455 C2.29087095,8.35753091 2.31576495,8.41545818 2.35829222,8.45669455 C2.37073922,8.46749455 2.38318622,8.47731273 2.39874498,8.48614909" id="Fill-15" fill="#33E69F"></path>
                                                <path d="M0.213777281,7.28568 C0.141169762,7.24542545 0.0986425008,7.17571636 0.0986425008,7.07753455 L2.29138957,8.28418909 C2.29138957,8.38237091 2.33391683,8.45109818 2.40652435,8.49233455 C1.74787043,8.13004364 0.871393953,7.64797091 0.213777281,7.28568" id="Fill-17" fill="#ED6060"></path>
                                                <path d="M3.38226568,0.947061818 L5.57501276,2.15371636 C5.42149972,2.06928 5.19952816,2.08400727 4.95266259,2.21949818 L2.75887827,1.01284364 C3.00574384,0.878334545 3.22875264,0.862625455 3.38226568,0.947061818" id="Fill-19" fill="#FFE3BB"></path>
                                                <polygon id="Fill-21" fill="#33E69F" points="3.12399037 5.13029455 0.931243293 3.92364 2.76510177 2.92120364 4.9588861 4.12785818"></polygon>
                                                <polygon id="Fill-23" fill="#FFE3BB" points="4.62209093 2.39966182 2.42934386 1.19300727 2.75918945 1.01333455 4.95193652 2.21900727"></polygon>
                                                <polygon id="Fill-25" fill="#33E69F" points="2.29128585 8.28379636 0.0985387757 7.07714182 0.0912780238 4.90928727 2.28506235 6.11594182"></polygon>
                                                <polygon id="Fill-27" fill="#ED6060" points="2.29128585 8.28379636 0.0985387757 7.07714182 0.0912780238 4.90928727 2.2840251 6.11594182"></polygon>
                                                <polygon id="Fill-29" fill="#FEC2C2" points="2.2852698 6.11594182 0.0914854739 4.90928727 0.0873364728 3.31677818 2.28008355 4.52343273"></polygon>
                                                <path d="M2.28423255,6.11594182 L0.0914854739,4.90928727 C0.0914854739,4.83565091 0.11430498,4.75219636 0.156832241,4.66579636 C0.284414024,4.40757818 0.583142102,4.11401455 0.930620943,3.92452364 L3.12440527,5.13019636 C2.77692643,5.31968727 2.47819835,5.61325091 2.34957931,5.87245091 C2.30705205,5.95983273 2.28423255,6.04230545 2.28423255,6.11594182" id="Fill-31" fill="#ED6060"></path>
                                                <path d="M4.95235142,2.2194 C5.41600229,1.96510909 5.79459864,2.13398182 5.79563589,2.60230909 L5.80082214,4.19383636 C5.79978489,3.89830909 5.42222579,3.87474545 4.95857492,4.12707273 L3.12367919,5.13049091 C2.66106557,5.3838 2.28454372,5.81972727 2.28558097,6.11623636 L2.28038619,4.52372727 C2.27832022,4.0554 2.65484207,3.47514545 3.11745569,3.22183636 L3.44937578,3.04118182 L4.62250583,2.40005455 L4.95235142,2.2194 Z" id="Fill-33" fill="#FEC2C2"></path>
                                                <path d="M5.7343344,4.02290182 C5.77686166,4.06315636 5.80071842,4.12010182 5.80071842,4.19373818 L5.80697578,6.36257455 C5.80797917,6.43621091 5.78515966,6.51966545 5.7426324,6.60704727 C5.61505062,6.87017455 5.31632254,7.17159273 4.9688437,7.36108364 L3.13394797,8.36450182 C2.93064692,8.47544727 2.74601637,8.52748364 2.60080133,8.52944727 C2.56138582,8.52944727 2.52715656,8.52650182 2.49603905,8.51962909 C2.44002754,8.50784727 2.39127677,8.48919273 2.35808477,8.45679273 C2.3155575,8.41555636 2.29170075,8.35762909 2.29170075,8.28399273 L2.28444,6.11613818 C2.28444,6.04250182 2.3072595,5.96002909 2.34978676,5.87264727 C2.47736855,5.61344727 2.77609663,5.31988364 3.12357547,5.13039273 L4.9584712,4.12697455 C5.17214475,4.01112 5.3650733,3.95613818 5.51340009,3.95710708 C5.55385285,3.95710708 5.59119386,3.96104727 5.62542312,3.96988364 C5.63475837,3.97184727 5.64720537,3.97282909 5.65654063,3.97577455 C5.68662089,3.98755636 5.71255214,4.00326545 5.7343344,4.02290182" id="Fill-35" fill="#FF7474"></path>
                                                <polygon id="Fill-37" fill="#FFE3BB" points="3.44916833 3.04108364 1.25642125 1.83442909 2.42955131 1.19330182 4.62229838 2.39995636"></polygon>
                                                <polygon id="Fill-39" fill="#FFE3BB" points="3.11787059 3.22134545 0.925123517 2.01469091 1.25600635 1.83403636 3.44875343 3.04069091"></polygon>
                                                <path d="M2.28018727,4.52343273 L0.0874316665,3.31677818 C0.0853656973,2.84943273 0.461887546,2.26819636 0.924501166,2.01488727 L3.11828549,3.22154182 C2.65463462,3.47583273 2.27811277,4.05510545 2.28018727,4.52343273" id="Fill-41" fill="#FEC2C2"></path>
                                                <path d="" id="路径-4" stroke="#979797" stroke-width="1.01428589"></path>
                                            </g>
                                            <g transform="translate(0.000000, 0.012764)">
                                                <path d="M15.8099761,8.18217818 L13.617229,6.97552364 C13.8288281,6.85966909 14.5362327,6.05457818 14.5351955,5.78163273 L16.728981,6.98730545 C16.7300171,7.26221455 16.0215751,8.06632364 15.8099761,8.18217818" id="Fill-43" fill="#E4E4E4"></path>
                                                <polygon id="Fill-45" fill="#E4E4E4" points="16.7287724 6.98750182 14.5360253 5.78084727 14.5277273 3.18786545 16.7204744 4.39353818"></polygon>
                                                <path d="M14.4496223,3.06121091 L16.6423694,4.26786545 C16.6631144,4.27768364 16.6786732,4.29142909 16.6911202,4.30812 C16.7108279,4.33070182 16.7201632,4.35917455 16.7201632,4.39353818 L14.5274161,3.18786545 C14.5274161,3.15252 14.5170436,3.12306545 14.4983731,3.10048364 C14.4859261,3.08477455 14.4693301,3.07201091 14.4496223,3.06121091" id="Fill-47" fill="#808C9B"></path>
                                                <path d="M14.7798828,1.79653091 L16.9726299,3.00318545 C16.6707901,2.83824 16.2538155,2.86082182 15.7953509,3.11118545 L13.6015665,1.90453091 C14.0610684,1.65318545 14.478043,1.63060364 14.7798828,1.79653091" id="Fill-49" fill="#E4E4E4"></path>
                                                <polygon id="Fill-51" fill="#FEC2C2" points="4.07307436 9.48141818 1.88032729 8.27476364 12.0184114 2.73338182 14.2111585 3.94003636"></polygon>
                                                <polygon id="Fill-53" fill="#808C9B" points="15.3420725 4.62888 13.1493254 3.42222545 13.1451764 2.15371636 15.3379235 3.36135273"></polygon>
                                                <polygon id="Fill-55" fill="#E4E4E4" points="15.3380272 3.36135273 13.1452801 2.15469818 13.6016703 1.90531636 15.7944173 3.11098909"></polygon>
                                                <path d="M12.0186189,2.73328364 C12.628522,2.40044727 13.1108434,1.92819273 13.1108434,1.66801091 L15.3035905,2.87466545 L15.3035905,2.87662909 C14.5744036,2.47408364 13.8452166,2.07350182 13.1160297,1.67292 C13.8452166,2.07350182 14.5744036,2.47408364 15.3035905,2.87662909 C15.3025532,3.13582909 14.8202319,3.60808364 14.211366,3.93993818 C13.5537493,3.57764727 12.6772728,3.09557455 12.0186189,2.73328364" id="Fill-57" fill="#FEC2C2"></path>
                                                <polygon id="Fill-59" fill="#FF9613" points="15.3035905 2.87427273 13.1108434 1.66761818 13.1077317 0.678927273 15.3004787 1.8846"></polygon>
                                                <path d="M15.7948322,3.11108727 C16.7024262,2.61526909 17.4461347,3.00897818 17.4565072,3.99177818 L17.4637679,6.58574182 C17.4710287,7.05799636 17.2739511,7.62057818 16.9316585,8.10363273 C16.6339677,8.51894182 16.2439616,8.86846909 15.8135027,9.10410545 L9.80056291,12.3902509 L9.80886091,15.1629055 L8.63573086,15.8050145 L8.6243211,12.1094509 L15.810391,8.18217818 C16.02199,8.06632364 16.7293947,7.26221455 16.7283575,6.98730545 L16.7210967,4.39432364 C16.7210967,4.35897818 16.7107242,4.33050545 16.6910165,4.30792364 C16.6215207,4.22054182 16.4368901,4.21268727 16.2460361,4.24214182 C16.1806893,4.25196 16.1143053,4.26570545 16.051033,4.28239636 C15.9524943,4.30988727 15.8632907,4.34425091 15.7989812,4.37959636 L15.3415539,4.62897818 L15.3384421,3.36145091 L15.7948322,3.11108727 Z" id="Fill-61" fill="#FFFFFF"></path>
                                                <polygon id="Fill-63" fill="#E4E4E4" points="8.63541968 15.80472 6.44267261 14.5980655 6.43126285 10.9025018 8.62400993 12.1091564"></polygon>
                                                <polygon id="Fill-65" fill="#E4E4E4" points="8.62421738 12.1094509 6.4314703 10.9027964 13.6165029 6.97552364 15.8102873 8.18217818"></polygon>
                                                <path d="M12.8340013,0.297 L15.0277857,1.50365455 C15.1574419,1.57532727 15.252869,1.701 15.3005825,1.87183636 L13.1078354,0.665181818 C13.0601219,0.493363636 12.9646949,0.368672727 12.8340013,0.297" id="Fill-67" fill="#FFFFFF"></path>
                                                <polygon id="Fill-69" fill="#71EEBC" points="4.09942052 7.12171636 1.90667345 5.91506182 12.0447576 0.374661818 14.2375047 1.58131636"></polygon>
                                                <polygon id="Fill-71" fill="#FEC2C2" points="4.06602106 7.047 1.87223674 5.84034545 12.0113581 0.298963636 14.2041052 1.50561818"></polygon>
                                                <path d="M14.6200426,1.22719799 C14.460306,1.13981617 14.0682254,1.22719799 13.6025001,1.4814889 L11.6298124,0.490402168 C12.0945005,0.236111259 12.4876184,0.147747622 12.6463176,0.236111259 L14.6200426,1.22719799 Z" id="Fill-75" fill="#FEC2C2"></path>
                                                <path d="M3.31131776,13.1296582 L1.11857069,11.9230036 C0.930828393,11.8208945 0.815693613,11.6068582 0.814656363,11.3024945 L3.00740344,12.5081673 C3.00844069,12.8135127 3.12357547,13.0275491 3.31131776,13.1296582" id="Fill-77" fill="#ED6060"></path>
                                                <path d="M0.853968148,8.53504364 C1.01370469,8.62340727 1.41512054,8.52817091 1.87980867,8.27388 L4.07359299,9.48151636 C3.60890487,9.73482545 3.20748901,9.83006182 3.04671522,9.74169818 C2.3880613,9.37940727 1.51158482,8.89733455 0.853968148,8.53504364" id="Fill-79" fill="#FEC2C2"></path>
                                                <path d="M3.04795992,9.73836 L0.855212848,8.53170545 C0.838616844,8.52286909 0.82409534,8.51206909 0.814760088,8.49832364 L3.00750716,9.70497818 C3.01891691,9.71774182 3.03136392,9.72854182 3.04795992,9.73836" id="Fill-81" fill="#71EEBC"></path>
                                                <polygon id="Fill-83" fill="#ED6060" points="3.00750716 12.5083636 0.814760088 11.3017091 0.806462086 8.49469091 2.99920916 9.70134545"></polygon>
                                                <path d="M15.3004787,1.88479636 C15.322261,1.96628727 15.3336708,2.04679636 15.334708,2.13614182 L15.3378198,3.36145091 L15.3419688,4.62897818 L15.3450848,5.76592364 C15.3461178,6.16257818 15.1583755,6.61323273 14.8689826,6.97846909 C14.6947246,7.19741455 14.4841628,7.38494182 14.2559677,7.50963273 L4.11684633,13.0500327 C3.88865127,13.1747236 3.67497771,13.2198873 3.49864516,13.1933782 C3.20406609,13.1472327 3.00802579,12.9057055 3.00698854,12.5080691 L2.99972778,9.70105091 C3.10967631,9.85028727 3.55154493,9.76585091 4.07328181,9.48112364 L14.211366,3.94072364 C14.8212691,3.60690545 15.3046277,3.13366909 15.3035905,2.87446909 L15.3004787,1.88479636 Z" id="Fill-85" fill="url(#linearGradient-21)"></path>
                                                <path d="M2.99630486,8.87926909 L0.803551285,7.67261455 C0.801483284,7.03836 1.29625166,6.24799636 1.90615482,5.91516 L4.0989019,7.12181455 C3.49003599,7.45563273 2.99423036,8.24501455 2.99630486,8.87926909" id="Fill-87" fill="#71EEBC"></path>
                                                <polygon id="Fill-91" fill="#71EEBC" points="3.00750716 9.70478182 0.814760088 8.49812727 0.803350335 7.67241818 2.99609741 8.87907273"></polygon>
                                                <path d="M2.99941661,9.69810545 L0.806669536,8.49145091 C0.790073531,8.46886909 0.780738279,8.44334182 0.780738279,8.41192364 L2.9745226,9.61857818 C2.97555985,9.64999636 2.9828206,9.67650545 2.99941661,9.69810545" id="Fill-93" fill="#FFFFFF"></path>
                                                <path d="M14.0672919,1.21784296 C14.5828053,0.936061145 15.0419844,1.21784296 15.3035905,1.6902031 L15.4187318,2.40797446 C15.4187318,2.56997446 15.2309895,2.815429 14.9405594,3.05891991 C14.7663013,3.20521082 14.5557395,3.34855627 14.3275445,3.474229 L4.18842308,9.01561082 C4.06810205,9.08041082 4.07740458,9.16772093 3.9684933,9.21190275 C3.9539718,9.21681184 3.85857749,9.34599866 3.84405599,9.35090775 C3.74240546,9.39018048 3.64506608,9.46374545 3.56001156,9.48141818 C3.54341555,9.48534545 3.32687652,9.70183636 3.31131776,9.70478182 C3.23144949,9.71950909 3.15884198,9.7254 3.10179321,9.71950909 C3.09349521,9.71852727 3.1200553,9.65470909 3.1117573,9.65372727 C3.05782028,9.64390909 2.98354668,9.68514545 2.95865267,9.65372727 L2.84092961,8.27388 C2.83888825,7.63864364 3.60548843,6.98913809 4.21539159,6.65630173 L14.0672919,1.21784296 Z" id="Fill-95" fill="#FEC2C2"></path>
                                                <polygon id="Fill-97" fill="#FEC2C2" points="3.04795992 9.87433898 0.781256904 8.54657715 0.775033402 6.91651636 2.9679863 7.92137063"></polygon>
                                                <path d="M2.96798793,8.12277818 L0.775239228,6.91612364 C0.774203602,6.65692364 1.27000923,6.16994182 1.87161439,5.84005091 L4.06643596,7.04670545 C3.46379355,7.37561455 2.96695067,7.86357818 2.96798793,8.12277818" id="Fill-99" fill="#FEC2C2"></path>
                                            </g>
                                        </g>
                                    </g>
                                </g>
                            </g>
                        </g>
                    </g>
                    <g id="编组-15备份" transform="translate(3.000000, 52.000000)">
                        <rect id="矩形" fill="#FFFFFF" x="0" y="0" width="60" height="20" rx="10"></rect>
                        <text id="装修房源" font-family="PingFangSC-Medium, PingFang SC" font-size="11" font-weight="400" line-spacing="11" fill="#06AAFD">
                            <tspan x="8" y="17">装修房源</tspan>
                        </text>
                    </g>
                </g>
            </g>
        </g>
    </g>
</svg>
