<?xml version="1.0" encoding="UTF-8"?>
<svg width="80px" height="80px" viewBox="0 0 80 80" version="1.1" xmlns="http://www.w3.org/2000/svg" xmlns:xlink="http://www.w3.org/1999/xlink">
    <!-- Generator: Sketch 63 (92445) - https://sketch.com -->
    <title>一键家装按钮备份</title>
    <desc>Created with Sketch.</desc>
    <defs>
        <filter x="-21.2%" y="-19.4%" width="142.4%" height="136.1%" filterUnits="objectBoundingBox" id="filter-1">
            <feOffset dx="0" dy="2" in="SourceAlpha" result="shadowOffsetOuter1"></feOffset>
            <feGaussianBlur stdDeviation="2" in="shadowOffsetOuter1" result="shadowBlurOuter1"></feGaussianBlur>
            <feColorMatrix values="0 0 0 0 0   0 0 0 0 0   0 0 0 0 0  0 0 0 0.3 0" type="matrix" in="shadowBlurOuter1" result="shadowMatrixOuter1"></feColorMatrix>
            <feMerge>
                <feMergeNode in="shadowMatrixOuter1"></feMergeNode>
                <feMergeNode in="SourceGraphic"></feMergeNode>
            </feMerge>
        </filter>
        <linearGradient x1="50%" y1="0%" x2="50%" y2="100%" id="linearGradient-2">
            <stop stop-color="#7DC9FF" offset="0%"></stop>
            <stop stop-color="#3B97FB" offset="100%"></stop>
        </linearGradient>
        <circle id="path-3" cx="33" cy="33" r="33"></circle>
        <linearGradient x1="40.6044881%" y1="22.5233306%" x2="40.6044881%" y2="80.7636956%" id="linearGradient-5">
            <stop stop-color="#F8F8F8" offset="0%"></stop>
            <stop stop-color="#E0E0E0" offset="100%"></stop>
        </linearGradient>
        <linearGradient x1="50%" y1="0%" x2="50%" y2="100%" id="linearGradient-6">
            <stop stop-color="#C9CDD3" offset="0%"></stop>
            <stop stop-color="#999EA7" offset="100%"></stop>
        </linearGradient>
        <linearGradient x1="6.2447312%" y1="35.0066757%" x2="94.1813833%" y2="66.5588634%" id="linearGradient-7">
            <stop stop-color="#F0F0F0" offset="0%"></stop>
            <stop stop-color="#DCDCDC" offset="100%"></stop>
        </linearGradient>
        <linearGradient x1="61.7068392%" y1="0%" x2="61.7068392%" y2="77.3419699%" id="linearGradient-8">
            <stop stop-color="#FFFFFF" offset="0%"></stop>
            <stop stop-color="#CFCFCF" offset="100%"></stop>
        </linearGradient>
        <linearGradient x1="96.1721612%" y1="33.4394162%" x2="6.91426295%" y2="64.56672%" id="linearGradient-9">
            <stop stop-color="#EFEFEF" offset="0%"></stop>
            <stop stop-color="#E5E5E5" offset="100%"></stop>
        </linearGradient>
        <linearGradient x1="81.6081564%" y1="31.0634276%" x2="28.660463%" y2="64.8965483%" id="linearGradient-10">
            <stop stop-color="#FEC2C2" offset="0%"></stop>
            <stop stop-color="#FF7474" offset="100%"></stop>
        </linearGradient>
        <linearGradient x1="50%" y1="1.1217272%" x2="50%" y2="73.062203%" id="linearGradient-11">
            <stop stop-color="#FFC9B6" offset="0%"></stop>
            <stop stop-color="#FCE6CC" offset="100%"></stop>
        </linearGradient>
        <linearGradient x1="47.7246673%" y1="40.9822083%" x2="60.0059726%" y2="74.0331077%" id="linearGradient-12">
            <stop stop-color="#FFFFFF" offset="0%"></stop>
            <stop stop-color="#E9E9E9" offset="100%"></stop>
        </linearGradient>
        <linearGradient x1="60.1902955%" y1="110.508808%" x2="46.2057576%" y2="50%" id="linearGradient-13">
            <stop stop-color="#E7E7E7" offset="0%"></stop>
            <stop stop-color="#FFFFFF" offset="100%"></stop>
        </linearGradient>
        <linearGradient x1="50%" y1="0%" x2="50%" y2="99.3111275%" id="linearGradient-14">
            <stop stop-color="#5CCAFC" offset="0%"></stop>
            <stop stop-color="#007FFD" offset="100%"></stop>
        </linearGradient>
        <text id="text-15" font-family="PingFangSC-Semibold, PingFang SC" font-size="11" font-weight="500" line-spacing="11" fill="#FFFFFF">
            <tspan x="8" y="17">装修效果</tspan>
        </text>
        <filter x="-1.1%" y="-13.6%" width="102.3%" height="127.3%" filterUnits="objectBoundingBox" id="filter-16">
            <feOffset dx="0" dy="1" in="SourceAlpha" result="shadowOffsetOuter1"></feOffset>
            <feColorMatrix values="0 0 0 0 0   0 0 0 0 0.417883832   0 0 0 0 0.700662364  0 0 0 1 0" type="matrix" in="shadowOffsetOuter1"></feColorMatrix>
        </filter>
    </defs>
    <g id="页面-1" stroke="none" stroke-width="1" fill="none" fill-rule="evenodd">
        <g id="看房首页-装修成功" transform="translate(-287.000000, -561.000000)">
            <g id="一键家装按钮备份-2" transform="translate(287.000000, 561.000000)">
                <g id="一键家装按钮备份" filter="url(#filter-1)" transform="translate(7.000000, 4.000000)">
                    <g id="编组-18">
                        <mask id="mask-4" fill="white">
                            <use xlink:href="#path-3"></use>
                        </mask>
                        <circle stroke="#FFFFFF" stroke-width="2" cx="33" cy="33" r="34"></circle>
                        <g mask="url(#mask-4)">
                            <g transform="translate(-13.000000, -10.000000)">
                                <g>
                                    <circle id="蒙版" stroke="#FFFFFF" stroke-width="1.8" fill="url(#linearGradient-2)" cx="47.7" cy="39.6" r="30.6"></circle>
                                    <g>
                                        <polygon id="Fill-1" fill="url(#linearGradient-5)" points="80.5028606 24.1515055 80.3983206 60.9673964 42.8671977 39.3841964 42.9729972 2.56830545"></polygon>
                                        <polygon id="Fill-2" fill="url(#linearGradient-6)" points="80.5032384 24.1512545 80.3974389 60.9671455 84.835981 58.3990909 84.940521 21.9746182 84.940521 21.5832"></polygon>
                                        <polygon id="Fill-3" fill="url(#linearGradient-7)" points="47.4110355 0 42.9737529 2.56930909 80.5036163 24.1512545 84.9408989 21.5832 84.9408989 21.5819455"></polygon>
                                        <polygon id="Fill-4" fill="url(#linearGradient-8)" points="9.52157963 26.6612236 9.62737916 63.4771145 47.1572426 41.8951691 47.051443 5.07802364"></polygon>
                                        <polygon id="Fill-6" fill="url(#linearGradient-9)" points="5.08480087 24.0925418 9.52208344 26.6618509 47.0519468 5.07865091 42.6134047 2.50934182"></polygon>
                                        <polygon id="Fill-4" fill="url(#linearGradient-10)" points="9.64724766 26.6618509 9.64724766 63.4771145 47.07649 42.081737 46.036393 3.42578061"></polygon>
                                        <g id="编组-17" opacity="0.2" transform="translate(0.000000, 9.189295)" stroke="#343333" stroke-linecap="square" stroke-width="0.9056124">
                                            <line x1="10.0761455" y1="25.9377273" x2="47.5017208" y2="4.61045455" id="直线-3" opacity="0.1"></line>
                                            <line x1="8.8166273" y1="35.9740909" x2="47.0519468" y2="14.1884898" id="直线-3" opacity="0.1"></line>
                                            <line x1="8.81740178" y1="46.0091506" x2="47.0511724" y2="24.2820171" id="直线-3" opacity="0.1" transform="translate(27.934287, 35.145584) rotate(-1.000000) translate(-27.934287, -35.145584) "></line>
                                            <line x1="20.2943958" y1="32.1708344" x2="57.5725451" y2="10.8441416" id="直线-3" opacity="0.1" transform="translate(38.933470, 21.507488) rotate(-240.000000) translate(-38.933470, -21.507488) "></line>
                                            <line x1="11.2970798" y1="36.9142779" x2="46.1447014" y2="16.9521317" id="直线-3" opacity="0.1" transform="translate(28.720891, 26.933205) rotate(-240.000000) translate(-28.720891, -26.933205) "></line>
                                            <line x1="0.121593798" y1="45.1593166" x2="38.2049148" y2="23.4276976" id="直线-3" opacity="0.1" transform="translate(19.163254, 34.293507) rotate(-241.000000) translate(-19.163254, -34.293507) "></line>
                                        </g>
                                        <g id="编组-17" opacity="0.2" transform="translate(35.266509, 3.681567)" stroke="#343333" stroke-linecap="square" stroke-width="0.9056124">
                                            <line x1="11.0691243" y1="29.4993644" x2="45.3340051" y2="10.5805775" id="直线-3" opacity="0.1" transform="translate(28.201565, 20.039971) rotate(-300.000000) translate(-28.201565, -20.039971) "></line>
                                            <line x1="11.9960346" y1="38.5661887" x2="45.4849773" y2="18.7171471" id="直线-3" opacity="0.1" transform="translate(28.740506, 28.641668) rotate(-300.000000) translate(-28.740506, -28.641668) "></line>
                                            <line x1="11.9028385" y1="48.259862" x2="45.2983282" y2="28.033728" id="直线-3" opacity="0.1" transform="translate(28.600583, 38.146795) rotate(-300.000000) translate(-28.600583, -38.146795) "></line>
                                            <line x1="17.7753594" y1="47.7149253" x2="55.0535088" y2="26.3882326" id="直线-3" opacity="0.1" transform="translate(36.414434, 37.051579) rotate(-240.000000) translate(-36.414434, -37.051579) "></line>
                                            <line x1="8.93752701" y1="43.1943912" x2="47.0222362" y2="21.4093918" id="直线-3" opacity="0.1" transform="translate(27.979882, 32.301891) rotate(-240.000000) translate(-27.979882, -32.301891) "></line>
                                            <line x1="0.121593798" y1="38.1215893" x2="38.2049148" y2="16.3899703" id="直线-3" opacity="0.1" transform="translate(19.163254, 27.255780) rotate(-241.000000) translate(-19.163254, -27.255780) "></line>
                                        </g>
                                        <polygon id="Fill-1" fill="url(#linearGradient-11)" points="47.5189968 40.9985166 8.78728947 63.8789029 46.6535856 82.3985166 80.8803929 60.8101809"></polygon>
                                        <path d="M40.934341,52.4980959 L40.934341,58.3556839 C43.044324,60.8778223 45.5299497,60.8778223 48.3912181,58.3556839" id="路径-5"></path>
                                    </g>
                                    <g id="椅子-01" transform="translate(44.000000, 47.500000) scale(-1, 1) rotate(4.000000) translate(-44.000000, -47.500000) translate(35.000000, 35.000000)" fill-rule="nonzero">
                                        <path d="M1.75666293,22.1440973 C1.91748508,22.1440973 2.07830724,22.0142283 2.10511093,21.7869576 L3.44529555,13.4428756 L2.48036262,13.4428756 L1.43501862,21.6570886 C1.38141124,21.9168265 1.54223339,22.1440973 1.75666293,22.1440973 L1.75666293,22.1440973 Z M7.01366032,21.8993961 C6.85283816,21.8993961 6.69201601,21.7695271 6.66521232,21.5422564 L5.3250277,13.1981744 L6.28996062,13.1981744 L7.33530463,21.4123874 C7.38891201,21.6721254 7.22808986,21.8993961 7.01366032,21.8993961 L7.01366032,21.8993961 Z M9.13726533,24.1597755 C9.29808749,24.1597755 9.45890964,24.0299065 9.48571333,23.8026358 L10.825898,15.4585538 L9.86096503,15.4585538 L8.81562102,23.6727668 C8.76201364,23.9325048 8.92283579,24.1597755 9.13726533,24.1597755 Z M15.0901586,23.1785254 C14.9293364,23.1785254 14.7685142,23.0486564 14.7417106,22.8213857 L13.4015259,14.4773036 L14.3664589,14.4773036 L15.4118029,22.6915167 C15.4654102,22.9512546 15.3045881,23.1785254 15.0901586,23.1785254 Z" id="形状" fill="#7DB2DA"></path>
                                        <path d="M6.29121839,8.36958188 C6.29121839,10.424287 4.97667288,12.0687825 3.3492096,12.0687825 L3.18424305,12.0803181 C2.41406566,12.0803181 1.63645375,13.6190675 1.2355162,14.9976977 C1.04596577,15.6494699 0.775057459,17.2630817 0.840400284,18.3205129 L1.42900813,18.5310184 C1.40973686,17.6601151 1.60226606,16.743882 2.00659576,15.7823192 C2.41092545,14.8207563 4.02952539,15.6550218 6.86239559,18.2851158 C8.85973689,18.2851158 10.8353526,14.9926827 10.8353526,12.4779689 C10.6753981,5.01606682 10.5460131,1.28511577 10.4471975,1.28511577 C8.40610241,1.56178109 6.29121839,5.70592183 6.29121839,8.36958188 Z" id="路径" fill="url(#linearGradient-12)"></path>
                                        <path d="M4.30548718,14.7931467 L10.9218569,11.8591204 L11.1143785,10.275372 L3.91442209,14.2624259 C2.68342585,14.2624259 1.24743896,14.543333 1.24743896,15.9843768 L1.02398003,18.4302324 L1.40171182,18.5241128 L1.65715023,16.4844226 C2.06700013,14.8491536 2.76674188,14.7931467 4.30548718,14.7931467 Z" id="路径" fill="#4FAAF7"></path>
                                        <path d="M9.8305944,14.9063271 L5.68244194,14.5088859 L8.95938466,11.0544418 L9.98116757,0.906327063 L16.4308759,4.22902814 L16.6824419,8.50212728 C16.6824419,11.95387 13.7752548,14.9063271 9.8305944,14.9063271 Z" id="路径" fill="#4FAAF7"></path>
                                        <path d="M9.30119428,11.1658654 C5.96838964,13.4390911 3.89480368,14.575704 3.08043639,14.575704 C1.85888547,14.575704 1.25023753,16.6753012 1.25023753,18.1772683 L1.41781246,18.6107672 C4.67939017,20.222987 7.00366854,21.2690316 8.3906476,21.7489009 C9.30663229,20.5285939 14.7954486,14.9102378 14.2015685,14.5104339 C12.4085363,13.3033533 10.7750782,12.1884971 9.30119428,11.1658654 Z" id="路径" fill="#98D2FE"></path>
                                        <path d="M12.0970134,10.2507499 L12.0970134,11.3868116 C12.0970134,13.1224615 11.9821651,15.325786 10.4447304,15.325786 C9.15887604,15.325786 8.0636666,15.5096426 8.0636666,16.9928343 L8.36286264,21.8231729 L12.9402794,18.4439319 C15.8228076,16.4715978 17.2337321,16.3602163 17.0473267,13.3508133 L17.0162694,4.82317287 C14.6681875,4.82317287 12.0970134,7.59993922 12.0970134,10.2507499 Z" id="路径" fill="url(#linearGradient-13)"></path>
                                    </g>
                                    <g id="图片" transform="translate(57.000000, 23.000000)" fill-rule="nonzero">
                                        <path d="M14.2017578,7.5265625 C14.1997759,7.45604977 14.1923976,7.38579232 14.1796875,7.31640625 C14.1579312,7.20133805 14.1241523,7.08887245 14.0789063,6.98085938 C14.0559896,6.92552083 14.030599,6.87135417 14.0027344,6.81835938 C13.9789063,6.77285156 13.9533203,6.72832031 13.9263672,6.68457031 C13.8744045,6.60059126 13.8162345,6.52061566 13.7523438,6.4453125 C13.6974524,6.37997036 13.6377128,6.31885966 13.5736328,6.2625 C13.5079263,6.20621161 13.4376294,6.15551427 13.3634766,6.1109375 C13.3353516,6.09361979 13.3068359,6.0766276 13.2779297,6.05996094 L13.1583984,5.99101563 L12.6857422,5.71757813 L12.4380859,5.57460938 L12.2292969,5.45410156 L11.7925781,5.20117188 L11.5728516,5.07421875 L11.1052734,4.8046875 L10.8408203,4.65195313 L10.61875,4.52382812 C7.28515625,2.59765625 2.875,0.0541015625 2.78085937,0.0267578125 C2.66816406,-0.0060546875 2.54394531,-0.0123046875 2.43339844,0.0322265625 C1.79121094,0.290625 0.403515625,1.20703125 0.286328125,1.27519531 L0.287890625,1.27519531 C0.135351562,1.36308594 0.040234375,1.55019531 0.039453125,1.81601563 L0.0164014299,9.93652344 C0.01484375,10.4699219 0.393359375,11.1255859 0.857617187,11.3935547 L11.2367187,17.3851563 C11.4824219,17.5269531 11.7054687,17.5328125 11.8597656,17.4279297 C11.8521484,17.4330078 11.8445312,17.4380859 11.8365234,17.4425781 C12.5171875,17.0470703 14.0763672,16.0923828 14.1070312,16.0302734 C14.1796875,15.884375 14.1796875,15.7248047 14.1796875,15.5664063 C14.1796875,14.3450521 14.1830729,13.123763 14.1898437,11.9025391 L14.1921875,11.3275391 L14.1945313,10.7476562 C14.1953125,10.5561198 14.1960286,10.3646484 14.1966797,10.1732422 C14.1983724,9.83639323 14.1992188,9.49954427 14.1992188,9.16269531 C14.2,8.84029948 14.2005208,8.51796875 14.2007813,8.19570312 L14.2007813,7.7921875 C14.2019531,7.70351563 14.2042969,7.61484375 14.2017578,7.5265625 Z" id="路径" fill="#DEE8FF"></path>
                                        <g id="编组-3" transform="translate(0.286328, 0.000488)" fill="#75C0FF">
                                            <path d="M2.49453125,0.0262702707 C2.38183594,-0.00654222932 2.25761719,-0.0127922293 2.14707031,0.0317390207 C1.50488281,0.290137458 0.1171875,1.20654371 -2.73558953e-13,1.27470777 C0.141601562,1.19248121 0.3125,1.20927808 0.460546875,1.26552808 C0.516992187,1.28701246 6.20585937,4.53935621 9.33964844,6.3782234 L10.3324219,4.52275465 C6.99882812,2.59716871 2.58867187,0.0536140207 2.49453125,0.0262702707 Z" id="路径"></path>
                                            <path d="M10.2046875,4.44892652 L9.2671875,6.3360359 C9.34238281,6.38017652 9.5015625,6.4704109 9.5734375,6.51279371 L10.5552734,4.65087965 L10.2046875,4.44892652 Z" id="路径"></path>
                                            <path d="M10.4585937,4.59560621 L9.47089844,6.45419996 C9.56113281,6.50732496 9.78242187,6.63310621 9.86757812,6.68330152 L10.8189453,4.80419996 L10.4585937,4.59560621 Z" id="路径"></path>
                                            <path d="M10.7011719,4.73564527 L9.75546875,6.61826246 C9.92089844,6.71591871 10.1476563,6.84287183 10.2917969,6.92783277 L11.2865234,5.0735359 L10.7011719,4.73564527 Z" id="路径"></path>
                                            <path d="M11.1628906,5.00224683 L10.2144531,6.88330152 C10.2904297,6.9282234 10.4039063,6.99169996 10.4732422,7.03271558 L11.50625,5.20068433 L11.1628906,5.00224683 Z" id="路径"></path>
                                            <path d="M11.4025391,5.1407234 L10.4310547,7.00830152 C10.5960937,7.10595777 10.7791016,7.20654371 10.9021484,7.28037183 L11.9429687,5.45283277 L11.4025391,5.1407234 Z" id="路径"></path>
                                            <path d="M11.8335937,5.39013746 L10.8855469,7.27099683 C10.9636719,7.31787183 11.0458984,7.36162183 11.1099609,7.41240308 L12.1513672,5.5735359 L11.8335937,5.39013746 Z" id="路径"></path>
                                            <path d="M12.0332031,5.50498121 L11.0890625,7.39658277 C11.2226562,7.4844734 11.3523437,7.64130933 11.3820312,7.67744215 L12.3976562,5.71650465 L12.0332031,5.50498121 Z" id="路径"></path>
                                            <path d="M12.2626953,5.6375984 L11.3177734,7.60419996 C11.3197071,7.60562842 11.3215348,7.60719502 11.3232422,7.60888746 C11.4374675,7.73489485 11.5352527,7.87487863 11.6142578,8.02548902 C11.6289062,8.05361402 11.6855469,8.18037183 11.6988281,8.20908277 L12.871875,5.98955152 L12.2626953,5.6375984 Z" id="路径"></path>
                                            <path d="M12.9914063,6.05849683 L12.7375,5.91220777 L11.65625,8.11084058 C11.7138894,8.2368474 11.7585848,8.36838142 11.7896484,8.50341871 L13.0771484,6.1094734 C13.0483724,6.09215569 13.0197917,6.0751635 12.9914063,6.05849683 Z" id="路径"></path>
                                            <path d="M13.2878906,6.2610359 C13.1881697,6.18111514 13.0822351,6.1092729 12.9710937,6.04619215 L11.7644531,8.4000984 C11.7759766,8.44130933 11.7859375,8.48310621 11.7941406,8.5250984 C11.8302734,8.70986402 11.8197266,8.89873121 11.8191406,9.08584058 L11.8191406,9.63779371 L13.4660156,6.44482496 C13.4113493,6.37916757 13.3518052,6.31773003 13.2878906,6.2610359 L13.2878906,6.2610359 Z" id="路径"></path>
                                            <path d="M13.3513672,6.32021558 L11.8185547,9.3188484 C11.8185547,9.4907234 11.8175781,9.99775465 11.8169922,10.187989 L13.6394531,6.68388746 C13.5873047,6.59990308 13.4419922,6.40048902 13.3513672,6.32021558 Z" id="路径"></path>
                                            <path d="M13.7154297,6.81767652 C13.6916016,6.77216871 13.6080078,6.6250984 13.5632812,6.57236402 L11.8169922,9.86279371 C11.8169922,10.0444343 11.8160156,10.5315437 11.8154297,10.7262703 L13.7916016,6.98037183 C13.7682943,6.92490308 13.7429036,6.87067131 13.7154297,6.81767652 L13.7154297,6.81767652 Z" id="路径"></path>
                                            <path d="M13.7359375,6.85810621 L11.8154297,10.4292 C11.8154297,10.5967781 11.8154297,11.0571296 11.8140625,11.231739 L13.8933594,7.31591871 C13.8710937,7.20087965 13.8033203,6.97841871 13.7359375,6.85810621 Z" id="路径"></path>
                                            <path d="M13.9154297,7.79150465 C13.9154297,7.70302808 13.9179687,7.61455152 13.9154297,7.52607496 C13.9132812,7.45537183 13.8958984,7.26318433 13.8585937,7.17646558 L11.8138672,10.9426765 C11.8138672,11.2436531 11.8121094,11.8561531 11.8113281,12.1686531 L13.9150391,8.41064527 C13.9150391,8.27607496 13.9154297,7.92607496 13.9154297,7.79150465 Z" id="路径"></path>
                                            <path d="M13.9150391,8.19502027 L11.8113281,11.8668953 C11.8113281,12.1889656 11.8095703,12.809864 11.8085938,13.1315437 L13.9128906,9.46533277 C13.9142578,9.14306715 13.9146484,8.51748121 13.9150391,8.19502027 L13.9150391,8.19502027 Z" id="路径"></path>
                                            <path d="M13.9128906,9.16220777 L11.8085937,12.8350593 C11.8085937,13.1782234 11.8066406,13.8092781 11.8056641,14.1366218 L13.9103516,10.459864 C13.9115234,10.1231453 13.9128906,9.49873121 13.9128906,9.16220777 L13.9128906,9.16220777 Z" id="路径"></path>
                                            <path d="M13.9103516,10.1721687 L11.8056641,13.8440437 C11.8056641,14.0393562 11.8044922,14.5051765 11.8041016,14.6909187 L13.9082031,11.0458015 C13.9089844,10.8542 13.9097656,10.363575 13.9103516,10.1721687 Z" id="路径"></path>
                                            <path d="M13.9082031,10.7465828 L11.8035156,14.4182625 C11.8035156,14.6186531 11.8023437,15.0653328 11.8019531,15.2499031 L13.9058594,11.5731453 C13.9066406,11.3797859 13.9074219,10.9397468 13.9082031,10.7465828 Z" id="路径"></path>
                                            <path d="M13.9058594,11.3262703 L11.8023437,14.9967781 C11.8023437,15.1999031 11.8011719,15.6672859 11.8007812,15.8456062 L13.9035156,12.226075 C13.9042969,12.0340828 13.9050781,11.5180671 13.9058594,11.3262703 Z" id="路径"></path>
                                            <path d="M13.8207031,16.0297859 C13.8933594,15.8838875 13.8933594,15.7243171 13.8933594,15.5659187 C13.8933594,14.3445645 13.8967448,13.1232755 13.9035156,11.9020515 L11.8007812,15.5704109 C11.7986328,16.3370125 11.7970703,16.84795 11.7970703,16.8762703 C11.7984384,16.9555797 11.7904403,17.0347734 11.7732422,17.1122078 C11.7412109,17.2446296 11.6708984,17.3719734 11.5501953,17.4420906 C12.2308594,17.0465828 13.7900391,16.0918953 13.8207031,16.0297859 L13.8207031,16.0297859 Z" id="路径"></path>
                                        </g>
                                        <path d="M11.2652344,7.32421875 C11.7294922,7.5921875 12.1080078,8.24785156 12.1064501,8.78125 L12.0833984,16.9017578 C12.0818359,17.4351562 11.7009766,17.6523437 11.2367187,17.3841797 L0.857617187,11.3927734 C0.393359375,11.1248047 0.01484375,10.4691406 0.0164014299,9.93574219 L0.0390625,1.81523437 C0.040625,1.28183594 0.421484375,1.06484375 0.885742187,1.3328125 L11.2652344,7.32421875 Z" id="路径" fill="#FFF9F9"></path>
                                        <path d="M3.80234375,6.80195313 C3.79375,6.51367188 3.72089844,6.22636719 3.61035156,5.9609375 C3.50710731,5.71163248 3.37256352,5.47647619 3.20996094,5.26113281 C3.19394531,5.24003906 3.17792969,5.21875 3.16113281,5.19804688 C3.1515625,5.18613281 3.14160156,5.17421875 3.13203125,5.16230469 C3.10872396,5.13417969 3.08489583,5.10644531 3.06054688,5.07910156 C2.99371496,5.00399664 2.92256586,4.93284754 2.84746094,4.86601563 C2.82141927,4.84296875 2.79492187,4.82050781 2.76796875,4.79863281 C2.74557292,4.78053385 2.72285156,4.76289063 2.69980469,4.74570313 C2.65709635,4.71393229 2.61321615,4.68385417 2.56816406,4.65546875 C2.54863281,4.64277344 2.52773437,4.63046875 2.50722656,4.61855469 L2.48769531,4.60722656 C2.43408529,4.57704559 2.37871232,4.55010915 2.321875,4.5265625 C2.2984375,4.51699219 2.27460937,4.50820313 2.25039062,4.49980469 C2.22617187,4.49140625 2.20078125,4.48339844 2.17578125,4.47636719 C2.15078125,4.46933594 2.12617187,4.4640625 2.10117187,4.45917969 C2.02789339,4.44423036 1.95296791,4.43897704 1.87832031,4.44355469 C1.86367187,4.44453125 1.84921875,4.44609375 1.83457031,4.44804688 C1.80826505,4.45140059 1.78217874,4.45629178 1.75644531,4.46269531 C1.74277344,4.46621094 1.72910156,4.46972656 1.715625,4.47402344 C1.67171643,4.48871359 1.62927883,4.50748029 1.58886719,4.53007813 C1.56445312,4.54335938 1.54023437,4.55742188 1.51582031,4.57148438 L1.5078125,4.57617188 L1.32050781,4.68515625 L1.30800781,4.69238281 L1.31113281,4.690625 C1.07675781,4.82519531 0.930859375,5.11367188 0.929680408,5.52460938 C0.92734375,6.34804688 1.50625,7.35078125 2.22285156,7.76445313 C2.58769531,7.975 2.91757812,7.9921875 3.15410156,7.84980469 L3.14609375,7.85488281 L3.21054687,7.81738281 L3.41308594,7.70019531 C3.59765625,7.59296875 3.70898437,7.41210938 3.76210937,7.20878906 C3.7947767,7.07577653 3.80832431,6.93878777 3.80234375,6.80195313 L3.80234375,6.80195313 Z" id="路径" fill="#FFC2B6"></path>
                                        <path d="M1.50761719,4.57617187 L1.3203125,4.68515625 L1.3078125,4.69238281 C1.37875991,4.65151202 1.45684497,4.62453356 1.53789063,4.61289063 L1.54101562,4.55683594 L1.50761719,4.57617187 Z" id="路径" fill="#FFA58D"></path>
                                        <path d="M1.51542969,4.57148437 L1.51542969,4.61660156 C1.55423353,4.61043879 1.59336139,4.60652601 1.63261719,4.60488281 L1.62324219,4.51152344 C1.59355469,4.52578125 1.53789063,4.55761719 1.51542969,4.57148437 L1.51542969,4.57148437 Z" id="路径" fill="#FFA48B"></path>
                                        <path d="M1.71523438,4.47421875 C1.6713258,4.4889089 1.62888821,4.5076756 1.58847656,4.53027344 L1.58847656,4.60839844 C1.65322938,4.60542387 1.71811811,4.60803771 1.78242188,4.61621094 L1.7921875,4.45566406 C1.76624321,4.4605624 1.7405601,4.46675503 1.71523437,4.47421875 L1.71523438,4.47421875 Z" id="路径" fill="#FFA28A"></path>
                                        <path d="M1.75605469,4.46289062 L1.75605469,4.61230469 C1.78203125,4.615625 1.84003906,4.6265625 1.86582031,4.63183594 L1.86113281,4.44511719 C1.82575586,4.44873796 1.79065448,4.45467518 1.75605469,4.46289062 L1.75605469,4.46289062 Z" id="路径" fill="#FFA088"></path>
                                        <path d="M1.83398438,4.44824219 L1.83398438,4.62519531 C1.84898437,4.62832031 1.91878438,4.64609375 1.93398438,4.64980469 L1.91258438,4.4421875 C1.88629433,4.44286854 1.86005862,4.44488952 1.83398438,4.44824219 L1.83398438,4.44824219 Z" id="路径" fill="#FF9F86"></path>
                                        <path d="M1.87773437,4.44375 L1.87773437,4.63515625 C1.97782783,4.66353445 2.07500697,4.70133361 2.16796875,4.74804688 L2.1390625,4.46757813 C2.05358878,4.44688838 1.96554047,4.43886005 1.87773437,4.44375 Z" id="路径" fill="#FF9D84"></path>
                                        <path d="M2.10039063,4.45957031 L2.10039063,4.71503906 C2.11809896,4.72324219 2.13554687,4.73183594 2.15273437,4.74082031 L2.22324219,4.77871094 L2.21132812,4.48769531 C2.17497077,4.47601909 2.13791943,4.46662579 2.10039063,4.45957031 Z" id="路径" fill="#FF9B82"></path>
                                        <path d="M2.17519531,4.47675781 L2.17519531,4.75273438 C2.20039063,4.76621094 2.27988281,4.81308594 2.30429688,4.82773437 L2.28476563,4.51308594 C2.25996094,4.50273437 2.20195313,4.48359375 2.17519531,4.47675781 L2.17519531,4.47675781 Z" id="路径" fill="#FF9A80"></path>
                                        <path d="M2.24980469,4.50019531 L2.24980469,4.79472656 C2.27402344,4.80898438 2.35820313,4.86464844 2.38164063,4.87988281 L2.36464844,4.54550781 C2.34042969,4.5328125 2.27382813,4.50839844 2.24980469,4.50019531 Z" id="路径" fill="#FF987F"></path>
                                        <path d="M2.32109375,4.52675781 L2.32109375,4.83925781 C2.378125,4.8765625 2.48515625,4.95996094 2.53847656,5.00273438 L2.53007813,4.63164063 C2.46287081,4.59198997 2.39304877,4.55694844 2.32109375,4.52675781 Z" id="路径" fill="#FF967D"></path>
                                        <path d="M2.50722656,4.61875 L2.48769531,4.60742188 L2.48769531,4.95898438 C2.51523438,4.98105469 2.58378906,5.0421875 2.61035156,5.065625 L2.61230469,4.68300781 C2.58964844,4.66796875 2.52792969,4.63066406 2.50722656,4.61875 Z" id="路径" fill="#FF957B"></path>
                                        <path d="M2.56816406,4.65566406 L2.56816406,5.028125 C2.61367188,5.06816406 2.69394531,5.14921875 2.73632813,5.19257813 L2.72910156,4.76816406 C2.68613281,4.73417969 2.61328125,4.68398438 2.56816406,4.65566406 Z" id="路径" fill="#FF9379"></path>
                                        <path d="M2.69980469,4.74609375 L2.69980469,5.15351563 C2.72304688,5.17734375 2.77792969,5.23964844 2.80117188,5.26425781 L2.80292969,4.82792969 C2.77695312,4.8046875 2.72167969,4.76152344 2.69980469,4.74609375 L2.69980469,4.74609375 Z" id="路径" fill="#FF9177"></path>
                                        <path d="M2.76796875,4.79882812 L2.76796875,5.22617188 C2.7953125,5.25644531 2.85898438,5.33261719 2.88515625,5.3640625 L2.88515625,4.9 C2.85820313,4.87460938 2.79492188,4.82070313 2.76796875,4.79882812 Z" id="路径" fill="#FF9075"></path>
                                        <path d="M2.84746094,4.86621094 L2.84746094,5.31835937 C2.92402344,5.41152344 3.03144531,5.56757812 3.09667969,5.66855469 L3.09140625,5.11464844 C3.0157645,5.02644986 2.93426473,4.9434493 2.84746094,4.86621094 L2.84746094,4.86621094 Z" id="路径" fill="#FF8E74"></path>
                                        <path d="M3.06054687,5.07929688 L3.06054687,5.61035156 C3.08605295,5.64941406 3.13666024,5.73007813 3.16054687,5.76914063 L3.1510327,5.18183594 C3.12734849,5.15253906 3.08585052,5.10644531 3.06054687,5.07929688 L3.06054687,5.07929688 Z" id="路径" fill="#FF8C72"></path>
                                        <path d="M3.16113281,5.19804687 C3.1515625,5.18613281 3.14160156,5.17421875 3.13203125,5.16230469 L3.13203125,5.72617188 C3.15917969,5.77207031 3.21523438,5.87519531 3.24003906,5.92265625 L3.23027344,5.28828125 C3.2140625,5.265625 3.17773438,5.21875 3.16113281,5.19804687 L3.16113281,5.19804687 Z M3.14453125,7.91132812 L3.24453125,7.82522947 L3.24453125,7.81132812 C3.21266679,7.8477702 3.17926581,7.88117118 3.14453125,7.91132812 L3.14453125,7.91132812 Z" id="形状" fill="#FF8B70"></path>
                                        <path d="M3.61035156,5.9609375 C3.50710731,5.71163248 3.37256352,5.47647619 3.20996094,5.26113281 L3.20996094,5.86660156 C3.24902344,5.94277344 3.28808594,6.02050781 3.32109375,6.09980469 C3.43828125,6.37324219 3.51367188,6.67011719 3.52324219,6.96835938 C3.53261719,7.25878906 3.46953125,7.59140625 3.23808594,7.78867188 C3.22890625,7.79648438 3.21855469,7.80390625 3.20996094,7.81132813 L3.20996094,7.81738281 L3.4125,7.70019531 C3.59707031,7.59296875 3.70839844,7.41210938 3.76152344,7.20878906 C3.79441657,7.07594063 3.80822703,6.93908552 3.80253906,6.80234375 C3.79375,6.51367188 3.72089844,6.22636719 3.61035156,5.9609375 L3.61035156,5.9609375 Z" id="路径" fill="#FF896E"></path>
                                        <path d="M2.23085938,4.7828125 C2.94726562,5.19648437 3.52636719,6.19941406 3.52403053,7.02265625 C3.52167969,7.84589844 2.93808594,8.178125 2.22246094,7.76484375 C1.50683594,7.3515625 0.926757813,6.34765625 0.929094485,5.52460938 C0.931445313,4.7015625 1.51425781,4.36914063 2.23085938,4.7828125 Z" id="路径" fill="#FFC2B6"></path>
                                        <path d="M10.6640625,11.7734375 C10.6543188,11.6595972 10.601172,11.5538631 10.515625,11.478125 C10.484696,11.4497638 10.4500721,11.4257176 10.4126953,11.4066406 L10.4087891,11.4046875 C10.3662109,11.3832031 10.3230469,11.3627604 10.2792969,11.3433594 C10.2377604,11.325 10.195638,11.3078776 10.1529297,11.2919922 C10.1117188,11.2765625 10.0703125,11.2625 10.0283203,11.2498047 C9.9578777,11.2283045 9.88611176,11.2114068 9.81347656,11.1992188 L9.79394531,11.1962891 C9.75253906,11.1900391 9.7110026,11.1855469 9.66933594,11.1828125 C9.50611329,11.1716076 9.34217508,11.1883185 9.18457031,11.2322266 C9.01386719,11.2800781 8.85527344,11.3583984 8.70234375,11.4470703 L8.4375,11.6015625 L8.45703125,11.5902344 C8.359375,11.6460938 8.26464844,11.7074219 8.1703125,11.76875 C8.13222656,11.7935547 8.09414063,11.8185547 8.05585938,11.8433594 C7.95309915,11.8971307 7.84205738,11.9333084 7.72734375,11.9503906 L7.72480469,11.9503906 C7.60315877,11.9647449 7.47984618,11.9493978 7.36542969,11.9056641 C7.29315635,11.8782678 7.22258747,11.8465705 7.15410156,11.8107422 C7.05069247,11.7564666 6.95134471,11.6947822 6.85683594,11.6261719 C6.80032552,11.5854167 6.7452474,11.5427734 6.69160156,11.4982422 C6.55234375,11.3830078 6.42109375,11.2583984 6.29257813,11.1310547 C6.22773437,11.0667969 6.16328125,11.0019531 6.09902344,10.9373047 C5.97128906,10.8087891 5.84296875,10.68125 5.71210937,10.55625 C5.63964844,10.4869141 5.56640625,10.4183594 5.49179687,10.3511719 C5.44921875,10.3130208 5.4061849,10.2753255 5.36269531,10.2380859 C5.1953775,10.0937511 5.020871,9.95796591 4.83984375,9.83125 C4.80885417,9.80963542 4.77773437,9.78828125 4.74648438,9.7671875 C4.55238623,9.63234981 4.34775478,9.51334614 4.13457031,9.41132813 C3.88531588,9.29485464 3.62020957,9.21587559 3.34785156,9.17695313 C3.07727112,9.13976556 2.80246951,9.14636028 2.53398438,9.19648438 C2.27157036,9.24506134 2.01782575,9.33234159 1.78105469,9.45546875 C1.66542969,9.515625 1.55390625,9.584375 1.44121094,9.65078125 C1.38203868,9.68313075 1.32478209,9.71886722 1.26972656,9.7578125 C1.16796875,9.83046875 1.20820313,9.98515625 1.25605469,10.0783203 C1.29219975,10.153691 1.34947013,10.2169327 1.42089844,10.2603516 C1.45688026,10.2832943 1.50027321,10.2916095 1.5421875,10.2835938 C1.55933561,10.2780279 1.57534488,10.2694278 1.58945313,10.2582031 L1.57832031,10.2662109 C1.57500769,10.2686918 1.57155112,10.2709745 1.56796875,10.2730469 L1.84746094,10.1105469 C1.85104428,10.108476 1.85450093,10.1061933 1.8578125,10.1037109 L1.86386719,10.0994141 C2.02436985,10.0232526 2.19249773,9.96432932 2.36542969,9.92363281 C2.72341722,9.83702719 3.09689528,9.83702719 3.45488281,9.92363281 C3.821875,10.0140625 4.15,10.1998047 4.45996094,10.4119141 C4.75935778,10.6194029 5.04122766,10.8511045 5.30273437,11.1046875 C5.58554687,11.3748047 5.85136719,11.6626953 6.14101562,11.925 C6.41777344,12.1765625 6.72089844,12.4025391 7.06660156,12.55 C7.23339844,12.6212891 7.40800781,12.6685547 7.59082031,12.6595703 C7.77363281,12.6505859 7.95097656,12.5863281 8.11328125,12.5003906 C8.14472656,12.4837891 8.17578125,12.4662109 8.20664063,12.4482422 L8.19902344,12.4527344 L8.47851562,12.2902344 C8.55664062,12.2447266 8.63359375,12.1953125 8.71015625,12.1455078 C8.76191406,12.1117188 8.81367187,12.0777344 8.86640625,12.0445313 C8.94491301,12.0040382 9.02655793,11.9699433 9.11054687,11.9425781 C9.27994412,11.8877909 9.45939565,11.8713134 9.6359375,11.8943359 C9.80037856,11.9187564 9.95994944,11.9689148 10.1087891,12.0429688 C10.1685547,12.0716797 10.2380859,12.1234375 10.3080078,12.0980469 C10.3148362,12.0956328 10.3213844,12.0924896 10.3275391,12.0886719 L10.325,12.0902344 L10.4099609,12.0408203 L10.4697266,12.0060547 L10.5166016,11.9787109 L10.5662109,11.9498047 C10.5839278,11.9408036 10.6009074,11.9304199 10.6169922,11.91875 C10.6585938,11.884375 10.6673828,11.8248047 10.6640625,11.7734375 L10.6640625,11.7734375 Z" id="路径" fill="#8DCDFF"></path>
                                        <path d="M4.13496094,9.41035156 C3.88570651,9.29387807 3.6206002,9.21489903 3.34824219,9.17597656 C3.07766174,9.138789 2.80286013,9.14538371 2.534375,9.19550781 C2.27196099,9.24408477 2.01821637,9.33136502 1.78144531,9.45449219 C1.66425781,9.51523438 1.55273437,9.584375 1.43925781,9.64980469 L1.40351562,9.67050781 C1.633445,9.53773465 1.88197291,9.44016687 2.14082031,9.38105469 C2.40838582,9.31914108 2.68410207,9.30021938 2.95761719,9.325 C3.23582442,9.35183379 3.50819515,9.42160655 3.76503906,9.53183594 C4.01894531,9.64003906 4.25664062,9.78574219 4.48574219,9.94003906 C4.57460937,10 4.73964844,10.1205078 4.82597656,10.1875 L4.83085937,9.82285156 C4.63164062,9.68398437 4.34882812,9.50957031 4.13496094,9.41035156 L4.13496094,9.41035156 Z" id="路径" fill="#8DCDFF"></path>
                                        <path d="M4.84023438,9.83027344 C4.80924479,9.80865885 4.778125,9.78730469 4.746875,9.76621094 L4.746875,10.1277344 C4.88613281,10.2330078 5.0203125,10.3439453 5.15214844,10.4597656 C5.22363281,10.5226563 5.371875,10.6613281 5.44121094,10.7263672 L5.43378906,10.2992187 C5.2444492,10.1324217 5.04631402,9.97588254 4.84023438,9.83027344 Z" id="路径" fill="#8DCDFF"></path>
                                        <path d="M5.4921875,10.3503906 C5.44960937,10.3122396 5.40657552,10.2745443 5.36308594,10.2373047 L5.36308594,10.6515625 C5.48164062,10.7626953 5.65371094,10.9322266 5.76855469,11.0472656 L5.79199219,10.6320313 C5.71152344,10.5527344 5.56640625,10.4173828 5.4921875,10.3503906 L5.4921875,10.3503906 Z" id="路径" fill="#8DCDFF"></path>
                                        <path d="M6.09960938,10.9375 C5.971875,10.8089844 5.84355469,10.6814453 5.71269531,10.5564453 L5.71269531,10.9923828 L5.76738281,11.046875 C5.93964844,11.2201172 6.15917969,11.4480469 6.35332031,11.6105469 L6.38085938,11.2171875 C6.31582031,11.1523438 6.16386719,11.0011719 6.09960938,10.9375 L6.09960938,10.9375 Z" id="路径" fill="#8DCDFF"></path>
                                        <path d="M6.6921875,11.4974609 C6.55292969,11.3822266 6.42167969,11.2576172 6.29316406,11.1302734 L6.29316406,11.5568359 C6.31920573,11.5794922 6.34492187,11.601888 6.3703125,11.6240234 C6.52128906,11.7529297 6.73339844,11.9054688 6.9171875,11.9925781 L6.96386719,11.6992188 C6.86980987,11.6368082 6.77912304,11.5694614 6.6921875,11.4974609 L6.6921875,11.4974609 Z" id="路径" fill="#8DCDFF"></path>
                                        <path d="M6.85742188,11.6253906 L6.85742188,11.9621094 C6.91914733,11.9950645 6.98251059,12.0248557 7.04726563,12.0513672 C7.10905693,12.0763361 7.17317302,12.0951129 7.23867188,12.1074219 L7.2484375,11.8558594 C7.11120285,11.7913873 6.98029492,11.7142288 6.85742188,11.6253906 L6.85742188,11.6253906 Z" id="路径" fill="#8DCDFF"></path>
                                        <path d="M7.36621094,11.9048828 C7.2939376,11.8774866 7.22336872,11.8457893 7.15488281,11.8099609 L7.15488281,12.0882812 C7.23599958,12.1121761 7.32069744,12.1215649 7.40507812,12.1160156 C7.53114061,12.1027351 7.65375662,12.0667378 7.76699219,12.0097656 L7.78261719,11.9404297 C7.64316956,11.9667542 7.49917895,11.9544623 7.36621094,11.9048828 L7.36621094,11.9048828 Z" id="路径" fill="#8DCDFF"></path>
                                        <path d="M7.72832031,11.9494141 L7.72578125,11.9494141 L7.72578125,12.0289062 C7.74049479,12.0222656 7.75507813,12.0157552 7.76953125,12.009375 C7.89746094,11.946875 8.01933594,11.8701172 8.14238281,11.7986328 L8.17929688,11.7771484 C8.15052083,11.7939453 8.12135417,11.810026 8.09179688,11.8253906 C7.978125,11.8839844 7.85625,11.9335937 7.72832031,11.9494141 L7.72832031,11.9494141 Z" id="路径" fill="#8DCDFF"></path>
                                        <path d="M9.44628906,11.35 C9.53781097,11.3617688 9.62844303,11.3796473 9.71757812,11.4035156 L9.71074219,11.1863281 C9.53361998,11.1696451 9.35494039,11.185263 9.18339844,11.2324219 C9.01269531,11.2802734 8.85410156,11.3585937 8.70117188,11.4472656 L8.4375,11.6015625 C8.5883047,11.5102895 8.75051842,11.439362 8.91992188,11.390625 C9.09135516,11.3446464 9.26983082,11.3308716 9.44628906,11.35 L9.44628906,11.35 Z" id="路径" fill="#8DCDFF"></path>
                                        <path d="M9.83242187,11.4394531 L9.83085937,11.2025391 C9.7890625,11.1945313 9.70996094,11.1857422 9.66835937,11.1830078 L9.66835937,11.3904297 C9.71035156,11.4007812 9.79082031,11.4244141 9.83242187,11.4394531 L9.83242187,11.4394531 Z" id="路径" fill="#8DCDFF"></path>
                                        <path d="M9.94785156,11.4832031 C9.975,11.4943359 10.0417969,11.5248047 10.0685547,11.5369141 L10.0835938,11.2673828 C9.99527202,11.2381499 9.90492562,11.2154328 9.81328125,11.1994141 L9.79375,11.1964844 L9.79375,11.4257812 C9.84557292,11.443099 9.8969401,11.4622396 9.94785156,11.4832031 L9.94785156,11.4832031 Z" id="路径" fill="#8DCDFF"></path>
                                        <path d="M10.0736328,11.5394531 C10.1100208,11.5558024 10.1454901,11.5741239 10.1798828,11.5943359 L10.1919922,11.3070312 C10.1501953,11.2900391 10.0707031,11.2626953 10.0287109,11.25 L10.0287109,11.5183594 C10.0435547,11.5253906 10.0585938,11.5322266 10.0736328,11.5394531 Z" id="路径" fill="#8DCDFF"></path>
                                        <path d="M10.1857422,11.5980469 C10.2319055,11.6315016 10.2722267,11.6723507 10.3050781,11.7189453 L10.3296875,11.3660156 C10.2859375,11.3449219 10.1958984,11.3074219 10.1539063,11.2919922 L10.1539063,11.5785156 C10.1642578,11.5847656 10.1757812,11.5910156 10.1857422,11.5980469 Z" id="路径" fill="#8DCDFF"></path>
                                        <path d="M10.3083984,11.7242188 C10.3480855,11.7822376 10.3736984,11.8487108 10.3832031,11.9183594 C10.3902344,11.9787109 10.3822266,12.0566406 10.3246094,12.0904297 L10.4623047,12.0103516 L10.4427734,11.4230469 C10.3990234,11.3972656 10.3232422,11.3626953 10.2794922,11.3433594 L10.2794922,11.6847656 C10.2896484,11.6974609 10.2996094,11.7105469 10.3083984,11.7242188 L10.3083984,11.7242188 Z" id="路径" fill="#8DCDFF"></path>
                                        <path d="M10.46875,12.00625 L10.5664062,11.9490234 L10.546875,11.5105469 C10.5079369,11.4684775 10.4621769,11.4332826 10.4115234,11.4064453 L10.4076172,11.4044922 L10.4076172,12.0410156 L10.46875,12.00625 Z" id="路径" fill="#8DCDFF"></path>
                                        <path d="M10.5652344,11.9501953 C10.5829512,11.9411942 10.5999309,11.9308105 10.6160156,11.9191406 C10.6583984,11.884375 10.6671875,11.825 10.6640625,11.7734375 C10.6543188,11.6595972 10.601172,11.5538631 10.515625,11.478125 L10.515625,11.9791016 L10.5652344,11.9501953 Z" id="路径" fill="#8DCDFF"></path>
                                        <path d="M10.1660156,11.5859375 C10.2904297,11.6574219 10.3865234,11.8113281 10.3855543,11.9570313 C10.3855543,12.0132813 10.3660156,12.0779297 10.3074219,12.0990234 C10.2375,12.1242188 10.1679688,12.0726563 10.1082031,12.0439453 C9.9594092,11.9696209 9.79983645,11.9191983 9.63535156,11.8945312 C9.45880971,11.8715087 9.27935818,11.8879863 9.10996094,11.9427734 C8.74238281,12.0599609 8.45,12.3224609 8.11386719,12.5005859 C7.9515625,12.5865234 7.77617188,12.6505859 7.59140625,12.6597656 C7.40664062,12.6689453 7.23398438,12.6207031 7.0671875,12.5501953 C6.72148438,12.4025391 6.41835938,12.1765625 6.14160156,11.9251953 C5.85195313,11.6621094 5.58613281,11.3740234 5.30332031,11.1048828 C5.04164086,10.8505907 4.75950648,10.6182332 4.45976562,10.4101562 C4.14980469,10.1988281 3.82167969,10.0130859 3.4546875,9.921875 C3.09669997,9.83526938 2.72322191,9.83526938 2.36523438,9.921875 C2.09472656,9.98632812 1.82265625,10.0947266 1.59316406,10.2539062 C1.57797513,10.2662315 1.56071378,10.275755 1.5421875,10.2820313 C1.50027321,10.290047 1.45688026,10.2817318 1.42089844,10.2587891 C1.34947013,10.2153702 1.29219975,10.1521285 1.25605469,10.0767578 C1.20839844,9.98359375 1.16816406,9.82890625 1.26972656,9.75625 C1.37058612,9.68609201 1.47744687,9.62498204 1.5890625,9.57363281 C1.72137981,9.51097402 1.85854515,9.45911245 1.99921875,9.41855469 C2.33275101,9.32153452 2.68236362,9.29244441 3.02734375,9.33300781 C3.39607838,9.38051815 3.75189697,9.4999649 4.07460938,9.68457031 C4.39386835,9.86565628 4.69636538,10.0748158 4.97851562,10.3095703 C5.26660156,10.5474609 5.53300781,10.8089844 5.79628906,11.0736328 C6.05957031,11.3382812 6.32128906,11.6117187 6.63007813,11.8236328 C6.78144531,11.9275391 6.94804688,12.0214844 7.12324219,12.0787109 C7.30585938,12.1382812 7.49433594,12.1205078 7.67167969,12.0505859 C7.84902344,11.9806641 8.0109375,11.8707031 8.17109375,11.7662109 C8.32460938,11.6660156 8.47929688,11.5667969 8.64609375,11.4896484 C8.80483267,11.4145514 8.97502315,11.3665575 9.14960938,11.3476562 C9.32789183,11.3312565 9.50766966,11.3464639 9.68066406,11.3925781 C9.84939345,11.4380078 10.0122703,11.5028964 10.1660156,11.5859375 L10.1660156,11.5859375 Z" id="路径" fill="#BCE2FF"></path>
                                    </g>
                                </g>
                            </g>
                        </g>
                    </g>
                    <g id="编组-15备份" transform="translate(3.000000, 52.000000)">
                        <rect id="矩形" fill="url(#linearGradient-14)" x="0" y="0" width="60" height="20" rx="10"></rect>
                        <g id="装修效果" fill="#FFFFFF" fill-opacity="1">
                            <use filter="url(#filter-16)" xlink:href="#text-15"></use>
                            <use xlink:href="#text-15"></use>
                        </g>
                    </g>
                </g>
            </g>
        </g>
    </g>
</svg>
