<?xml version="1.0" encoding="UTF-8"?>
<svg width="29px" height="29px" viewBox="0 0 29 29" version="1.1" xmlns="http://www.w3.org/2000/svg" xmlns:xlink="http://www.w3.org/1999/xlink">
    <!-- Generator: Sketch 63 (92445) - https://sketch.com -->
    <title>编组 2</title>
    <desc>Created with Sketch.</desc>
    <g id="现场换装" stroke="none" stroke-width="1" fill="none" fill-rule="evenodd">
        <g id="装修diy-我的设计" transform="translate(-321.000000, -351.000000)">
            <g id="编组-9" transform="translate(321.000000, 351.000000)">
                <g id="编组-2">
                    <circle id="椭圆形" fill="#E9E9E9" cx="14.5" cy="14.5" r="14.5"></circle>
                    <g id="删除" transform="translate(7.000000, 7.000000)" fill="#B0B0B0" fill-rule="nonzero">
                        <path d="M5.33809443,5.24057405 L5.33809443,11.1101393 C5.33809443,11.765574 6.45331182,11.765574 6.36526834,11.1101393 L6.36526834,5.24057405 C6.36526834,4.58513927 5.33809443,4.58513927 5.33809443,5.24057405 Z" id="路径"></path>
                        <path d="M11.8630944,5.32861753 L11.8630944,13.2525306 C11.8630944,13.5362262 11.5793988,13.8101393 11.3054857,13.8101393 L3.85113791,13.8101393 C3.56744226,13.8101393 3.29352921,13.5264436 3.29352921,13.2525306 L3.29352921,5.24057405 C3.29352921,4.86883492 3.00983356,4.68296535 2.73592052,4.68296535 C2.45222486,4.68296535 2.17831182,4.96666101 2.17831182,5.24057405 L2.17831182,13.2525306 C2.17831182,13.6242697 2.36418139,14.0938349 2.64787704,14.367748 C2.93157269,14.6514436 3.30331182,14.8373132 3.76309443,14.8373132 L11.2174423,14.8373132 C12.1467901,14.8373132 12.8022249,14.0938349 12.900051,13.3503567 L12.900051,5.32861753 C12.8902683,4.67318274 11.8630944,4.67318274 11.8630944,5.32861753 L11.8630944,5.32861753 Z" id="路径"></path>
                        <path d="M8.50765965,5.24057405 L8.50765965,11.1101393 C8.50765965,11.765574 9.62287704,11.765574 9.53483356,11.1101393 L9.53483356,5.24057405 C9.53483356,4.58513927 8.50765965,4.58513927 8.50765965,5.24057405 Z" id="路径"></path>
                        <path d="M14.3772249,2.62861753 L11.6772249,2.62861753 L11.6772249,1.60144361 C11.6772249,0.760139266 10.9337466,0.0166610054 10.0924423,0.0166610054 L4.78048573,0.0166610054 C4.31092052,0.0166610054 3.93918139,0.202530571 3.66526834,0.486226223 C3.38157269,0.769921875 3.19570313,1.22970448 3.19570313,1.60144361 L3.19570313,2.62861753 L0.495703125,2.62861753 C-0.159731658,2.62861753 -0.159731658,3.65579144 0.495703125,3.65579144 L14.3870075,3.65579144 C15.1207031,3.65579144 15.1207031,2.62861753 14.3772249,2.62861753 Z M10.747877,2.53079144 L4.31092052,2.53079144 L4.31092052,1.50361753 C4.31092052,1.21992187 4.59461617,0.946008832 4.86852921,0.946008832 L10.1804857,0.946008832 C10.4641814,0.946008832 10.7380944,1.1318784 10.7380944,1.50361753 L10.7380944,2.53079144 L10.747877,2.53079144 Z" id="形状"></path>
                    </g>
                </g>
            </g>
        </g>
    </g>
</svg>
