<?xml version="1.0" encoding="UTF-8"?>
<svg width="18px" height="18px" viewBox="0 0 18 18" version="1.1" xmlns="http://www.w3.org/2000/svg" xmlns:xlink="http://www.w3.org/1999/xlink">
    <!-- Generator: Sketch 63 (92445) - https://sketch.com -->
    <title>房子</title>
    <desc>Created with Sketch.</desc>
    <g id="现场换装" stroke="none" stroke-width="1" fill="none" fill-rule="evenodd">
        <g id="装修diy-完成" transform="translate(-59.000000, -616.000000)" fill="#FFFFFF">
            <g id="编组-4" transform="translate(59.000000, 616.000000)">
                <g id="房子-2">
                    <g id="房子">
                        <path d="M2.39379119,17.3639803 L2.39379119,10.8999675 L1.10272845,10.8999675 C1.03767949,10.8998953 0.973040843,10.8894224 0.911150496,10.8689276 C0.776130975,10.824188 0.431211091,10.6576598 0.151694943,10.0830144 C-0.116565678,9.53205602 0.0147566013,9.0238973 0.208721386,8.75620205 C0.22688942,8.7310355 0.246874609,8.7072979 0.268509059,8.68518868 L8.57185856,0.186457311 C8.68819344,0.0668369549 8.84641339,-0.000233037105 9.01131551,0 C9.17701278,0 9.33276493,0.0661537198 9.45007045,0.185714844 L11.8153691,2.59763059 C12.0580689,2.84578698 12.0587702,3.24817206 11.8169369,3.49721309 C11.700543,3.61737398 11.5419559,3.68478157 11.3766375,3.68436265 C11.2120781,3.68479714 11.0541506,3.61801129 10.9378826,3.49881777 L9.01206432,1.53506463 L1.10560669,9.627475 L3.01525539,9.627475 C3.35836657,9.62788414 3.63641345,9.91246959 3.63681319,10.2636494 L3.63681319,16.7276622 L14.4025256,16.7276622 L14.4025256,10.2636494 C14.4029254,9.91246025 14.6809865,9.62787094 15.0241068,9.627475 L16.6263229,9.627475 L14.0611039,7.10650292 C13.6388409,6.54727172 14.4025256,5.63316901 15.2679285,6.39392004 C15.8448637,6.9010874 16.6623627,7.75215932 17.7204256,8.9471358 C17.7566922,8.98412271 17.7883583,9.02555121 17.8147053,9.07048111 C17.8713807,9.16724131 18.1414197,9.67540004 17.9036029,10.2116528 C17.6644522,10.7515939 17.1097489,10.8723765 17.0009611,10.89101 C16.966832,10.8968946 16.9322823,10.8998508 16.8976723,10.8998477 L15.6456646,10.8998477 L15.6456646,17.3638605 C15.645407,17.7149837 15.3675134,17.9996372 15.0244578,18 L3.01525539,18 C2.67213981,17.9997454 2.39412646,17.7151407 2.39379119,17.3639803 Z" id="路径" fill-rule="nonzero"></path>
                        <path d="M12.2561085,0.0158807936 L12.3929164,0.0165568539 C12.7548802,0.0183455616 13.0478653,0.311336469 13.0496469,0.673300301 L13.091145,9.10440818 C13.0929391,9.4689117 12.798905,9.76585459 12.4344015,9.76764868 C12.4322315,9.76765936 12.4300615,9.76765934 12.4278915,9.76764862 L12.2910836,9.76697256 C11.9291198,9.76518385 11.6361347,9.47219294 11.6343531,9.11022911 L11.592855,0.67912123 C11.5910609,0.31461771 11.885095,0.0176748238 12.2495985,0.0158807297 C12.2517685,0.015870049 12.2539385,0.0158700703 12.2561085,0.0158807936 Z" id="矩形" transform="translate(12.342000, 4.891765) rotate(-326.000000) translate(-12.342000, -4.891765) "></path>
                    </g>
                </g>
            </g>
        </g>
    </g>
</svg>
