<?xml version="1.0" encoding="UTF-8"?>
<svg width="28px" height="30px" viewBox="0 0 28 30" version="1.1" xmlns="http://www.w3.org/2000/svg" xmlns:xlink="http://www.w3.org/1999/xlink">
    <!-- Generator: Sketch 63 (92445) - https://sketch.com -->
    <title>设计 (1)备份</title>
    <desc>Created with Sketch.</desc>
    <g id="现场换装" stroke="none" stroke-width="1" fill="none" fill-rule="evenodd">
        <g id="装修diy-设计家备份-4" transform="translate(-116.000000, -602.000000)">
            <g id="编组" transform="translate(116.000000, 602.000000)">
                <g id="设计-(1)备份-2">
                    <g id="设计-(1)备份">
                        <path d="M2,10.4209076 L2,28 L26,28 L26,10.4224628 L13.9665231,2 L2,10.4209076 Z M0.871045877,8.79654678 L12.641996,0.418526433 C13.4241424,-0.138259705 14.5039726,-0.139632061 15.2877156,0.415163989 L27.1245888,8.79499946 C27.6758214,9.18529203 28,9.79657455 28,10.4455727 L28,27.9342096 C28,29.0751025 27.016797,30 25.8039433,30 L2.19605672,30 C0.983202968,30 0,29.0751025 0,27.9342096 L0,10.4440253 C0,9.7968407 0.322361428,9.18704456 0.871014244,8.79654678 L0.871045877,8.79654678 Z" id="形状" fill="#16D475" fill-rule="nonzero"></path>
                        <path d="M9.2413332,22.9504077 L16.5050622,15.6871836 L13.9535055,13.1355972 L6.690222,20.3990886 L6.6665214,22.974138 L9.2415411,22.9504077 L9.2413332,22.9504077 Z M5.8977072,25.0432733 C5.55592802,25.0463756 5.22689406,24.913627 4.98299445,24.6741777 C4.73909484,24.4347284 4.60031021,24.1081946 4.5971739,23.7664152 L4.5971739,23.7426849 L4.6309428,20.0640429 C4.63406865,19.7263181 4.76965273,19.403318 5.0085189,19.1645487 L13.042161,11.1309066 C13.54539,10.6278371 14.3611161,10.6278371 14.8643451,11.1309066 L18.5094855,14.7758094 C19.0127331,15.2790689 19.0127331,16.0950013 18.5094855,16.5982608 L10.4758731,24.6318732 C10.2371086,24.8707503 9.91410796,25.0063453 9.5763789,25.009479 L5.8977369,25.0432733 L5.8977072,25.0432733 Z" id="形状" fill="#FFFFFF" fill-rule="nonzero"></path>
                        <path d="M18.0182475,14.1734934 L19.1118015,13.0799394 L16.5602448,10.5283233 L15.4669284,11.621907 L18.0185148,14.1734934 L18.0182475,14.1734934 Z M12.550923,11.621907 L15.1025094,9.0705879 C15.907707,8.26549464 17.2130796,8.26549464 18.0182772,9.0705879 L20.5698636,11.6221743 C21.3749371,12.4273685 21.3749371,13.7327182 20.5698636,14.5379124 L18.0182772,17.0894988 L12.550923,11.621907 Z M13.9303098,25.179066 C13.5619881,25.179066 13.2216448,24.9825688 13.037484,24.6635928 C12.8533231,24.3446169 12.8533231,23.9516223 13.037484,23.6326464 C13.2216448,23.3136704 13.5619881,23.1171732 13.9303098,23.1171732 L19.0850418,23.1171732 C19.6544178,23.1171732 20.1159882,23.5787436 20.1159882,24.1481196 C20.1159882,24.7174956 19.6544178,25.179066 19.0850418,25.179066 L13.9303098,25.179066 L13.9303098,25.179066 Z" id="形状" fill="#FFFFFF" fill-rule="nonzero"></path>
                        <polygon id="路径-2" fill="#16D475" points="15.004483 1.10237555 27.7904758 10.9513622 26.8702343 29.1023756 1.46241274 28.5560591 0.790475795 11.186754"></polygon>
                        <circle id="椭圆形" fill="#494749" cx="14.5" cy="7.5" r="2.5"></circle>
                    </g>
                </g>
            </g>
        </g>
    </g>
</svg>
