<?xml version="1.0" encoding="UTF-8"?>
<svg width="19px" height="21px" viewBox="0 0 19 21" version="1.1" xmlns="http://www.w3.org/2000/svg" xmlns:xlink="http://www.w3.org/1999/xlink">
    <!-- Generator: Sketch 63 (92445) - https://sketch.com -->
    <title>设计 (1)</title>
    <desc>Created with Sketch.</desc>
    <g id="现场换装" stroke="none" stroke-width="1" fill="none" fill-rule="evenodd">
        <g id="装修diy-设计家" transform="translate(-121.000000, -607.000000)" fill="#FFFFFF" fill-rule="nonzero">
            <g id="设计-(1)-2" transform="translate(121.000000, 607.000000)">
                <g id="设计-(1)">
                    <path d="M1.44059438,7.25175 L1.44059438,19.374795 L16.8331556,19.374795 L16.8331556,7.2528225 L9.11540438,1.44445125 L1.44059438,7.25175 Z M0.576675,6.10982625 L8.25144375,0.30273375 C8.76141049,-0.0831937685 9.4654698,-0.0841449953 9.9764775,0.300403125 L17.6942288,6.10875375 C18.0536376,6.37927888 18.265005,6.8029797 18.265005,7.2528225 L18.265005,19.374795 C18.265005,20.1655869 17.6239475,20.806665 16.8331556,20.806665 L1.44059438,20.806665 C0.649802465,20.806665 0.008745,20.1655869 0.008745,19.374795 L0.008745,7.25175 C0.008745,6.80316418 0.218927644,6.38049362 0.576654375,6.10982625 L0.576675,6.10982625 Z" id="形状"></path>
                    <path d="M6.4175925,15.9377831 L11.4618488,10.8938775 L9.68993438,9.1219425 L4.6459875,14.1660338 L4.62952875,15.9542625 L6.41773688,15.9377831 L6.4175925,15.9377831 Z M4.09563,17.391162 C3.85828335,17.3933164 3.62978754,17.3011299 3.46041281,17.1348456 C3.29103808,16.9685614 3.19465987,16.7418018 3.19248188,16.504455 L3.19248188,16.4879756 L3.2159325,13.9333631 C3.21810323,13.698832 3.31225884,13.4745264 3.47813813,13.3087144 L9.05705625,7.72979625 C9.4065208,7.38044246 9.97299732,7.38044246 10.3224619,7.72979625 L12.8538094,10.2609788 C13.2032869,10.6104645 13.2032869,11.1770842 12.8538094,11.52657 L7.27491188,17.1054675 C7.10910319,17.2713543 6.8847972,17.3655175 6.65026313,17.3676938 L4.09565063,17.391162 L4.09563,17.391162 Z" id="形状"></path>
                    <path d="M12.5126719,9.84270375 L13.2720844,9.08329125 L11.50017,7.31133563 L10.7409225,8.07076875 L12.5128575,9.84270375 L12.5126719,9.84270375 Z M8.71591875,8.07076875 L10.4878538,6.29901938 C11.0470188,5.73992683 11.9535275,5.73992683 12.5126925,6.29901938 L14.2846275,8.07095438 C14.8437063,8.63011702 14.8437063,9.53660986 14.2846275,10.0957725 L12.5126925,11.8677075 L8.71591875,8.07076875 Z M9.67382625,17.4854625 C9.4180473,17.4854625 9.1816978,17.3490061 9.05380832,17.127495 C8.92591884,16.9059839 8.92591884,16.6330711 9.05380832,16.41156 C9.1816978,16.1900489 9.4180473,16.0535925 9.67382625,16.0535925 L13.2535013,16.0535925 C13.6489012,16.0535925 13.9694363,16.3741275 13.9694363,16.7695275 C13.9694363,17.1649275 13.6489012,17.4854625 13.2535013,17.4854625 L9.67382625,17.4854625 L9.67382625,17.4854625 Z" id="形状"></path>
                </g>
            </g>
        </g>
    </g>
</svg>
