<?xml version="1.0" encoding="UTF-8"?>
<svg width="16px" height="16px" viewBox="0 0 16 16" version="1.1" xmlns="http://www.w3.org/2000/svg" xmlns:xlink="http://www.w3.org/1999/xlink">
    <!-- Generator: Sketch 63 (92445) - https://sketch.com -->
    <title>diy</title>
    <desc>Created with Sketch.</desc>
    <defs>
        <linearGradient x1="21.796634%" y1="0%" x2="85.0322924%" y2="99.9604096%" id="linearGradient-1">
            <stop stop-color="#FF9C9C" offset="0%"></stop>
            <stop stop-color="#ED6060" offset="99.9604096%"></stop>
        </linearGradient>
    </defs>
    <g id="现场换装" stroke="none" stroke-width="1" fill="none" fill-rule="evenodd">
        <g id="装修diy-家装首页风格" transform="translate(-49.000000, -542.000000)">
            <g id="编组-9" transform="translate(0.000000, 536.000000)">
                <g id="编组-11" transform="translate(49.000000, 6.000000)">
                    <g id="diy">
                        <circle id="椭圆形" fill="url(#linearGradient-1)" cx="7.8" cy="7.8" r="7.8"></circle>
                        <g id="装修-(2)" transform="translate(2.000000, 0.000000)" fill="#FFFFFF" fill-rule="nonzero">
                            <path d="M10.1885926,9.72249936 L10.469618,10.0022455 C10.604286,10.1360833 10.604286,10.3528314 10.489579,10.4685736 L9.45748913,11.3464056 C9.32356334,11.4806341 9.10523327,11.4803314 8.97054577,11.3464056 L6.29375866,8.68199155 C5.89086803,8.28172787 5.2355067,8.28070248 4.83295788,8.68098569 L4.729286,8.78403256 L4.06844616,8.12731381 C3.93375866,7.99346616 3.71580944,7.99382748 3.5815028,8.12731381 L3.37315319,8.33414975 C3.37281139,8.33446225 1.8758192,9.82112241 1.8758192,9.82112241 C1.47325084,10.2213275 1.47288952,10.8729388 1.8755067,11.2738568 L2.77001842,12.1772747 C2.97111217,12.3772064 3.23593639,12.4775677 3.50041881,12.4775677 C3.7648817,12.4775677 4.02935436,12.3775677 4.23114147,12.1776361 L5.68674694,10.6244134 C5.68711803,10.6240912 5.89578991,10.4165912 5.89578991,10.4165912 C5.96052624,10.3522162 5.99672741,10.2656048 5.99672741,10.1745404 C5.99671403,10.0836972 5.96052211,9.99659978 5.89615124,9.93249936 L5.21662975,9.26951108 L5.31993053,9.16681577 C5.45424694,9.03259702 5.67256725,9.03295834 5.80684459,9.16716733 L5.84130749,9.20102475 L8.48398327,11.831933 C8.68788952,12.0343255 8.95612194,12.1342767 9.22164928,12.1342767 C9.48029186,12.1342767 9.73614147,12.0390619 9.92521374,11.8501263 L10.957284,10.9721966 C11.3602137,10.5719525 11.3605262,9.92005795 10.9576454,9.51913022 L10.67662,9.23973569 L10.1885926,9.72249936 Z M3.64542858,9.04155209 C3.76539928,8.92105405 3.96100475,8.92179623 4.08237194,9.04325131 L5.01048717,9.97206967 C5.13183483,10.093515 5.13539928,10.2940423 5.01817272,10.420263 L3.97849499,11.5397259 C3.74517467,11.7909466 3.35235241,11.8010736 3.1005653,11.5618451 L2.54662975,11.0355072 C2.29508678,10.7965033 2.28750866,10.4055267 2.52905163,10.1628997 L3.64542858,9.04155209 L3.64542858,9.04155209 Z M9.76439342,8.34747006 C9.67484264,8.34747006 9.58562389,8.31319272 9.51845592,8.24476498 L6.19970592,4.96289975 C6.06676647,4.82762631 6.06882702,4.61128842 6.20486217,4.47872983 C6.34054577,4.34661069 6.55887584,4.34830014 6.6918153,4.48392514 L10.0102235,7.76541928 C10.1431825,7.90062436 10.1414344,8.11702084 10.005409,8.24951108 C9.93825084,8.3145892 9.85148327,8.34747006 9.76438366,8.34747006 L9.76439342,8.34747006 Z" id="形状" transform="translate(6.416681, 8.429237) rotate(-45.000000) translate(-6.416681, -8.429237) "></path>
                            <path d="M5.09918306,3.16273189 C5.05856782,3.12231196 5.00565766,3.09144282 4.94350923,3.07279048 C4.78935884,3.02653071 4.61806001,3.06495845 4.52183931,3.16062251 L3.12532563,4.56140376 C2.96832368,4.71753657 2.96819673,4.97169673 3.12489595,5.12776118 L7.15649751,9.14128657 C7.23456391,9.21891353 7.33543306,9.2604272 7.44696626,9.2604272 C7.55778657,9.2604272 7.65860688,9.21892329 7.72735688,9.15072017 L8.05040376,8.81634517 L8.5375522,8.33444087 L9.13009126,7.7460229 C9.20836274,7.667644 9.24972016,7.56832759 9.24972016,7.4603979 C9.24972016,7.35253657 9.20859712,7.25368892 9.13163423,7.17704829 L5.09918306,3.16273189 Z M9.57264985,6.73421626 C9.76722993,6.92799556 9.87470063,7.18614009 9.87470063,7.46038814 C9.87470063,7.73498775 9.7668686,7.99282954 9.57231782,8.187644 L8.97794282,8.7778979 L8.48991548,9.26066157 L8.17698579,9.5848022 C7.98211274,9.77863032 7.72278657,9.88541743 7.44696626,9.88541743 C7.17041352,9.88541743 6.91109712,9.77862056 6.71584321,9.58447993 L2.68396821,5.5706811 C2.28171235,5.17006587 2.28210298,4.51853267 2.68465181,4.1182397 L4.07923188,2.71937251 C4.35156587,2.44859126 4.7653647,2.36682368 5.12312837,2.47418696 C5.27791352,2.52063228 5.4222104,2.60247798 5.5400229,2.71973384 L9.57264009,6.73421626 L9.57264985,6.73421626 Z" id="形状" transform="translate(6.128604, 6.156946) rotate(-45.000000) translate(-6.128604, -6.156946) "></path>
                        </g>
                    </g>
                </g>
            </g>
        </g>
    </g>
</svg>
