<?xml version="1.0" encoding="UTF-8"?>
<svg width="20px" height="18px" viewBox="0 0 20 18" version="1.1" xmlns="http://www.w3.org/2000/svg" xmlns:xlink="http://www.w3.org/1999/xlink">
    <!-- Generator: Sketch 63 (92445) - https://sketch.com -->
    <title>编辑 (1)</title>
    <desc>Created with Sketch.</desc>
    <g id="页面1" stroke="none" stroke-width="1" fill="none" fill-rule="evenodd">
        <g id="装修diy-设计家" transform="translate(-45.000000, -608.000000)" fill="#FFFFFF" fill-rule="nonzero">
            <g id="编辑-(1)-2" transform="translate(45.000000, 608.000000)">
                <g id="编辑-(1)">
                    <path d="M18.9252368,1.80580753 C18.5815286,1.496484 18.0242928,1.496484 17.6806308,1.80580753 L8.96849443,9.64639963 C8.62478624,9.95568356 8.62478624,10.457174 8.96849443,10.7664975 C9.31215863,11.0757814 9.86939443,11.0757814 10.2130564,10.7664975 L18.9252346,2.9259054 C19.2688988,2.61658187 19.2688988,2.11509144 18.9252368,1.80580753 Z M15.6977774,10.2163129 C15.2161952,10.2163129 14.8257458,10.5676639 14.8257458,11.0011077 L14.8257458,14.925104 C14.8257458,15.3585498 14.4353404,15.7098988 13.9537142,15.7098988 L2.61721829,15.7098988 C2.1355921,15.7098988 1.7451867,15.3585478 1.7451867,14.925104 L1.7451867,2.36832002 C1.7451867,1.93491385 2.1355921,1.58352524 2.61721829,1.58352524 L11.3375761,1.58352524 C11.8192023,1.58352524 12.2096077,1.23217424 12.2096077,0.798730472 C12.2096077,0.365324309 11.8192023,0.0139356615 11.3375761,0.0139356615 L1.74518689,0.0139356615 C0.781978484,0.0139356615 0.00112369727,0.716675289 0.00112369727,1.5835272 L0.00112369727,15.7099219 C0.00112369727,16.5767718 0.781978506,17.279553 1.74518689,17.279553 L14.8257456,17.279553 C15.788998,17.279553 16.5698089,16.5767738 16.5698089,15.7099219 L16.5698089,11.001108 C16.5698089,10.5676639 16.1794036,10.2163129 15.6977774,10.2163129 Z" id="形状"></path>
                </g>
            </g>
        </g>
    </g>
</svg>
