<?xml version="1.0" encoding="UTF-8"?>
<svg width="18px" height="18px" viewBox="0 0 18 18" version="1.1" xmlns="http://www.w3.org/2000/svg" xmlns:xlink="http://www.w3.org/1999/xlink">
    <!-- Generator: Sketch 63 (92445) - https://sketch.com -->
    <title>完成 (2)</title>
    <desc>Created with Sketch.</desc>
    <g id="现场换装" stroke="none" stroke-width="1" fill="none" fill-rule="evenodd">
        <g id="装修diy-完成" transform="translate(-240.000000, -616.000000)" fill="#FFFFFF" fill-rule="nonzero">
            <g id="编组-3" transform="translate(240.000000, 615.000000)">
                <g id="完成-(2)-2" transform="translate(0.000000, 1.000000)">
                    <g id="完成-(2)">
                        <path d="M12.1597523,17.2610526 C9.13708979,17.2610526 6.6873065,14.928421 6.6873065,12.0505263 C6.6873065,9.17578947 9.13708977,6.84210525 12.1597523,6.84210525 C15.1801858,6.84210525 17.6310836,9.17473684 17.6310836,12.0515789 C17.6310836,14.9284211 15.1813003,17.2610526 12.1586378,17.2610526 L12.1597523,17.2610526 Z M12.1597523,7.88421053 C9.74117647,7.88421053 7.78179565,9.74947369 7.78179565,12.0515789 C7.78179565,14.3526316 9.74117645,16.2189474 12.1586378,16.2189474 C14.5772136,16.2189474 16.5365944,14.3526316 16.5365944,12.0505263 C16.5365944,10.9452631 16.0751703,9.88631578 15.2548607,9.10421053 C14.4365663,8.3234205 13.3218528,7.88381267 12.1586378,7.88315789 L12.1597523,7.88421053 Z M11.999257,14.4147368 C11.8549444,14.413967 11.7170821,14.3581656 11.6169659,14.26 L9.72334365,12.4252631 C9.54021213,12.2159451 9.55268457,11.9101303 9.75232197,11.7147368 C9.94965923,11.5211761 10.2733696,11.5086501 10.4868111,11.6863158 L11.999257,13.1494737 L14.7287926,10.5073684 C14.9419418,10.3294243 15.2656389,10.3414859 15.4632817,10.5347368 C15.6639009,10.7284211 15.6750464,11.0389474 15.4911455,11.2463158 L12.3804334,14.26 C12.2805868,14.3579052 12.143182,14.4136841 11.999257,14.4147368 L11.999257,14.4147368 Z M1.42996903,0 L13.3233436,0 C14.1124458,0 14.7533127,0.590526309 14.7533127,1.31578947 L14.7533127,5.66842105 C14.7533127,5.99894736 14.4624149,6.26842105 14.1024149,6.26842105 C13.9318515,6.27038718 13.7674483,6.20827484 13.6453785,6.09575047 C13.5233088,5.98322611 13.4535737,5.82950895 13.451517,5.66842105 L13.451517,1.31578947 C13.451225,1.28405741 13.4375196,1.25375109 13.4134489,1.23161077 C13.3893783,1.20947044 13.3569383,1.19733187 13.3233436,1.19789473 L1.42996903,1.19789473 C1.39637439,1.19733187 1.36393437,1.20947044 1.33986374,1.23161077 C1.31579311,1.25375109 1.30208771,1.28405741 1.30179565,1.31578947 L1.30179565,14.1831579 C1.30179565,14.2484211 1.35863777,14.3010526 1.42996903,14.3010526 L5.72656347,14.3010526 C6.08544891,14.3010526 6.3774613,14.5694737 6.3774613,14.9 C6.3774613,15.2305263 6.08544891,15.5 5.72656347,15.5 L1.42996903,15.5 C0.641981415,15.5 0,14.9084211 0,14.1831579 L0,1.31578947 C0,0.590526309 0.641981415,0 1.42996903,0 Z M3.34365324,4.73684209 C3.34365324,4.47999998 3.63789474,4.27263158 4.00346748,4.27263158 L10.8133746,4.27263158 C11.1789474,4.27263158 11.4731889,4.48 11.4731889,4.73684209 C11.4731889,4.99368418 11.1789474,5.20105262 10.8133746,5.20105262 L4.00346748,5.20105262 C3.63789474,5.20105262 3.34365324,4.9936842 3.34365324,4.73684209 Z" id="形状"></path>
                    </g>
                </g>
            </g>
        </g>
    </g>
</svg>
