<?xml version="1.0" encoding="UTF-8"?>
<svg width="18px" height="20px" viewBox="0 0 18 20" version="1.1" xmlns="http://www.w3.org/2000/svg" xmlns:xlink="http://www.w3.org/1999/xlink">
    <!-- Generator: Sketch 63 (92445) - https://sketch.com -->
    <title>商品</title>
    <desc>Created with Sketch.</desc>
    <g id="页面1" stroke="none" stroke-width="1" fill="none" fill-rule="evenodd">
        <g id="装修diy-家装首页" transform="translate(-216.000000, -622.000000)" fill-rule="nonzero">
            <g id="编组-2" transform="translate(205.000000, 622.000000)">
                <g id="商品" transform="translate(11.000000, 0.000000)">
                    <path d="M16.5,0.016125 C17.328,0.016125 18,0.743625 18,1.640625 L18,17.890125 C18,18.788625 17.328,19.516125 16.5,19.516125 L1.5,19.516125 C0.672,19.516125 0,18.788625 0,17.890125 L0,1.640625 C0,0.743625 0.672,0.016125 1.5,0.016125 L16.5,0.016125 Z M16.5,1.640625 L1.5,1.640625 L1.5,18.140625 L16.5,18.140625 L16.5,1.640625 Z" id="形状" fill="#FFFFFF"></path>
                    <path d="M6,5.390625 L6,6.205125 C6,7.826625 7.3425,9.140625 9,9.140625 C10.6575,9.140625 12,7.826625 12,6.205125 L12,5.390625 L13.5,5.390625 L13.5,6.140625 C13.5,8.62590637 11.4852814,10.640625 9,10.640625 C6.51471863,10.640625 4.5,8.62590637 4.5,6.140625 L4.5,5.390625 L6,5.390625 Z" id="路径" fill="#36D988"></path>
                </g>
            </g>
        </g>
    </g>
</svg>
