<?xml version="1.0" encoding="UTF-8"?>
<svg width="58px" height="60px" viewBox="0 0 58 60" version="1.1" xmlns="http://www.w3.org/2000/svg" xmlns:xlink="http://www.w3.org/1999/xlink">
    <!-- Generator: Sketch 63 (92445) - https://sketch.com -->
    <title>家具-97</title>
    <desc>Created with Sketch.</desc>
    <g id="现场换装" stroke="none" stroke-width="1" fill="none" fill-rule="evenodd">
        <g id="装修diy-家具空" transform="translate(-159.000000, -393.000000)" fill="#CCCCCC" fill-rule="nonzero">
            <g id="家具-97-2" transform="translate(159.000000, 393.000000)">
                <g id="家具-97">
                    <path d="M35.6367188,26.109375 L21.3398437,26.109375 C21.0117187,26.109375 20.7304688,25.96875 20.5429687,25.6875 C20.3554687,25.40625 20.3554687,25.078125 20.4492187,24.796875 L22.7929687,19.3125 C22.9804687,18.84375 23.5429687,18.609375 24.0117187,18.796875 C24.4804687,18.984375 24.7148437,19.546875 24.5273437,20.015625 L22.7460937,24.1875 L34.2304688,24.1875 L32.4492188,20.015625 C32.2617188,19.546875 32.4492188,18.984375 32.9648438,18.796875 C33.4335938,18.609375 33.9960938,18.796875 34.1835937,19.3125 L36.5273437,24.796875 C36.6679687,25.078125 36.6210937,25.40625 36.4335937,25.6875 C36.2460937,25.921875 35.9648437,26.109375 35.6367187,26.109375 L35.6367188,26.109375 Z" id="路径"></path>
                    <path d="M56.3554688,57.1875 L0.94921875,57.1875 C0.43359375,57.1875 0.01171875,56.765625 0.01171875,56.25 L0.01171875,25.171875 C0.01171875,24.65625 0.43359375,24.234375 0.94921875,24.234375 L56.3085938,24.234375 C56.8242188,24.234375 57.2460938,24.65625 57.2460938,25.171875 L57.2460938,56.25 C57.2929688,56.765625 56.8710938,57.1875 56.3554688,57.1875 Z M1.88671875,55.3125 L55.3710938,55.3125 L55.3710938,26.109375 L1.88671875,26.109375 L1.88671875,55.3125 Z" id="形状"></path>
                    <path d="M28.6523438,56.71875 L0.94921875,56.71875 C0.66796875,56.71875 0.48046875,56.53125 0.48046875,56.25 L0.48046875,25.171875 C0.48046875,24.890625 0.66796875,24.703125 0.94921875,24.703125 L28.6523438,24.703125 C28.9335937,24.703125 29.1210938,24.890625 29.1210938,25.171875 L29.1210938,56.25 C29.1210938,56.484375 28.9335937,56.71875 28.6523438,56.71875 Z M1.41796875,55.78125 L28.1835938,55.78125 L28.1835938,25.640625 L1.41796875,25.640625 L1.41796875,55.78125 Z" id="形状"></path>
                    <path d="M42.4804688,56.71875 L28.6523438,56.71875 C28.3710938,56.71875 28.1835938,56.53125 28.1835938,56.25 L28.1835938,25.171875 C28.1835938,24.890625 28.3710938,24.703125 28.6523438,24.703125 L42.4804688,24.703125 C42.7617188,24.703125 42.9492188,24.890625 42.9492188,25.171875 L42.9492188,56.25 C42.9492188,56.484375 42.7617188,56.71875 42.4804688,56.71875 Z M29.1210938,55.78125 L42.0117188,55.78125 L42.0117188,25.640625 L29.1210938,25.640625 L29.1210938,55.78125 Z" id="形状"></path>
                    <path d="M56.3554687,56.71875 L42.4804687,56.71875 C42.1992187,56.71875 42.0117187,56.53125 42.0117187,56.25 L42.0117187,25.171875 C42.0117187,24.890625 42.1992187,24.703125 42.4804687,24.703125 L56.3085937,24.703125 C56.5898437,24.703125 56.7773437,24.890625 56.7773437,25.171875 L56.7773437,56.25 C56.8242187,56.484375 56.5898437,56.71875 56.3554687,56.71875 Z M42.9492187,55.78125 L55.8398437,55.78125 L55.8398437,25.640625 L42.9492187,25.640625 L42.9492187,55.78125 Z M38.1210937,43.125 C37.8398437,43.125 37.6523437,42.9375 37.6523437,42.65625 L37.6523437,38.765625 C37.6523437,38.484375 37.8398437,38.296875 38.1210937,38.296875 C38.4023437,38.296875 38.5898437,38.484375 38.5898437,38.765625 L38.5898437,42.65625 C38.5898437,42.890625 38.4023437,43.125 38.1210937,43.125 Z" id="形状"></path>
                    <path d="M46.8398438,43.125 C46.5585938,43.125 46.3710938,42.9375 46.3710938,42.65625 L46.3710938,38.765625 C46.3710938,38.484375 46.5585938,38.296875 46.8398438,38.296875 C47.1210938,38.296875 47.3085938,38.484375 47.3085938,38.765625 L47.3085938,42.65625 C47.3085938,42.890625 47.1210938,43.125 46.8398438,43.125 Z M16.6992188,41.15625 L12.9492188,41.15625 C12.6679688,41.15625 12.4804688,40.96875 12.4804688,40.6875 C12.4804688,40.40625 12.6679688,40.21875 12.9492188,40.21875 L16.6992188,40.21875 C16.9804688,40.21875 17.1679688,40.40625 17.1679688,40.6875 C17.1679688,40.96875 16.9335938,41.15625 16.6992188,41.15625 Z M0.94921875,59.53125 C0.43359375,59.53125 0.01171875,59.109375 0.01171875,58.59375 L0.01171875,56.25 C0.01171875,55.734375 0.43359375,55.3125 0.94921875,55.3125 C1.46484375,55.3125 1.88671875,55.734375 1.88671875,56.25 L1.88671875,58.59375 C1.88671875,59.109375 1.46484375,59.53125 0.94921875,59.53125 Z M56.3554687,59.53125 C55.8398437,59.53125 55.4179687,59.109375 55.4179687,58.59375 L55.4179687,56.25 C55.4179687,55.734375 55.8398437,55.3125 56.3554687,55.3125 C56.8710937,55.3125 57.2929687,55.734375 57.2929687,56.25 L57.2929687,58.59375 C57.2929687,59.109375 56.8710937,59.53125 56.3554687,59.53125 Z M42.0117188,20.578125 L15.2929688,20.578125 C14.7773438,20.578125 14.3554688,20.15625 14.3554688,19.640625 L14.3554688,0.9375 C14.3554688,0.421875 14.7773438,0 15.2929688,0 L42.0117188,0 C42.5273437,0 42.9492188,0.421875 42.9492188,0.9375 L42.9492188,19.640625 C42.9492188,20.15625 42.5273437,20.578125 42.0117188,20.578125 Z M16.2304688,18.703125 L41.0742188,18.703125 L41.0742188,1.875 L16.2304688,1.875 L16.2304688,18.703125 Z" id="形状"></path>
                    <path d="M38.2617188,16.359375 L19.0429688,16.359375 C18.7617188,16.359375 18.5742188,16.171875 18.5742188,15.890625 L18.5742188,4.6875 C18.5742188,4.40625 18.7617188,4.21875 19.0429688,4.21875 L38.2617188,4.21875 C38.5429688,4.21875 38.7304688,4.40625 38.7304688,4.6875 L38.7304688,15.890625 C38.7304688,16.171875 38.5429688,16.359375 38.2617188,16.359375 Z M19.5117188,15.421875 L37.7929688,15.421875 L37.7929688,5.15625 L19.5117188,5.15625 L19.5117188,15.421875 Z" id="形状"></path>
                </g>
            </g>
        </g>
    </g>
</svg>
