<?xml version="1.0" encoding="UTF-8"?>
<svg width="18px" height="20px" viewBox="0 0 18 20" version="1.1" xmlns="http://www.w3.org/2000/svg" xmlns:xlink="http://www.w3.org/1999/xlink">
    <!-- Generator: Sketch 63 (92445) - https://sketch.com -->
    <title>方案 (1)</title>
    <desc>Created with Sketch.</desc>
    <g id="现场换装" stroke="none" stroke-width="1" fill="none" fill-rule="evenodd">
        <g id="装修diy-完成" transform="translate(-213.000000, -615.000000)" fill="#FFFFFF" fill-rule="nonzero" stroke="#FFFFFF" stroke-width="0.5">
            <g id="编组-3" transform="translate(214.000000, 616.000000)">
                <g id="方案-(1)-2">
                    <g id="方案-(1)">
                        <path d="M0.0271656562,9.56993418 C0.0271656562,7.4243333 0.0518400703,5.27849402 0.0165568535,3.13348915 C-0.000488759766,2.10240874 0.886478801,1.21591796 1.90146723,1.22970202 C4.89076604,1.27146519 7.88089925,1.24381079 10.8707941,1.24798279 C11.0042981,1.24822118 11.1921574,1.24941319 11.2590286,1.32975403 C11.3728647,1.46647649 11.5024351,1.69748617 11.4571391,1.83218222 C11.4005191,2.0004927 11.1839326,2.12684474 11.0151453,2.23960799 C10.9460093,2.2858576 10.8215645,2.2499784 10.7221516,2.2499784 C7.83166964,2.25021679 4.94118766,2.2499784 2.05058649,2.25033599 C1.30963899,2.25033599 1.03738607,2.51853609 1.03726688,3.2476828 C1.03714768,7.45925892 1.04787568,11.6709542 1.02618127,15.8825303 C1.02284367,16.5458786 1.45112943,16.9128956 2.03997769,16.9102732 C5.82446002,16.8939427 9.60906157,16.8917971 13.3934247,16.9120612 C14.0106425,16.9153987 14.4061483,16.480557 14.4029299,15.9029136 C14.3833811,12.5357506 14.3930363,9.16834922 14.3937515,5.80106704 C14.3938707,5.35144446 14.5575324,5.14713556 14.9080997,5.15822117 C15.1711742,5.16656517 15.3407959,5.29279803 15.3703575,5.56636215 C15.3819199,5.6745958 15.3795359,5.78449825 15.3795359,5.89368547 C15.3800127,9.25107404 15.3592719,12.608701 15.3915623,15.965732 C15.4021839,17.0918148 14.6006828,17.9209704 13.4382439,17.916814 C9.60405516,17.9032096 5.76986639,17.90762 1.93579683,17.914176 C0.831408381,17.9162024 0.00928564453,17.0773916 0.0204904512,16.0064984 C0.0429000645,13.8611359 0.0271656563,11.715535 0.0271656563,9.56993418" id="路径"></path>
                        <path d="M16.7293573,0.447554461 C16.7551045,0.847113029 16.4225363,1.00302669 16.2141746,1.21949397 C15.3988463,2.06641032 14.5611084,2.89198985 13.7276616,3.72150299 C13.068247,4.37758005 12.4009651,5.02578991 11.7403584,5.6809134 C11.2140902,6.2030096 10.6921132,6.72939703 10.1696594,7.25554603 C9.9534305,7.47296692 9.64160318,7.52315013 9.45016789,7.36592528 C9.2120062,7.17007961 9.17195497,6.85217308 9.40511027,6.60089937 C9.81492003,6.15902479 10.252861,5.74313583 10.6791204,5.31663804 L12.692886,3.30132282 C13.3568303,2.63690176 14.0195826,1.97116947 14.6853148,1.30865562 C15.0990582,0.896938646 15.505888,0.476758477 15.9429945,0.0912655195 C16.0470562,-0.000518519531 16.2703179,-0.0166105195 16.4199139,0.0168846855 C16.6230308,0.0625383105 16.7553429,0.224769568 16.7293573,0.447554461 M7.05961092,10.3701241 C8.32944904,10.3701241 9.59928715,10.3697665 10.8691253,10.3702433 C11.238407,10.3704817 11.4846743,10.5616786 11.4949255,10.8531227 C11.5055343,11.1502884 11.2418638,11.3787949 10.8738933,11.3790333 C8.32420424,11.3805829 5.7746344,11.3776029 3.22494536,11.3833274 C2.96353965,11.3839205 2.75207876,11.2910637 2.68794914,11.0550476 C2.64599072,10.9008027 2.68890274,10.6752762 2.78295158,10.5468978 C2.86186201,10.4390217 3.06903169,10.3789449 3.22029656,10.3776337 C4.49990907,10.3646409 5.77975999,10.3701241 7.05961092,10.3701241 M5.12559014,6.4430785 C5.7501984,6.4430785 6.37492584,6.4410521 6.99953411,6.4439129 C7.34056545,6.4454625 7.57050233,6.65370499 7.57326355,6.9531355 C7.57574713,7.24195723 7.33841984,7.45437171 6.9965541,7.45496771 C5.7373248,7.45747091 4.47797628,7.45735171 3.21874696,7.45508691 C2.88927802,7.45449091 2.63323631,7.23778522 2.62417711,6.96445951 C2.61511791,6.68970339 2.89273482,6.4447473 3.22184616,6.44367451 C3.85646722,6.4416481 4.49096908,6.4430785 5.12559014,6.4430785" id="形状"></path>
                    </g>
                </g>
            </g>
        </g>
    </g>
</svg>
