<?xml version="1.0" encoding="UTF-8"?>
<svg width="60px" height="54px" viewBox="0 0 60 54" version="1.1" xmlns="http://www.w3.org/2000/svg" xmlns:xlink="http://www.w3.org/1999/xlink">
    <!-- Generator: Sketch 63 (92445) - https://sketch.com -->
    <title>编组 3</title>
    <desc>Created with Sketch.</desc>
    <g id="现场换装" stroke="none" stroke-width="1" fill="none" fill-rule="evenodd">
        <g id="装修diy-空状态" transform="translate(-158.000000, -375.000000)" fill="#CCCCCC">
            <g id="编组-4" transform="translate(158.000000, 375.000000)">
                <g id="编组-3">
                    <g id="装修" transform="translate(6.000000, 0.000000)" fill-rule="nonzero">
                        <path d="M40.717727,29.2738664 L39.5622774,28.1183842 L37.5679398,30.0890354 L38.7233894,31.2445177 C39.3169422,31.8380874 39.3644265,32.8431987 38.8104438,33.4051113 L34.307356,37.2356142 C33.697975,37.8450124 32.6849781,37.8450124 32.0676832,37.2276999 L20.4103047,25.6253916 C18.6929584,23.915911 15.8913889,23.915911 14.1740426,25.6174773 L13.6596301,26.1319044 L10.7156078,23.2115416 C10.4386165,22.9345425 10.0824848,22.8 9.71843902,22.8 C9.35439326,22.8 8.99826154,22.9345425 8.7212702,23.2115416 L7.81115579,24.1137675 C7.81115579,24.1137675 2.81739763,29.0680956 1.28998824,30.587634 C0.459014221,31.4107172 0,32.5107997 0,33.6821105 C0,34.8534213 0.459014221,35.9535037 1.28998824,36.7845012 L5.18369508,40.7178895 C6.0146691,41.5409728 7.12263446,42 8.30182617,42 C9.48101787,42 10.5889832,41.5488871 11.4199573,40.7178895 L17.7591019,33.9591096 L18.6692163,33.0489695 C18.9382936,32.7877988 19.0807463,32.431657 19.0807463,32.0596867 C19.0807463,31.6877164 18.9382936,31.3315746 18.6692163,31.070404 L15.6460537,28.1183842 L16.1604662,27.6039571 C16.7777612,26.9866447 17.7907581,26.9866447 18.4080531,27.6039571 L18.5584198,27.7543281 L30.0654315,39.2141797 C30.9043195,40.0451772 32.0201989,40.5042045 33.2152187,40.5042045 C34.3706683,40.5042045 35.4311494,40.0768343 36.2146392,39.2933223 L40.717727,35.4628195 C41.540787,34.6397362 41.9999019,33.5396538 41.9999019,32.368343 C42.0077152,31.2049464 41.548701,30.0969497 40.717727,29.2738664 L40.717727,29.2738664 Z M14.9891885,33.1914262 L10.4623586,38.0666117 C9.95586017,38.6126958 9.27525288,38.921352 8.53133328,38.9450948 L8.44427886,38.9450948 C7.72410137,38.9450948 7.04349408,38.6680956 6.51325351,38.1694971 L4.09947183,35.8743611 C3.54548915,35.3520198 3.23684166,34.6476505 3.22892762,33.9037098 C3.22101358,33.1676834 3.49800492,32.4712284 4.02033145,31.9488871 L8.87955096,27.0657873 C9.14862826,26.7967024 9.50475999,26.6463314 9.88463382,26.6463314 C10.2724217,26.6463314 10.6364675,26.7967024 10.9055448,27.0737016 L14.9496183,31.1178895 C15.511515,31.6798021 15.5273431,32.6136851 14.9891885,33.1914262 L14.9891885,33.1914262 Z" id="形状"></path>
                        <path d="M27.9763902,1.2464592 C27.4943415,0.762166136 26.8779512,0.40490076 26.1983415,0.198480765 C25.7558049,0.0635138446 25.3053659,0 24.8628293,0 C23.6932683,0 22.5553171,0.436657682 21.7492683,1.2464592 L15.6880976,7.35966675 C14.8583415,8.19328596 14.4,9.29683901 14.4,10.4718451 C14.4,11.6468513 14.8583415,12.7504043 15.6880976,13.5760843 L33.2157073,31.1138446 C34.0454634,31.9474639 35.1518049,32.4 36.3292683,32.4 C37.5067317,32.4 38.6051707,31.9395246 39.4428293,31.1138446 L40.8020488,29.7006616 L45.5119024,25.0085763 C46.3416585,24.1749571 46.8,23.0714041 46.8,21.8963979 C46.8,20.7213918 46.3416585,19.6178388 45.5119024,18.7921588 L27.9763902,1.2464592 L27.9763902,1.2464592 Z M43.7101463,23.1984318 L39.0160976,27.8746386 L37.6094634,29.335457 C37.2854634,29.6609654 36.8192195,29.8435678 36.3213659,29.8435678 C35.8077073,29.8435678 35.3493659,29.6530262 34.9937561,29.2957608 L17.4740488,11.7659397 C17.1263415,11.4166136 16.9366829,10.9561382 16.9366829,10.4639059 C16.9366829,9.97167361 17.1263415,9.51119824 17.4740488,9.16187209 L23.543122,3.04072531 C23.9856585,2.5961284 24.7838049,2.42940456 25.4634146,2.63582455 C25.74,2.72315609 25.992878,2.86606224 26.1746341,3.04866454 L43.7101463,20.5864249 C44.0657561,20.935751 44.2475122,21.3882872 44.2475122,21.8884587 C44.2475122,22.3886302 44.0736585,22.8411664 43.7101463,23.1984318 L43.7101463,23.1984318 Z" id="形状"></path>
                        <path d="M41.5627864,27.2106774 C41.8432631,26.9539276 42,26.6115945 42,26.2459205 C42,25.8802465 41.8515124,25.5301331 41.5792851,25.265603 L26.5242896,11.2143854 C25.9550871,10.6697646 25.0229148,10.6619843 24.4454629,11.1910445 C24.1649863,11.4477943 24.0082493,11.7901274 24,12.1635817 C24,12.5292557 24.1484876,12.8793691 24.4207149,13.1438992 L39.492209,27.1873365 C39.756187,27.4440864 40.1109074,27.591912 40.4986251,27.5996923 L40.548121,27.5996923 C40.9193401,27.6074726 41.2905591,27.4674273 41.5627864,27.2106774 Z" id="路径"></path>
                    </g>
                    <g id="编组-2" transform="translate(0.000000, 50.400000)">
                        <rect id="矩形" x="0" y="0" width="49.2" height="3" rx="1.5"></rect>
                        <rect id="矩形备份" x="52.8" y="0" width="7.2" height="3" rx="1.5"></rect>
                    </g>
                </g>
            </g>
        </g>
    </g>
</svg>
