<?xml version="1.0" encoding="UTF-8"?>
<svg width="18px" height="18px" viewBox="0 0 18 18" version="1.1" xmlns="http://www.w3.org/2000/svg" xmlns:xlink="http://www.w3.org/1999/xlink">
    <!-- Generator: Sketch 63 (92445) - https://sketch.com -->
    <title>替换 (1)</title>
    <desc>Created with Sketch.</desc>
    <g id="现场换装" stroke="none" stroke-width="1" fill="none" fill-rule="evenodd">
        <g id="装修diy-设计家" transform="translate(-41.000000, -389.000000)" fill="#36D988" fill-rule="nonzero">
            <g id="编组-4备份-2" transform="translate(35.000000, 386.000000)">
                <g id="编组-5" transform="translate(6.000000, 3.000000)">
                    <g id="替换-(1)">
                        <path d="M8.82809502,0.00803197266 C3.95977574,0.00803197266 0.0132115039,3.95459621 0.0132115039,8.82291549 C0.0132115039,13.6912747 3.95977574,17.637819 8.82809502,17.637819 C13.6964543,17.637819 17.6430185,13.6912547 17.6430185,8.82291549 C17.6430185,3.95459621 13.6964543,0.00803197266 8.82809502,0.00803197266 Z M4.0132115,6.58039646 L11.5191796,6.58039646 L10.4339349,5.5318372 L10.9760662,5.00803197 L12.5039286,6.48422006 L13.0132115,6.97628721 L10.9103831,9.00803197 L10.4011002,8.51596482 L11.519221,7.43565413 L4.0132115,7.43565413 L4.0132115,6.58039646 Z M13.0132115,11.4356594 L5.50723192,11.4356727 L6.59247828,12.4842285 L6.05034611,13.008032 L4.52249515,11.5318488 L4.0132115,11.0397833 L6.11604316,9.00803197 L6.62532681,9.50009748 L5.50720426,10.5804179 L13.0132115,10.5804046 L13.0132115,11.4356594 Z" id="形状"></path>
                    </g>
                </g>
            </g>
        </g>
    </g>
</svg>
