<?xml version="1.0" encoding="UTF-8"?>
<svg width="13px" height="9px" viewBox="0 0 13 9" version="1.1" xmlns="http://www.w3.org/2000/svg" xmlns:xlink="http://www.w3.org/1999/xlink">
    <!-- Generator: Sketch 63 (92445) - https://sketch.com -->
    <title>向下</title>
    <desc>Created with Sketch.</desc>
    <g id="现场换装" stroke="none" stroke-width="1" fill="none" fill-rule="evenodd">
        <g id="装修diy-设计家" transform="translate(-172.000000, -613.000000)" fill="#36D988" fill-rule="nonzero" stroke="#36D988" stroke-width="0.5">
            <g id="编组-19" transform="translate(171.000000, 612.000000)">
                <g id="编组-6" transform="translate(7.178571, 5.321429) scale(1, -1) rotate(-90.000000) translate(-7.178571, -5.321429) translate(2.178571, -1.178571)">
                    <g id="向下" transform="translate(4.892857, 6.783482) rotate(-270.000000) translate(-4.892857, -6.783482) translate(-1.107143, 2.783482)">
                        <path d="M5.60205208,7.36789773 C5.46033053,7.36789773 5.31860897,7.28348214 5.17688742,7.11465097 L0.216633046,1.20556006 C-0.0668100606,0.952313312 -0.0668100606,0.445819805 0.216633046,0.192573052 C0.500076153,-0.0606737013 0.854380037,-0.0606737013 1.06696237,0.192573052 L5.60205208,5.59517045 L10.1371418,0.192573052 C10.3497241,-0.0606737013 10.7748888,-0.0606737013 10.9874711,0.192573052 C11.2000534,0.445819805 11.2000534,0.952313312 10.9874711,1.20556006 L6.02721674,7.11465097 C5.88549519,7.28348214 5.74377363,7.36789773 5.60205208,7.36789773 Z" id="路径"></path>
                    </g>
                </g>
            </g>
        </g>
    </g>
</svg>
