<?xml version="1.0" encoding="UTF-8"?>
<svg width="23px" height="27px" viewBox="0 0 23 27" version="1.1" xmlns="http://www.w3.org/2000/svg" xmlns:xlink="http://www.w3.org/1999/xlink">
    <!-- Generator: Sketch 63 (92445) - https://sketch.com -->
    <title>坐标</title>
    <desc>Created with Sketch.</desc>
    <g id="第二期" stroke="none" stroke-width="1" fill="none" fill-rule="evenodd">
        <g id="icon集合" transform="translate(-86.000000, -245.000000)" fill="#F2AA36" fill-rule="nonzero">
            <g id="编组-8" transform="translate(86.000000, 245.000000)">
                <g id="坐标" transform="translate(1.000000, 1.000000)">
                    <path d="M16.565625,1.935 C16.520625,1.89 16.430625,1.845 16.385625,1.8 C16.340625,1.755 16.295625,1.755 16.295625,1.71 L16.025625,1.575 L15.890625,1.485 C15.215625,1.08 14.495625,0.765 13.775625,0.54 L13.685625,0.495 C13.460625,0.45 13.280625,0.36 13.010625,0.315 L12.920625,0.27 C12.650625,0.225 12.425625,0.18 12.200625,0.135 L12.155625,0.135 C11.885625,0.09 11.615625,0.045 11.390625,0.045 L11.255625,0.045 C11.030625,0.045 10.850625,0.045 10.625625,-1.99840144e-16 L10.085625,-1.99840144e-16 C9.950625,-1.99840144e-16 9.815625,-1.99840144e-16 9.680625,0.045 L9.545625,0.045 C9.365625,0.045 9.185625,0.09 9.005625,0.09 C8.645625,0.135 8.330625,0.225 8.015625,0.27 C7.970625,0.27 7.925625,0.315 7.880625,0.315 C7.430625,0.45 7.025625,0.585 6.620625,0.72 C5.675625,1.08 4.820625,1.575 4.055625,2.205 C4.010625,2.205 3.965625,2.25 3.965625,2.295 C1.445625,4.32 0.005625,7.335 0.005625,10.575 C0.005625,13.095 0.905625,15.57 2.525625,17.46 L2.570625,17.505 C2.660625,17.595 3.245625,18.225 3.605625,18.54 L9.860625,24.84 C10.040625,25.02 10.310625,25.155 10.580625,25.155 C10.850625,25.155 11.120625,25.065 11.300625,24.84 L17.555625,18.54 C17.915625,18.225 18.545625,17.55 18.590625,17.505 L18.635625,17.46 C20.255625,15.525 21.155625,13.095 21.155625,10.575 C21.065625,7.155 19.400625,3.915 16.565625,1.935 Z" id="路径"></path>
                </g>
            </g>
        </g>
    </g>
</svg>
