<?xml version="1.0" encoding="UTF-8"?>
<svg width="13px" height="13px" viewBox="0 0 13 13" version="1.1" xmlns="http://www.w3.org/2000/svg" xmlns:xlink="http://www.w3.org/1999/xlink">
    <!-- Generator: Sketch 63 (92445) - https://sketch.com -->
    <title>退出</title>
    <desc>Created with Sketch.</desc>
    <g id="展示端2.3" stroke="none" stroke-width="1" fill="none" fill-rule="evenodd">
        <g id="展示端2.3-vr带看-客户" transform="translate(-314.000000, -634.000000)" fill="#FFFFFF" fill-rule="nonzero">
            <g id="功能导航" transform="translate(0.000000, 612.000000)">
                <g id="退出" transform="translate(305.000000, 16.000000)">
                    <g id="编组-10" transform="translate(9.000000, 6.000000)">
                        <g id="退出">
                            <path d="M8.56607254,2.47959184 C8.293397,2.31123267 8.20559375,1.95026906 8.36959451,1.67186074 C8.44798996,1.53808536 8.57555922,1.44165368 8.7240369,1.40393198 C8.87251457,1.36621029 9.02964095,1.39031324 9.16060168,1.47090036 C10.9849578,2.59284417 12.09875,4.60539516 12.0959949,6.77495798 C12.0959949,10.1906363 9.38796847,12.96 6.04816044,12.96 C2.70771553,12.96 6.31728526e-06,10.1906363 6.31728526e-06,6.77495798 C-0.00306438623,4.60227631 1.11350618,2.58710462 2.94176958,1.46571429 C3.07299211,1.3856776 3.23009134,1.3620223 3.37845977,1.39995943 C3.52682819,1.43789655 3.65429367,1.53431375 3.73277675,1.66797119 C3.89598442,1.94713842 3.80791751,2.30801242 3.5353434,2.4769988 C2.05376815,3.38368814 1.1484182,5.01533479 1.15053959,6.77495798 C1.15053959,9.54043217 3.34236822,11.7821128 6.04656824,11.7821128 C8.7510867,11.7821128 10.9429153,9.54043217 10.9429153,6.77495798 C10.9453168,5.01802588 10.0434389,3.38817655 8.56607254,2.47959184 L8.56607254,2.47959184 Z M6.04656824,0 C6.36500913,0 6.62199313,0.264165666 6.62199313,0.589915966 L6.62199313,5.3027611 C6.62241372,5.45846916 6.56200616,5.60796136 6.45407511,5.71830691 C6.34614405,5.82865247 6.19954385,5.89079894 6.04656824,5.89105642 C5.72812735,5.89105642 5.47145332,5.62721489 5.47145332,5.3027611 L5.47145332,0.589915966 C5.47053208,0.433957677 5.53068106,0.284047382 5.6386076,0.173341207 C5.74653415,0.0626350329 5.89334453,0.000255757444 6.04656824,0 Z" id="形状"></path>
                        </g>
                    </g>
                </g>
            </g>
        </g>
    </g>
</svg>
