<?xml version="1.0" encoding="UTF-8"?>
<svg width="24px" height="24px" viewBox="0 0 24 24" version="1.1" xmlns="http://www.w3.org/2000/svg" xmlns:xlink="http://www.w3.org/1999/xlink">
    <!-- Generator: Sketch 63 (92445) - https://sketch.com -->
    <title>户型图 (1)</title>
    <desc>Created with Sketch.</desc>
    <g id="展示端2.3" stroke="none" stroke-width="1" fill="none" fill-rule="evenodd">
        <g id="icon" transform="translate(-131.000000, -57.000000)">
            <g id="编组-14" transform="translate(123.000000, 57.000000)">
                <g id="户型图-(1)" transform="translate(10.000000, 3.000000)">
                    <path d="M19.4677464,6.96142471 L13.9237959,6.96142471 C13.0953687,6.96142471 12.4237959,6.28985184 12.4237959,5.46142471 L12.4237959,0.478740223 L12.4237959,0.478740223 C12.4237959,0.210438641 12.1903385,0.000463492005 11.892032,0.000463492005 L0.531763893,0.000463492005 C0.233457317,-0.0112017911 0,0.198773358 0,0.46707494 L0,17.5217233 C0,17.7900249 0.233457317,18 0.531763893,18 L19.4677464,18 C19.766053,18 19.9995103,17.7900249 19.9995103,17.5217233 L19.9995103,7.43970144 C20.0124802,7.17139986 19.766053,6.96142471 19.4677464,6.96142471 Z" id="路径" stroke="#FFFFFF" stroke-width="1.6" stroke-linejoin="round" fill-rule="nonzero"></path>
                    <rect id="矩形" fill="#16D475" x="3" y="7" width="6" height="1.5" rx="0.75"></rect>
                </g>
            </g>
        </g>
    </g>
</svg>
