<?xml version="1.0" encoding="UTF-8"?>
<svg width="24px" height="24px" viewBox="0 0 24 24" version="1.1" xmlns="http://www.w3.org/2000/svg" xmlns:xlink="http://www.w3.org/1999/xlink">
    <!-- Generator: Sketch 63 (92445) - https://sketch.com -->
    <title>空间</title>
    <desc>Created with Sketch.</desc>
    <g id="展示端2.3" stroke="none" stroke-width="1" fill="none" fill-rule="evenodd">
        <g id="icon" transform="translate(-183.000000, -58.000000)" fill-rule="nonzero">
            <g id="编组-7" transform="translate(177.000000, 58.000000)">
                <g id="空间" transform="translate(8.000000, 1.000000)">
                    <path d="M9.9317625,0.119178125 L18.6723625,5.16597812 C18.9152497,5.30620907 19.0650625,5.5653162 19.0650625,5.84577812 L19.0650625,15.9393781 C19.0650625,16.2198401 18.9152497,16.4789472 18.6723625,16.6191781 L9.9317625,21.6659781 C9.68875889,21.8062763 9.38936611,21.8062763 9.1463625,21.6659781 L0.4057625,16.6191781 C0.1628753,16.4789472 0.0130625,16.2198401 0.0130625,15.9393781 L0.0130625,5.84577812 C0.0130625,5.56527812 0.1626625,5.30677813 0.4057625,5.16597812 L9.1463625,0.119178125 C9.38936611,-0.0211200722 9.68875889,-0.0211200722 9.9317625,0.119178125 Z M9.5390625,1.70757812 L1.5838625,6.30007812 L1.5838625,15.4850781 L9.5390625,20.0775781 L17.4942625,15.4850781 L17.4942625,6.30007812 L9.5390625,1.70757812 Z" id="形状" fill="#FFFFFF"></path>
                    <path d="M14.3020625,8.14257812 C14.406474,8.3229916 14.4348834,8.53751154 14.3810328,8.73888405 C14.3271821,8.94025657 14.195489,9.11196222 14.0149625,9.21617813 L10.3244625,11.3457781 L10.3244625,15.6071781 C10.3244625,16.0409426 9.97282694,16.3925781 9.5390625,16.3925781 C9.10529806,16.3925781 8.7536625,16.0409426 8.7536625,15.6071781 L8.7536625,11.3457781 L5.0620625,9.21617812 C4.68631557,8.99899215 4.55777652,8.51832505 4.7749625,8.14257812 C4.99214848,7.7668312 5.47281557,7.63829215 5.8485625,7.85547812 L9.5390625,9.98507812 L13.2284625,7.85547812 C13.408876,7.75106663 13.6233959,7.72265723 13.8247684,7.77650787 C14.0261409,7.83035851 14.1978466,7.9620516 14.3020625,8.14257812 L14.3020625,8.14257812 Z" id="路径" fill="#16D475"></path>
                </g>
            </g>
        </g>
    </g>
</svg>
