<?xml version="1.0" encoding="UTF-8"?>
<svg width="18px" height="20px" viewBox="0 0 18 20" version="1.1" xmlns="http://www.w3.org/2000/svg" xmlns:xlink="http://www.w3.org/1999/xlink">
    <!-- Generator: Sketch 63 (92445) - https://sketch.com -->
    <title>空间</title>
    <desc>Created with Sketch.</desc>
    <g id="展示端2.3" stroke="none" stroke-width="1" fill="none" fill-rule="evenodd">
        <g id="展示端2.3-vr带看-客户-无人应答" transform="translate(-211.000000, -623.000000)" fill="#FFFFFF" fill-rule="nonzero">
            <g id="编组-7" transform="translate(202.000000, 623.000000)">
                <g id="空间" transform="translate(9.000000, 0.000000)">
                    <path d="M9.028875,0.10834375 L16.974875,4.69634375 C17.1956815,4.82382643 17.331875,5.05937836 17.331875,5.31434375 L17.331875,14.4903438 C17.331875,14.7453091 17.1956815,14.9808611 16.974875,15.1083437 L9.028875,19.6963437 C8.80796263,19.8238876 8.53578737,19.8238876 8.314875,19.6963437 L0.368875,15.1083438 C0.148068454,14.9808611 0.011875,14.7453091 0.011875,14.4903437 L0.011875,5.31434375 C0.011875,5.05934375 0.147875,4.82434375 0.368875,4.69634375 L8.314875,0.10834375 C8.53578737,-0.0192000656 8.80796263,-0.0192000656 9.028875,0.10834375 Z M8.67674469,1.42259754 L1.29454435,5.83147231 L1.29454435,14.2554808 L8.67674469,18.375835 L16.1207257,14.2554808 L16.1207257,5.57798325 L8.67674469,1.42259754 Z" id="形状"></path>
                    <path d="M13.1565854,7.98371819 C13.1076303,8.16678411 12.90499,8.28360201 12.740875,8.37834375 L9.385875,10.3143438 L9.385875,14.1883438 C9.385875,14.5826751 9.19524053,14.8865092 8.80090922,14.8865092 C8.40657791,14.8865092 8.18645,14.5826751 8.18645,14.1883438 L8.18645,10.3143438 L4.601875,8.37834375 C4.26028688,8.18090195 4.01463332,7.74393187 4.21207511,7.40234375 C4.40951691,7.06075563 4.85886871,7.05502335 5.20045683,7.25246515 L8.72836053,9.26025629 L12.1987787,7.21313489 C12.362791,7.11821535 12.5578091,7.09238862 12.740875,7.14134375 C12.9239409,7.19029888 13.0618436,7.23822873 13.1565854,7.40234375 C13.2515049,7.566356 13.2055405,7.80065226 13.1565854,7.98371819 Z" id="路径"></path>
                </g>
            </g>
        </g>
    </g>
</svg>
