<?xml version="1.0" encoding="UTF-8"?>
<svg width="22px" height="22px" viewBox="0 0 22 22" version="1.1" xmlns="http://www.w3.org/2000/svg" xmlns:xlink="http://www.w3.org/1999/xlink">
    <!-- Generator: Sketch 63 (92445) - https://sketch.com -->
    <title>编组 17</title>
    <desc>Created with Sketch.</desc>
    <g id="展示端2.3" stroke="none" stroke-width="1" fill="none" fill-rule="evenodd">
        <g id="展示端2.3-经纪人三人以上展开" transform="translate(-327.000000, -436.000000)">
            <g id="编组-7" transform="translate(0.000000, 359.000000)">
                <g id="编组-20" transform="translate(15.000000, 69.000000)">
                    <g id="编组-22" transform="translate(313.000000, 9.000000)">
                        <g id="编组-17">
                            <circle id="椭圆形" stroke="#FFFFFF" stroke-width="0.84" fill="#16D475" cx="10.08" cy="10.08" r="10.08"></circle>
                            <g id="语音" transform="translate(5.760000, 2.880000)" fill="#FFFFFF" fill-rule="nonzero">
                                <path d="M9.072,5.94488011 L9.072,5.93698518 C9.072,5.5990823 8.79244374,5.32433884 8.45218384,5.32433884 C8.11032647,5.32433884 7.83875753,5.5990823 7.83875753,5.93698518 C7.83875753,7.74492348 6.35950555,9.21337993 4.53679873,9.21337993 C2.71409192,9.21337993 1.23483994,7.74492348 1.23483994,5.93698518 C1.23483994,5.5990823 0.963270998,5.32433884 0.621413629,5.32433884 C0.27955626,5.32433884 0,5.5990823 0,5.93698518 L0,5.94488011 C0,8.22177708 1.70289699,10.0976118 3.9153851,10.394461 L3.9153851,11.8771283 L1.85625357,11.8771283 C1.5143962,11.8771283 1.23483994,12.1518718 1.23483994,12.4897747 C1.23483994,12.8292565 1.51279873,13.104 1.85625357,13.104 L7.21574643,13.104 C7.55920127,13.102421 7.83716006,12.8292565 7.83716006,12.4897747 C7.83716006,12.1518718 7.5576038,11.8771283 7.21574643,11.8771283 L5.15821236,11.8771283 L5.15821236,10.394461 C7.37070048,10.0976118 9.072,8.22177708 9.072,5.94488011 Z M4.53679873,8.1870394 C5.90422821,8.1870394 7.01446593,7.08964454 7.01446593,5.73171707 L7.01446593,2.45532233 C7.01446593,1.10213182 5.90582567,0 4.53679873,0 C3.16936926,0 2.060729,1.10371081 2.060729,2.45532233 L2.060729,5.73171707 C2.060729,7.08964454 3.16936926,8.1870394 4.53679873,8.1870394 Z" id="形状"></path>
                            </g>
                        </g>
                    </g>
                </g>
            </g>
        </g>
    </g>
</svg>
