<?xml version="1.0" encoding="UTF-8"?>
<svg width="25px" height="20px" viewBox="0 0 25 20" version="1.1" xmlns="http://www.w3.org/2000/svg" xmlns:xlink="http://www.w3.org/1999/xlink">
    <!-- Generator: Sketch 63 (92445) - https://sketch.com -->
    <title>编组 5</title>
    <desc>Created with Sketch.</desc>
    <g id="展示端2.3" stroke="none" stroke-width="1" fill="none" fill-rule="evenodd">
        <g id="icon" transform="translate(-230.000000, -59.000000)">
            <g id="编组-10" transform="translate(228.000000, 57.000000)">
                <g id="编组-5" transform="translate(2.000000, 0.000000)">
                    <g id="ai讲房" transform="translate(0.601504, 2.000000)">
                        <path d="M11.9812116,0.8 C7.92322075,0.8 4.74038813,3.13319575 2.82428333,6.02327362 C1.66972716,7.76470095 0.969569954,9.71359569 0.8268531,11.4973159 C0.699686778,13.0866806 1.00894938,14.5518047 1.91032827,15.5479935 C3.60946059,17.425846 7.89210146,19.1692982 11.9173415,19.1692982 C16.5301856,19.1692982 21.1083963,17.4850452 22.5686419,15.5955496 C23.280274,14.674728 23.3948478,13.1358146 23.1104022,11.4439446 C22.8016192,9.60731686 21.9895442,7.57309489 20.7352356,5.77501442 C18.8123599,3.01852745 15.8356529,0.8 11.9812116,0.8 Z" id="三角形" stroke="#FFFFFF" stroke-width="1.6"></path>
                        <rect id="矩形" fill="#16D475" x="6.88753979" y="6.65643273" width="1.51315789" height="3.99385964" rx="0.756578947"></rect>
                        <path d="M17.1906293,6.97826715 C17.4006418,7.18757667 17.4012116,7.52750429 17.1919021,7.73751673 C17.1560025,7.77353689 17.1151671,7.8042736 17.0706202,7.82880536 L14.6698222,9.15091328 C14.3213169,9.34283348 13.888759,9.28773698 13.5994922,9.01458133 C13.3988246,8.82509031 13.3897642,8.50880427 13.5792552,8.30813671 C13.6119949,8.27346604 13.6495283,8.24365984 13.6907139,8.21962477 L16.0654762,6.83376244 C16.4298803,6.62110372 16.8917892,6.6804272 17.1906293,6.97826715 Z" id="矩形备份" fill="#16D475"></path>
                        <path d="M17.0567372,10.5423512 C16.8244674,10.8042313 16.4385121,10.8633199 16.1385314,10.6829257 L13.6873383,9.20889433 C13.4498426,9.06607564 13.3730916,8.75776986 13.5159103,8.5202741 C13.5317937,8.49386133 13.5500768,8.4689681 13.5705277,8.44591002 C13.8027976,8.18402993 14.1887529,8.12494135 14.4887335,8.30533551 L16.9399266,9.77936688 C17.1774224,9.92218558 17.2541733,10.2304914 17.1113546,10.4679871 C17.0954712,10.4943999 17.0771881,10.5192931 17.0567372,10.5423512 Z" id="矩形备份" fill="#16D475"></path>
                    </g>
                </g>
            </g>
        </g>
    </g>
</svg>
