<?xml version="1.0" encoding="UTF-8"?>
<svg width="24px" height="24px" viewBox="0 0 24 24" version="1.1" xmlns="http://www.w3.org/2000/svg" xmlns:xlink="http://www.w3.org/1999/xlink">
    <!-- Generator: Sketch 63 (92445) - https://sketch.com -->
    <title>电话</title>
    <desc>Created with Sketch.</desc>
    <defs>
        <path d="M11.2549222,2.59014432 C9.45151277,2.59980215 8.61849179,3.26000405 7.96602754,3.87825521 C7.73039747,4.10492799 7.71042128,4.47388917 7.8893596,4.7393256 C7.99680891,4.88219348 8.14065009,4.96339076 8.30295694,4.96252846 C8.42919561,4.96184551 8.55565006,4.9201845 8.64636,4.81723922 C9.19008021,4.30202992 9.805721,3.82741927 11.2484486,3.819693 C12.7092103,3.81187015 13.3738823,4.30011623 13.8222531,4.76902876 C14.0374754,4.99328708 14.3801232,4.99145209 14.579793,4.74447999 C14.7794628,4.4975079 14.7815128,4.10815082 14.5662905,3.8838925 C13.9924363,3.27220867 13.112434,2.58019675 11.2549222,2.59014432 L11.2549222,2.59014432 Z" id="path-1"></path>
    </defs>
    <g id="展示端2.3" stroke="none" stroke-width="1" fill="none" fill-rule="evenodd">
        <g id="icon" transform="translate(-79.000000, -57.000000)">
            <g id="编组-7" transform="translate(79.000000, 57.000000)">
                <g id="电话">
                    <g transform="translate(3.379310, 0.000000)">
                        <path d="M11.5976914,23.3103448 C7.92936901,23.3103448 4.38262473,20.750518 1.95315096,16.1880057 C-0.914387203,10.8024374 -0.597065652,5.28869965 2.7247751,2.77947254 C3.81691441,1.95436286 5.28675893,1.56599445 6.46603453,1.78863327 C7.95614617,2.07006181 9.0312611,4.85601628 9.42434477,6.04071806 C10.412348,9.01749166 9.81054991,9.68097911 9.61279205,9.89894147 C9.32669415,10.2138475 8.66409475,10.5644579 6.926405,11.3124184 C7.42283866,12.6832629 8.48498262,14.423671 9.03045042,14.9422626 C9.04585343,14.934518 9.06164949,14.9267486 9.07786318,14.9185834 C10.6713002,14.1201963 11.6613179,13.7114148 12.32716,13.8322356 C14.2723604,14.1873492 16.4039691,18.604545 16.403576,20.3147665 C16.403576,21.6802912 14.9394062,22.6470306 14.0166509,22.9356099 C13.2113956,23.1874951 12.4017184,23.3103448 11.5976914,23.3103448 L11.5976914,23.3103448 Z M13.8086565,22.4501189 L13.8262751,22.4501189 L13.8086565,22.4501189 Z M5.81053497,3.45338442 C5.16320272,3.45338442 4.37206744,3.7226707 3.78121712,4.17145657 C1.63813411,5.79840988 0.629885871,10.0000921 3.47998834,15.3803842 C5.46484428,19.1282651 9.13131193,22.6479914 13.4719444,21.2836617 C14.0812254,21.0922381 14.6768838,20.539037 14.6768838,20.2658908 C14.6772722,18.8433669 12.7953756,15.6697815 12.0214811,15.4653521 C11.8207834,15.4781366 11.2708011,15.6545385 9.80710368,16.3916645 C9.33361236,16.6299483 9.2334699,16.6804226 9.01715826,16.6804226 L9.01436574,16.6804226 C7.38282527,16.6781853 5.43201389,12.2491598 5.15521365,11.0427927 C5.00580127,10.3523056 5.53135501,10.126413 6.08774798,9.88731783 C7.28467398,9.37286377 8.0365439,9.01919964 8.32895798,8.833652 C8.51081225,7.60719841 6.85683443,3.7674657 6.16984831,3.48458356 C6.05729731,3.46351369 5.93670866,3.45338442 5.81053497,3.45338442 Z" id="形状" fill="#FFFFFF" fill-rule="nonzero"></path>
                        <mask id="mask-2" fill="white">
                            <use xlink:href="#path-1"></use>
                        </mask>
                        <use id="路径" fill="#16D475" fill-rule="nonzero" transform="translate(11.249385, 3.776283) rotate(71.000000) translate(-11.249385, -3.776283) " xlink:href="#path-1"></use>
                    </g>
                </g>
            </g>
        </g>
    </g>
</svg>
