<?xml version="1.0" encoding="UTF-8"?>
<svg width="22px" height="20px" viewBox="0 0 22 20" version="1.1" xmlns="http://www.w3.org/2000/svg" xmlns:xlink="http://www.w3.org/1999/xlink">
    <!-- Generator: Sketch 63 (92445) - https://sketch.com -->
    <title>邀请人</title>
    <desc>Created with Sketch.</desc>
    <g id="展示端2.3" stroke="none" stroke-width="1" fill="none" fill-rule="evenodd">
        <g id="展示端2.3-经纪人通话" transform="translate(-179.000000, -624.000000)" fill="#FFFFFF" fill-rule="nonzero">
            <g id="编组-18" transform="translate(174.000000, 624.000000)">
                <g id="邀请人-2" transform="translate(5.000000, 0.000000)">
                    <g id="邀请人" transform="translate(2.000000, 0.000000)">
                        <path d="M14.4,5.895 C14.4,4.32 13.7890909,2.79 12.6981818,1.70999999 C11.6072727,0.630000002 10.1236364,0 8.55272726,0 C5.32363635,0 2.70545455,2.655 2.7490909,5.895 C2.7490909,7.02 3.05454545,8.10000001 3.66545454,9.04500001 C4.14545454,9.81000002 4.75636363,10.44 5.54181817,10.89 C4.01454544,11.475 2.70545453,12.51 1.74545454,13.815 C0.610909074,15.345 0,17.19 0,19.08 C0,19.485 0.305454546,19.8 0.698181818,19.8 C1.09090909,19.8 1.39636364,19.485 1.39636364,19.08 C1.39636364,17.19 2.09454545,15.39 3.40363636,14.04 C4.6690909,12.69 6.45818183,11.88 8.29090909,11.79 C9.90545455,11.88 11.52,11.25 12.6545454,10.08 C13.7890909,8.955 14.4,7.46999999 14.4,5.895 L14.4,5.895 Z M8.55272726,10.35 C7.37454545,10.35 6.23999999,9.9 5.41090909,9.04500001 C4.58181818,8.19000001 4.14545454,7.06500001 4.14545454,5.895 C4.14545454,3.46500001 6.10909089,1.48500001 8.55272726,1.44 C9.73090908,1.44 10.8218182,1.89000001 11.6509091,2.74499999 C12.48,3.6 12.9163636,4.725 12.9163636,5.895 C12.9163636,7.06500001 12.4363636,8.19000001 11.6072727,9.04500001 C10.8218182,9.90000002 9.7309091,10.35 8.55272726,10.35 Z" id="形状"></path>
                        <path d="M17.1,16.5770883 C17.1,16.1997579 16.7210526,15.9062787 16.2947369,15.9062787 L14.2578947,15.9062787 L14.2578947,13.9777011 L14.2578947,13.933792 C14.1266459,13.6168999 13.6894737,13.3907427 13.2157895,13.5584451 C12.8842105,13.6422963 12.6473684,13.9357755 12.6473684,14.2292547 L12.6473684,15.9482043 L10.7052631,15.9482043 C10.2315789,15.9482043 9.9,16.3255347 9.9,16.7028651 C9.9,17.0801955 10.3263158,17.1561656 10.7526316,17.1561656 L12.6947368,17.1561656 L12.7410273,19.3022523 L12.7410273,19.3272864 C12.8831325,19.7046168 13.3105263,19.8892107 13.7368421,19.7634339 C13.9736842,19.6795827 14.2105263,19.5118803 14.2578947,19.3022523 L14.2578947,19.2745273 L14.2578947,17.1561656 L16.2947369,17.1561656 C16.8157895,17.0723144 17.1,16.9544187 17.1,16.5770883 Z" id="路径"></path>
                    </g>
                </g>
            </g>
        </g>
    </g>
</svg>
