<?xml version="1.0" encoding="UTF-8"?>
<svg width="28px" height="28px" viewBox="0 0 28 28" version="1.1" xmlns="http://www.w3.org/2000/svg" xmlns:xlink="http://www.w3.org/1999/xlink">
    <!-- Generator: Sketch 63 (92445) - https://sketch.com -->
    <title>带看</title>
    <desc>Created with Sketch.</desc>
    <defs>
        <linearGradient x1="70.8913783%" y1="108.520621%" x2="35.8469389%" y2="14.7170925%" id="linearGradient-1">
            <stop stop-color="#FFFFFF" stop-opacity="0.5" offset="0%"></stop>
            <stop stop-color="#FFFFFF" offset="100%"></stop>
        </linearGradient>
        <linearGradient x1="50%" y1="0%" x2="50%" y2="100%" id="linearGradient-2">
            <stop stop-color="#FFFFFF" offset="0%"></stop>
            <stop stop-color="#FFFFFF" stop-opacity="0.5" offset="100%"></stop>
        </linearGradient>
    </defs>
    <g id="展示端2.3" stroke="none" stroke-width="1" fill="none" fill-rule="evenodd">
        <g id="icon" transform="translate(-282.000000, -63.000000)" fill-rule="nonzero">
            <g id="带看-2" transform="translate(282.000000, 63.000000)">
                <g id="带看" transform="translate(0.000000, 1.000000)">
                    <g id="用户_双人" transform="translate(0.000000, 0.615950)" fill="#FFFFFF" fill-opacity="0.8">
                        <path d="M5.67875829,11.137239 C4.17823508,10.0938663 3.10777817,8.12267358 3.10777817,6.03252955 C3.10777817,2.78685871 5.46529472,-6.92779167e-14 8.35647018,-6.92779167e-14 C8.67666549,-6.92779167e-14 9,0.346658025 9,0.696714678 C9,1.0433727 8.67980468,1.39342936 8.35647018,1.39342936 C6.10568538,1.39342936 4.28496687,3.48017479 4.28496687,6.03252955 C4.28496687,8.5848843 6.10568538,10.6716297 8.35647018,10.6716297 C8.67666549,10.6716297 9,11.0182877 9,11.3683444 C9,11.7150024 8.67980468,12.0650591 8.35647018,12.0650591 C4.39169864,12.0650591 1.28705964,15.7797378 1.28705964,20.3032853 C1.28705964,20.6499433 0.966864327,21 0.643529822,21 C0.320195316,21 0,20.6499434 0,20.3032853 C0,16.0108432 2.35751657,12.4151157 5.67875829,11.137239 Z" id="形状"></path>
                    </g>
                    <g id="找经纪人" transform="translate(4.000000, 0.000000)">
                        <path d="M22.419027,19.81143 C21.831507,18.422406 20.990547,17.175078 19.919619,16.10415 C18.848691,15.033222 17.601219,14.192262 16.212339,13.604742 C14.773779,12.996342 13.246227,12.68775 11.671875,12.68775 C8.575299,12.68775 6.055875,10.168326 6.055875,7.07175 C6.055875,3.975174 8.575299,1.45575 11.671875,1.45575 C14.768451,1.45575 17.287875,3.975174 17.287875,7.07175 C17.2885407,8.43964952 16.7893319,9.76064779 15.884163,10.78623 C15.6210413,11.0843842 15.6494408,11.5393883 15.947595,11.80251 C16.2457492,12.0656317 16.7007533,12.0372322 16.963875,11.739078 C18.10126,10.450408 18.7285929,8.79056191 18.727875,7.07175 C18.727875,5.187078 17.993907,3.415014 16.661187,2.082438 C15.328467,0.749718 13.556547,0.01575 11.671875,0.01575 C9.787203,0.01575 8.015139,0.749718 6.682563,2.082438 C5.349843,3.415158 4.615875,5.187078 4.615875,7.07175 C4.615875,8.956422 5.349843,10.728486 6.682563,12.061062 C8.015283,13.393638 9.787203,14.12775 11.671875,14.12775 C14.402835,14.12775 16.970355,15.19119 18.901395,17.12223 C20.832435,19.05327 21.895875,21.62079 21.895875,24.35175 C21.895875,24.749478 22.218147,25.07175 22.615875,25.07175 C23.013603,25.07175 23.335875,24.749478 23.335875,24.35175 C23.335875,22.777398 23.027283,21.249846 22.419027,19.81143 L22.419027,19.81143 Z" id="路径" fill="url(#linearGradient-1)"></path>
                        <path d="M6.525459,13.881798 C4.59857405,14.8309879 2.97030803,16.2925014 1.819251,18.106038 C0.634275,19.971846 0.007875,22.131558 0.007875,24.35175 C0.007875,24.749395 0.33022998,25.07175 0.727875,25.07175 C1.12552002,25.07175 1.447875,24.749395 1.447875,24.35175 C1.447875,22.405302 1.996659,20.51271 3.034899,18.878022 C4.04420427,17.2876879 5.47198907,16.0060296 7.161651,15.173622 C7.39373508,15.0607458 7.54765482,14.8322869 7.56509622,14.5747993 C7.58253762,14.3173117 7.46083268,14.0701829 7.24609052,13.9270401 C7.03134835,13.7838973 6.7564178,13.7666368 6.525459,13.881798 L6.525459,13.881798 Z" id="路径" fill="url(#linearGradient-2)"></path>
                        <path d="M10.519875,17.15175 C10.519875,17.787982 11.035643,18.30375 11.671875,18.30375 C12.308107,18.30375 12.823875,17.787982 12.823875,17.15175 C12.823875,16.515518 12.308107,15.99975 11.671875,15.99975 C11.035643,15.99975 10.519875,16.515518 10.519875,17.15175 L10.519875,17.15175 Z" id="路径" fill="#16D475"></path>
                        <path d="M13.682259,22.051926 L12.327795,18.750582 C12.1196904,18.8360665 11.896853,18.8799491 11.671875,18.87975 C11.439603,18.87975 11.218275,18.83367 11.015955,18.750726 L9.661491,22.05207 C9.48364418,22.485628 9.58357541,22.9835808 9.914931,23.31495 L11.258163,24.658182 C11.3678856,24.7679065 11.5167025,24.8295492 11.671875,24.8295492 C11.8270475,24.8295492 11.9758644,24.7679065 12.085587,24.658182 L13.428819,23.31495 C13.7600928,22.9834779 13.8600097,22.4855396 13.682259,22.051926 Z" id="路径" fill="#16D475"></path>
                    </g>
                </g>
            </g>
        </g>
    </g>
</svg>
