<?xml version="1.0" encoding="UTF-8"?>
<svg width="19px" height="18px" viewBox="0 0 19 18" version="1.1" xmlns="http://www.w3.org/2000/svg" xmlns:xlink="http://www.w3.org/1999/xlink">
    <title>点赞</title>
    <g id="构家方案" stroke="none" stroke-width="1" fill="none" fill-rule="evenodd">
        <g id="初始界面" transform="translate(-333.000000, -354.000000)" stroke-width="2">
            <g id="编组-2" transform="translate(323.000000, 229.000000)">
                <g id="点赞备份" transform="translate(4.000000, 120.000000)">
                    <g id="点赞" transform="translate(7.000000, 6.000000)">
                        <path d="M2.80022669,15 L1.20034004,15 C0.537262681,15 0,14.5403636 0,13.9730909 L0,7.56654545 C0,7.25381818 0.296684613,7 0.66222726,7 L2.69991499,7 C2.86568433,7 3,7.11490909 3,7.25672727 L3,14.8290909 C3,14.9236364 2.91073959,15 2.80022669,15 Z" id="Stroke-1" stroke="#36D988"></path>
                        <path d="M6.00674676,8.3381424 C6.00742144,7.78815108 6.09917738,7.24012636 6.28943604,6.72160057 C6.66523062,5.69765964 7.25962026,3.78416184 7.05182002,2.40754471 C6.80758728,0.79493608 6.64971307,-0.443363801 8.02402826,0.151859223 C9.33694793,0.720860968 10.0946092,2.36886833 9.72960941,4.75107149 C9.6594431,5.21059939 10.0149974,5.62751772 10.4933427,5.62751772 L14.9644212,5.62751772 C16.262498,5.62751772 17.2286341,6.79239802 16.9526916,8.02414259 L15.5163062,14.4437671 C15.312554,15.3523344 14.4847265,16 13.5280358,16 L8.0341484,16 C6.91081272,16 6,15.1150318 6,14.0235711 L6.00674676,8.3381424 Z" id="Stroke-3" stroke="#FFFFFF"></path>
                    </g>
                </g>
            </g>
        </g>
    </g>
</svg>